<svg height="512pt" viewBox="0 0 512 512" width="512pt" xmlns="http://www.w3.org/2000/svg" xmlns:xlink="http://www.w3.org/1999/xlink"><linearGradient id="a" gradientUnits="userSpaceOnUse" x1="74.9807" x2="437.0193" y1="74.9807" y2="437.0193"><stop offset="0" stop-color="#ffd567"/><stop offset="1" stop-color="#ffa725"/></linearGradient><linearGradient id="b" gradientUnits="userSpaceOnUse" x1="194.7066" x2="337.5435" y1="174.4565" y2="317.2935"><stop offset="0" stop-color="#ff6e2e"/><stop offset="1" stop-color="#ff364e"/></linearGradient><linearGradient id="c" gradientUnits="userSpaceOnUse" x1="162.2715" x2="256.1357" y1="255.8642" y2="349.7285"><stop offset="0" stop-color="#ff8b2a"/><stop offset="1" stop-color="#ff5233"/></linearGradient><linearGradient id="d" gradientUnits="userSpaceOnUse" x1="186.7578" x2="231.6494" y1="280.3506" y2="325.2422"><stop offset="0" stop-color="#fff3d6"/><stop offset="1" stop-color="#ffbe9f"/></linearGradient><path d="m512 256c0 141.386719-114.613281 256-256 256s-256-114.613281-256-256 114.613281-256 256-256 256 114.613281 256 256zm0 0" fill="url(#a)"/><path d="m396.15625 221.953125c-10.128906-10.128906-26.605469-10.128906-36.730469 0l-36.730469 36.726563c-3.375 3.375-8.867187 3.375-12.242187 0s-3.375-8.867188 0-12.242188l84.011719-84.011719c12.378906-12.375 12.378906-32.515625 0-44.890625-12.375-12.378906-32.515625-12.378906-44.890625 0l-84.011719 84.011719c-3.375 3.375-8.871094 3.375-12.246094 0s-3.375-8.867187 0-12.242187l36.730469-36.730469c10.125-10.125 10.125-26.601563 0-36.730469-10.125-10.125-26.601563-10.125-36.730469 0l-115.53125 115.535156c-39.378906 39.378906-39.378906 103.457032 0 142.835938s103.457032 39.378906 142.835938 0l115.535156-115.53125c10.125-10.128906 10.125-26.605469 0-36.730469zm0 0" fill="url(#b)"/><path d="m256.136719 255.863281c-25.921875-25.917969-67.945313-25.917969-93.863281 0-25.921876 25.921875-25.921876 67.945313 0 93.863281 25.917968 25.921876 67.941406 25.921876 93.863281 0 25.917969-25.917968 25.917969-67.941406 0-93.863281zm0 0" fill="url(#c)"/><path d="m231.648438 280.351562c-12.394532-12.398437-32.496094-12.398437-44.890626 0-12.398437 12.394532-12.398437 32.496094 0 44.890626 12.394532 12.398437 32.496094 12.398437 44.890626 0 12.398437-12.394532 12.398437-32.496094 0-44.890626zm0 0" fill="url(#d)"/></svg>