<svg height="512pt" viewBox="0 0 512 512" width="512pt" xmlns="http://www.w3.org/2000/svg" xmlns:xlink="http://www.w3.org/1999/xlink"><linearGradient id="a" gradientUnits="userSpaceOnUse" x1="74.9807" x2="437.0193" y1="74.9807" y2="437.0193"><stop offset="0" stop-color="#bcf7fc"/><stop offset="1" stop-color="#71d1fe"/></linearGradient><linearGradient id="b" gradientUnits="userSpaceOnUse" x1="145.2129" x2="279.0522" y1="232.9067" y2="366.7461"><stop offset="0" stop-color="#a33b1a"/><stop offset="1" stop-color="#462300"/></linearGradient><linearGradient id="c" gradientUnits="userSpaceOnUse" x1="267.9811" x2="355.9324" y1="156.0265" y2="243.9778"><stop offset="0" stop-color="#ff6e2e"/><stop offset="1" stop-color="#ff364e"/></linearGradient><linearGradient id="d" gradientUnits="userSpaceOnUse" x1="252.4334" x2="294.4972" y1="217.4619" y2="259.5256"><stop offset="0" stop-color="#fff3d6"/><stop offset="1" stop-color="#ffbe9f"/></linearGradient><path d="m512 256c0 141.386719-114.613281 256-256 256s-256-114.613281-256-256 114.613281-256 256-256 256 114.613281 256 256zm0 0" fill="url(#a)"/><path d="m279.050781 232.90625c-36.957031-36.957031-96.878906-36.957031-133.835937 0-36.960938 36.960938-36.960938 96.882812 0 133.839844 36.957031 36.957031 96.878906 36.957031 133.835937 0 36.960938-36.960938 36.960938-96.882813 0-133.839844zm0 0" fill="url(#b)"/><g fill="#ffd567"><path d="m133.761719 133.757812h16.222656v16.226563h-16.222656zm0 0"/><path d="m166.210938 166.207031h16.222656v16.222657h-16.222656zm0 0"/><path d="m198.65625 133.757812h16.226562v16.226563h-16.226562zm0 0"/></g><path d="m361.976562 297.078125h16.222657v16.222656h-16.222657zm0 0" fill="#ffc320"/><path d="m329.527344 329.527344h16.226562v16.222656h-16.226562zm0 0" fill="#ffc320"/><path d="m361.976562 361.972656h16.222657v16.222656h-16.222657zm0 0" fill="#ffc320"/><path d="m247.066406 182.183594-.207031.09375c-6.449219 3.042968-12.292969 7.164062-17.371094 12.242187-11.730469 11.726563-18.1875 27.34375-18.1875 43.972657 0 16.628906 6.457031 32.246093 18.1875 43.976562s27.347657 18.191406 43.976563 18.191406 32.246094-6.460937 43.976562-18.191406c5.078125-5.078125 9.195313-10.921875 12.242188-17.371094l64.738281-147.5625zm0 0" fill="url(#c)"/><path d="m294.496094 217.460938c-11.613282-11.613282-30.445313-11.613282-42.0625 0-11.617188 11.617187-11.617188 30.449218 0 42.066406 11.617187 11.613281 30.449218 11.613281 42.0625 0 11.617187-11.617188 11.617187-30.449219 0-42.066406zm0 0" fill="url(#d)"/></svg>