<svg height="512pt" viewBox="0 0 512 512" width="512pt" xmlns="http://www.w3.org/2000/svg" xmlns:xlink="http://www.w3.org/1999/xlink"><linearGradient id="a" gradientUnits="userSpaceOnUse" x1="74.9807" x2="437.0193" y1="74.9807" y2="437.0193"><stop offset="0" stop-color="#ffd567"/><stop offset="1" stop-color="#ffa725"/></linearGradient><linearGradient id="b"><stop offset="0" stop-color="#5da938"/><stop offset="1" stop-color="#205c4a"/></linearGradient><linearGradient id="c" gradientUnits="userSpaceOnUse" x1="297.4196" x2="376.9252" xlink:href="#b" y1="190.333" y2="269.8387"/><linearGradient id="d" gradientUnits="userSpaceOnUse" x1="135.0748" x2="214.5804" xlink:href="#b" y1="190.333" y2="269.8387"/><linearGradient id="e" gradientUnits="userSpaceOnUse" x1="151.6355" x2="360.3645" y1="218.9805" y2="427.7095"><stop offset="0" stop-color="#205c4a"/><stop offset="1" stop-color="#0e424f"/></linearGradient><linearGradient id="f" gradientUnits="userSpaceOnUse" x1="211.2614" x2="310.0919" y1="224.2609" y2="323.0914"><stop offset="0" stop-color="#fff"/><stop offset="1" stop-color="#97e4fd"/></linearGradient><linearGradient id="g"><stop offset="0" stop-color="#bcf7fc"/><stop offset="1" stop-color="#71d1fe"/></linearGradient><linearGradient id="h" gradientUnits="userSpaceOnUse" x1="194.9157" x2="317.0844" xlink:href="#g" y1="316.4599" y2="438.6285"/><linearGradient id="i" gradientUnits="userSpaceOnUse" x1="201.2626" x2="310.7374" xlink:href="#g" y1="170.0541" y2="279.5289"/><path d="m512 256c0 141.386719-114.613281 256-256 256s-256-114.613281-256-256 114.613281-256 256-256 256 114.613281 256 256zm0 0" fill="url(#a)"/><path d="m337.171875 151.976562-56.902344 55.503907v45.210937h113.804688v-45.210937zm0 0" fill="url(#c)"/><path d="m174.828125 151.976562-56.902344 55.503907v45.210937h113.804688v-45.210937zm0 0" fill="url(#d)"/><path d="m365.476562 224.792969-109.476562-12.984375v-3.199219l-12.003906 1.777344-14.964844-1.777344.640625 3.894531-83.148437 12.289063-28.597657 27.898437v141.308594h32.359375l105.714844-21.574219 105.714844 21.574219h32.359375v-141.308594zm0 0" fill="url(#e)"/><path d="m256 216.015625h-36.492188v109.929687h21.757813l-1.445313 10.785157h56.628907v-120.714844zm0 0" fill="url(#f)"/><path d="m321.261719 337.367188h-5.257813c-4.371094-10.753907-11.667968-20.316407-20.96875-27.359376-11.3125-8.566406-24.8125-13.09375-39.035156-13.09375s-27.722656 4.527344-39.035156 13.09375c-9.300782 7.042969-16.597656 16.605469-20.96875 27.359376h-5.257813c-22.304687 0-40.449219 18.144531-40.449219 40.449218v16.183594h211.425782v-16.183594c0-22.304687-18.148438-40.449218-40.453125-40.449218zm0 0" fill="url(#h)"/><path d="m219.507812 224.792969 36.492188 35.597656 36.492188-35.597656 36.492187 35.597656 36.492187-35.597656-109.476562-106.792969-109.476562 106.792969 36.492187 35.597656zm0 0" fill="url(#i)"/></svg>