<svg height="512pt" viewBox="0 0 512 512" width="512pt" xmlns="http://www.w3.org/2000/svg" xmlns:xlink="http://www.w3.org/1999/xlink"><linearGradient id="a" gradientUnits="userSpaceOnUse" x1="74.9807" x2="437.0193" y1="74.9807" y2="437.0193"><stop offset="0" stop-color="#ff6c84"/><stop offset="1" stop-color="#ff1a69"/></linearGradient><linearGradient id="b"><stop offset="0" stop-color="#fff3d6"/><stop offset="1" stop-color="#ffbe9f"/></linearGradient><linearGradient id="c" gradientUnits="userSpaceOnUse" x1="182.9178" x2="329.0822" xlink:href="#b" y1="312.8275" y2="458.9918"/><linearGradient id="d"><stop offset="0" stop-color="#5da938"/><stop offset="1" stop-color="#205c4a"/></linearGradient><linearGradient id="e" gradientUnits="userSpaceOnUse" x1="297.4196" x2="376.9252" xlink:href="#d" y1="190.333" y2="269.8387"/><linearGradient id="f" gradientUnits="userSpaceOnUse" x1="135.0748" x2="214.5804" xlink:href="#d" y1="190.333" y2="269.8387"/><linearGradient id="g" gradientUnits="userSpaceOnUse" x1="155.6807" x2="356.3193" y1="214.9353" y2="415.574"><stop offset="0" stop-color="#205c4a"/><stop offset="1" stop-color="#0e424f"/></linearGradient><linearGradient id="h" gradientUnits="userSpaceOnUse" x1="207.4797" x2="304.5203" xlink:href="#b" y1="218.1385" y2="315.1791"/><linearGradient id="i" gradientUnits="userSpaceOnUse" x1="194.9156" x2="317.0844" y1="300.2791" y2="422.4479"><stop offset="0" stop-color="#ffd567"/><stop offset="1" stop-color="#ffa725"/></linearGradient><linearGradient id="j" gradientUnits="userSpaceOnUse" x1="233.1168" x2="278.8832" xlink:href="#b" y1="322.5741" y2="368.3405"/><path d="m512 256c0 141.386719-114.613281 256-256 256s-256-114.613281-256-256 114.613281-256 256-256 256 114.613281 256 256zm0 0" fill="url(#a)"/><path d="m256 312.277344v-15.359375l-14.484375 8.484375-17.875-8.484375 5.285156 15.863281-111 65.039062v16.179688h276.148438v-16.179688zm0 0" fill="url(#c)"/><path d="m337.171875 151.976562-56.902344 55.503907v45.210937h113.804688v-45.210937zm0 0" fill="url(#e)"/><path d="m174.828125 151.976562-56.902344 55.503907v45.210937h113.804688v-45.210937zm0 0" fill="url(#f)"/><path d="m256 118-138.074219 134.691406v125.128906h32.359375l103.394532-21.101562 108.035156 21.101562h32.359375v-125.128906zm0 0" fill="url(#g)"/><path d="m256 186.347656c-22.304688 0-40.449219 18.144532-40.449219 40.449219v96.449219h80.898438v-96.449219c0-22.304687-18.144531-40.449219-40.449219-40.449219zm0 0" fill="url(#h)"/><path d="m321.261719 321.183594h-5.257813c-4.371094-10.75-11.667968-20.3125-20.96875-27.355469-11.3125-8.566406-24.8125-13.09375-39.035156-13.09375-14.226562 0-27.722656 4.527344-39.035156 13.09375-9.300782 7.042969-16.597656 16.605469-20.972656 27.355469h-5.253907c-22.304687 0-40.453125 18.148437-40.453125 40.453125v16.183593h211.429688v-16.183593c0-22.304688-18.148438-40.453125-40.453125-40.453125zm0 0" fill="url(#i)"/><path d="m344.992188 256.464844h16.183593v16.179687h-16.183593zm0 0" fill="#ffbe9f"/><path d="m150.824219 256.464844h16.183593v16.179687h-16.183593zm0 0" fill="#ffe7ad"/><path d="m312.632812 272.644531h16.179688v16.179688h-16.179688zm0 0" fill="#ffd567"/><path d="m183.1875 272.644531h16.179688v16.179688h-16.179688zm0 0" fill="#ffd567"/><path d="m256 313.09375c-17.871094 0-32.359375 14.492188-32.359375 32.363281 0 17.871094 14.488281 32.363281 32.359375 32.363281s32.359375-14.492187 32.359375-32.363281c0-17.871093-14.488281-32.363281-32.359375-32.363281zm0 0" fill="url(#j)"/></svg>