<svg height="512pt" viewBox="0 0 512 512" width="512pt" xmlns="http://www.w3.org/2000/svg" xmlns:xlink="http://www.w3.org/1999/xlink"><linearGradient id="a" gradientUnits="userSpaceOnUse" x1="74.9807" x2="437.0193" y1="74.9807" y2="437.0193"><stop offset="0" stop-color="#ff8b2a"/><stop offset="1" stop-color="#ff5233"/></linearGradient><linearGradient id="b" gradientUnits="userSpaceOnUse" x1="135.0748" x2="214.5804" y1="190.333" y2="269.8387"><stop offset="0" stop-color="#5da938"/><stop offset="1" stop-color="#205c4a"/></linearGradient><linearGradient id="c" gradientUnits="userSpaceOnUse" x1="135.455" x2="344.184" y1="235.161" y2="443.89"><stop offset="0" stop-color="#205c4a"/><stop offset="1" stop-color="#0e424f"/></linearGradient><linearGradient id="d"><stop offset="0" stop-color="#fff"/><stop offset="1" stop-color="#97e4fd"/></linearGradient><linearGradient id="e" gradientUnits="userSpaceOnUse" x1="221.0736" x2="329.2067" xlink:href="#d" y1="217.6486" y2="325.7816"/><linearGradient id="f" gradientUnits="userSpaceOnUse" x1="200.5919" x2="273.1278" xlink:href="#d" y1="170.725" y2="243.2609"/><path d="m512 256c0 141.386719-114.613281 256-256 256s-256-114.613281-256-256 114.613281-256 256-256 256 114.613281 256 256zm0 0" fill="url(#a)"/><path d="m174.828125 151.976562-56.902344 55.503907v45.210937h113.804688v-45.210937zm0 0" fill="url(#b)"/><path d="m365.476562 289.515625-109.476562-11.609375v-17.515625l-37.753906-51.78125-71.722656 16.183594-28.597657 27.898437v141.308594h276.148438v-76.589844zm0 0" fill="url(#c)"/><path d="m256 182.722656v142.386719l36.492188-35.59375 36.492187 35.59375 36.492187-35.59375zm0 0" fill="url(#e)"/><g fill="#71d1fe"><path d="m364.527344 268.644531-11.441406-11.441406 11.441406-11.441406 11.441406 11.441406zm0 0"/><path d="m364.527344 222.878906-11.441406-11.441406 11.441406-11.441406 11.441406 11.441406zm0 0"/><path d="m318.757812 222.878906-11.441406-11.441406 11.441406-11.441406 11.441407 11.441406zm0 0"/></g><path d="m146.523438 224.792969 36.492187 35.597656 36.492187-35.601563 36.492188 35.601563v-142.390625zm0 0" fill="url(#f)"/></svg>