<svg height="512pt" viewBox="0 0 512 512" width="512pt" xmlns="http://www.w3.org/2000/svg" xmlns:xlink="http://www.w3.org/1999/xlink"><linearGradient id="a" gradientUnits="userSpaceOnUse" x1="74.9807" x2="437.0193" y1="74.9807" y2="437.0193"><stop offset="0" stop-color="#bcf7fc"/><stop offset="1" stop-color="#71d1fe"/></linearGradient><linearGradient id="b" gradientUnits="userSpaceOnUse" x1="174.4597" x2="337.5406" y1="70.7918" y2="233.8727"><stop offset="0" stop-color="#71d1fe"/><stop offset="1" stop-color="#2196dc"/></linearGradient><linearGradient id="c" gradientUnits="userSpaceOnUse" x1="176.7725" x2="423.0659" y1="118.6408" y2="364.9342"><stop offset="0" stop-color="#186c95"/><stop offset="1" stop-color="#093f61"/></linearGradient><linearGradient id="d" gradientUnits="userSpaceOnUse" x1="268.2429" x2="338.2071" y1="317.2976" y2="387.2617"><stop offset="0" stop-color="#ff6e2e"/><stop offset="1" stop-color="#ff364e"/></linearGradient><linearGradient id="e" gradientUnits="userSpaceOnUse" x1="212.138" x2="318.8433" y1="262.1859" y2="368.8911"><stop offset="0" stop-color="#ff8b2a"/><stop offset="1" stop-color="#ff5233"/></linearGradient><linearGradient id="f" gradientUnits="userSpaceOnUse" x1="108.581" x2="265.4191" y1="227.7428" y2="384.581"><stop offset="0" stop-color="#ffd567"/><stop offset="1" stop-color="#ffa725"/></linearGradient><path d="m512 256c0 141.386719-114.613281 256-256 256s-256-114.613281-256-256 114.613281-256 256-256 256 114.613281 256 256zm0 0" fill="url(#a)"/><path d="m394 127.25c-10.367188 0-19.925781-3.445312-27.601562-9.25-7.675782 5.804688-17.234376 9.25-27.597657 9.25-10.367187 0-19.925781-3.445312-27.601562-9.25-7.675781 5.804688-17.234375 9.25-27.597657 9.25-10.367187 0-19.925781-3.445312-27.601562-9.25-7.675781 5.804688-17.234375 9.25-27.601562 9.25-10.363282 0-19.921876-3.445312-27.597657-9.25-7.675781 5.804688-17.234375 9.25-27.601562 9.25-10.363281 0-19.921875-3.445312-27.597657-9.25-7.675781 5.804688-17.234374 9.25-27.601562 9.25v50.164062l107.648438 18.011719-1.992188 5.078125 17.867188-2.421875 14.476562 2.425781v-4.386718l138-18.707032zm0 0" fill="url(#b)"/><path d="m366.398438 168.160156c-7.675782 5.804688-17.234376 9.253906-27.597657 9.253906-10.367187 0-19.925781-3.449218-27.601562-9.253906-7.675781 5.804688-17.234375 9.253906-27.597657 9.253906-10.367187 0-19.925781-3.449218-27.601562-9.253906-7.675781 5.804688-17.234375 9.253906-27.601562 9.253906-10.363282 0-19.921876-3.449218-27.597657-9.253906-7.675781 5.804688-17.234375 9.253906-27.601562 9.253906-10.363281 0-19.921875-3.449218-27.597657-9.253906-7.675781 5.804688-17.234374 9.253906-27.601562 9.253906v40.910157l103.335938 48.4375-13.851563 39.398437 123.984375 87.839844h62.53125v-216.585938c-10.363281 0-19.925781-3.449218-27.601562-9.253906zm0 0" fill="url(#c)"/><path d="m355.726562 361.65625h16.171876v16.171875h-16.171876zm0 0" fill="#ff6e2e"/><path d="m355.726562 329.3125h16.171876v16.171875h-16.171876zm0 0" fill="#ff6e2e"/><path d="m293.734375 291.804688-26.953125 51.097656 26.953125 51.097656h37.734375v-64.6875zm0 0" fill="url(#d)"/><path d="m256 218.324219-48.515625 87.835937 48.515625 87.839844h37.734375v-138.171875zm0 0" fill="url(#e)"/><path d="m118 218.324219h138v175.675781h-138zm0 0" fill="url(#f)"/></svg>