<svg height="512pt" viewBox="0 0 512 512" width="512pt" xmlns="http://www.w3.org/2000/svg" xmlns:xlink="http://www.w3.org/1999/xlink"><linearGradient id="a" gradientUnits="userSpaceOnUse" x1="74.9807" x2="437.0193" y1="74.9807" y2="437.0193"><stop offset="0" stop-color="#bcf7fc"/><stop offset="1" stop-color="#71d1fe"/></linearGradient><linearGradient id="b"><stop offset="0" stop-color="#a33b1a"/><stop offset="1" stop-color="#462300"/></linearGradient><linearGradient id="c" gradientUnits="userSpaceOnUse" x1="168.4316" x2="196.0848" xlink:href="#b" y1="186.2526" y2="213.9057"/><linearGradient id="d" gradientUnits="userSpaceOnUse" x1="315.9152" x2="343.5684" xlink:href="#b" y1="186.2526" y2="213.9057"/><linearGradient id="e" gradientUnits="userSpaceOnUse" x1="228.0396" x2="283.9604" xlink:href="#b" y1="357.0878" y2="413.0085"/><linearGradient id="f" gradientUnits="userSpaceOnUse" x1="154.2978" x2="357.7021" y1="190.5542" y2="393.9585"><stop offset="0" stop-color="#ff8b2a"/><stop offset="1" stop-color="#ff5233"/></linearGradient><linearGradient id="g"><stop offset="0" stop-color="#2196dc"/><stop offset="1" stop-color="#135772"/></linearGradient><linearGradient id="h" gradientUnits="userSpaceOnUse" x1="269.8266" x2="355.8586" xlink:href="#g" y1="84.8576" y2="170.8897"/><linearGradient id="i"><stop offset="0" stop-color="#186c95"/><stop offset="1" stop-color="#093f61"/></linearGradient><linearGradient id="j" gradientUnits="userSpaceOnUse" x1="334.3506" x2="377.3667" xlink:href="#i" y1="146.3091" y2="189.3251"/><linearGradient id="k" gradientUnits="userSpaceOnUse" x1="294.4072" x2="337.4232" xlink:href="#i" y1="100.2205" y2="143.2365"/><linearGradient id="l" gradientUnits="userSpaceOnUse" x1="245.246" x2="297.4797" xlink:href="#i" y1="137.0914" y2="189.3251"/><linearGradient id="m" gradientUnits="userSpaceOnUse" x1="288.8766" x2="353.4006" xlink:href="#i" y1="259.9944" y2="324.5184"/><linearGradient id="n" gradientUnits="userSpaceOnUse" x1="244.6315" x2="314.0717" xlink:href="#g" y1="257.5363" y2="326.9765"/><linearGradient id="o" gradientUnits="userSpaceOnUse" x1="197.9283" x2="267.3685" xlink:href="#g" y1="257.5363" y2="326.9765"/><linearGradient id="p" gradientUnits="userSpaceOnUse" x1="163.5257" x2="237.9023" xlink:href="#i" y1="255.0681" y2="329.4447"/><linearGradient id="q" gradientUnits="userSpaceOnUse" x1="153.0688" x2="239.1008" xlink:href="#g" y1="121.7285" y2="207.7606"/><linearGradient id="r"><stop offset="0" stop-color="#71d1fe"/><stop offset="1" stop-color="#2196dc"/></linearGradient><linearGradient id="s" gradientUnits="userSpaceOnUse" x1="214.5202" x2="257.5363" xlink:href="#r" y1="100.2205" y2="143.2365"/><linearGradient id="t" gradientUnits="userSpaceOnUse" x1="174.5768" x2="217.5928" xlink:href="#i" y1="146.3091" y2="189.3251"/><linearGradient id="u" gradientUnits="userSpaceOnUse" x1="134.6333" x2="177.6494" xlink:href="#r" y1="100.2205" y2="143.2365"/><path d="m512 256c0 141.386719-114.613281 256-256 256s-256-114.613281-256-256 114.613281-256 256-256 256 114.613281 256 256zm0 0" fill="url(#a)"/><path d="m173.039062 181.644531h18.4375v36.871094h-18.4375zm0 0" fill="url(#c)"/><path d="m320.523438 181.644531h18.4375v36.871094h-18.4375zm0 0" fill="url(#d)"/><path d="m256 356.78125h-27.652344v56.535156h55.304688v-56.535156zm0 0" fill="url(#e)"/><path d="m256 209.296875h-120.445312v165.917969h240.890624v-165.917969zm0 0" fill="url(#f)"/><path d="m295.941406 190.859375h39.945313l39.941406-46.085937v-46.089844h-39.941406l-19.972657 27.652344-19.972656-27.652344h-39.941406l-18.433594 46.089844zm0 0" fill="url(#h)"/><path d="m335.886719 144.773438h39.941406v46.089843h-39.941406zm0 0" fill="url(#j)"/><path d="m295.941406 98.683594h39.945313v46.089844h-39.945313zm0 0" fill="url(#k)"/><path d="m237.566406 144.773438 18.433594 46.085937h39.941406v-46.085937zm0 0" fill="url(#l)"/><path d="m339.574219 246.167969h-36.871094l-18.433594 46.089843 18.433594 46.085938h36.871094zm0 0" fill="url(#m)"/><path d="m256 246.167969-30.726562 46.089843 30.726562 46.085938h46.703125v-92.175781zm0 0" fill="url(#n)"/><path d="m209.296875 246.167969h46.703125v92.175781h-46.703125zm0 0" fill="url(#o)"/><path d="m209.910156 246.167969h-37.484375v92.175781h37.484375c25.453125 0 46.089844-20.632812 46.089844-46.085938 0-25.457031-20.636719-46.089843-46.089844-46.089843zm0 0" fill="url(#p)"/><path d="m218.515625 292.257812c0 5.089844-4.128906 9.214844-9.21875 9.214844s-9.21875-4.125-9.21875-9.214844c0-5.09375 4.128906-9.21875 9.21875-9.21875s9.21875 4.125 9.21875 9.21875zm0 0" fill="#26abff"/><path d="m216.058594 98.683594h-39.945313l-39.941406 46.089844v46.085937h39.941406l19.972657-27.652344 19.972656 27.652344h39.941406v-46.085937zm0 0" fill="url(#q)"/><path d="m216.058594 98.683594h39.941406v46.089844h-39.941406zm0 0" fill="url(#s)"/><path d="m176.113281 144.773438h39.941407v46.089843h-39.941407zm0 0" fill="url(#t)"/><path d="m136.171875 98.683594h39.941406v46.089844h-39.941406zm0 0" fill="url(#u)"/></svg>