<svg height="512pt" viewBox="0 0 512 512" width="512pt" xmlns="http://www.w3.org/2000/svg" xmlns:xlink="http://www.w3.org/1999/xlink"><linearGradient id="a"><stop offset="0" stop-color="#ff8b2a"/><stop offset="1" stop-color="#ff5233"/></linearGradient><linearGradient id="b" gradientUnits="userSpaceOnUse" x1="74.9807" x2="437.0193" xlink:href="#a" y1="74.9807" y2="437.0193"/><linearGradient id="c"><stop offset="0" stop-color="#a33b1a"/><stop offset="1" stop-color="#462300"/></linearGradient><linearGradient id="d" gradientUnits="userSpaceOnUse" x1="141.6968" x2="370.3033" xlink:href="#c" y1="190.3117" y2="418.9182"/><linearGradient id="e" gradientUnits="userSpaceOnUse" x1="169.0014" x2="342.9986" xlink:href="#a" y1="217.6004" y2="391.5976"/><linearGradient id="f" gradientUnits="userSpaceOnUse" x1="182.6593" x2="329.3407" y1="231.2614" y2="377.9428"><stop offset="0" stop-color="#ffd567"/><stop offset="1" stop-color="#ffa725"/></linearGradient><linearGradient id="g" gradientUnits="userSpaceOnUse" x1="176.7759" x2="274.1163" xlink:href="#c" y1="281.0859" y2="378.4264"/><linearGradient id="h" gradientUnits="userSpaceOnUse" x1="199.194" x2="245.3314" y1="233.8679" y2="280.0053"><stop offset="0" stop-color="#ff6e2e"/><stop offset="1" stop-color="#ff364e"/></linearGradient><path d="m512 256c0 141.386719-114.613281 256-256 256s-256-114.613281-256-256 114.613281-256 256-256 256 114.613281 256 256zm0 0" fill="url(#b)"/><path d="m411.882812 306.644531-97.253906-168.746093c-12.054687-20.910157-34.519531-33.898438-58.628906-33.898438s-46.574219 12.988281-58.628906 33.898438l-97.253906 168.746093c-5.886719 10.214844-9 21.878907-9 33.726563 0 37.292968 30.339843 67.628906 67.628906 67.628906h194.507812c37.289063 0 67.628906-30.339844 67.628906-67.628906 0-11.847656-3.113281-23.507813-9-33.726563zm0 0" fill="url(#d)"/><path d="m378.398438 325.941406-97.253907-168.746094c-5.25-9.109374-14.652343-14.550781-25.144531-14.550781s-19.894531 5.441407-25.144531 14.550781l-97.253907 168.746094c-2.546874 4.417969-3.839843 9.273438-3.839843 14.429688 0 15.980468 13.003906 28.984375 28.984375 28.984375h194.507812c15.980469 0 28.984375-13.003907 28.984375-28.984375 0-5.15625-1.292969-10.011719-3.839843-14.429688zm0 0" fill="url(#e)"/><path d="m361.660156 335.589844-97.253906-168.746094c-1.8125-3.144531-4.800781-4.878906-8.40625-4.878906s-6.589844 1.734375-8.40625 4.878906l-97.253906 168.746094c-.855469 1.488281-1.253906 3.007812-1.253906 4.78125 0 5.328125 4.332031 9.664062 9.660156 9.664062h194.507812c5.328125 0 9.660156-4.335937 9.660156-9.664062 0-1.773438-.398437-3.292969-1.253906-4.78125zm0 0" fill="url(#f)"/><g fill="#462300"><path d="m281.878906 236.855469 9.648438 16.738281-16.742188 9.648438-9.648437-16.742188zm0 0"/><path d="m320.46875 303.8125 9.648438 16.742188-16.742188 9.648437-9.644531-16.742187zm0 0"/><path d="m301.175781 270.335938 9.644531 16.738281-16.738281 9.648437-9.648437-16.742187zm0 0"/></g><path d="m256 269.335938h-67.476562l-38.183594 66.253906c-.855469 1.488281-1.253906 3.007812-1.253906 4.785156 0 5.324219 4.332031 9.660156 9.660156 9.660156h143.761718zm0 0" fill="url(#g)"/><path d="m256 269.335938-33.738281-58.535157-33.738281 58.535157 33.738281 33.738281zm0 0" fill="url(#h)"/></svg>