<svg height="512pt" viewBox="0 0 512 512" width="512pt" xmlns="http://www.w3.org/2000/svg" xmlns:xlink="http://www.w3.org/1999/xlink"><linearGradient id="a" gradientUnits="userSpaceOnUse" x1="74.9807" x2="437.0193" y1="74.9807" y2="437.0193"><stop offset="0" stop-color="#186c95"/><stop offset="1" stop-color="#093f61"/></linearGradient><linearGradient id="b"><stop offset="0" stop-color="#5da938"/><stop offset="1" stop-color="#205c4a"/></linearGradient><linearGradient id="c" gradientUnits="userSpaceOnUse" x1="289.3293" x2="368.835" xlink:href="#b" y1="198.4233" y2="277.9289"/><linearGradient id="d" gradientUnits="userSpaceOnUse" x1="135.0748" x2="230.761" xlink:href="#b" y1="190.333" y2="286.0192"/><linearGradient id="e" gradientUnits="userSpaceOnUse" x1="186.963" x2="325.037" y1="183.653" y2="321.7269"><stop offset="0" stop-color="#205c4a"/><stop offset="1" stop-color="#0e424f"/></linearGradient><linearGradient id="f" gradientUnits="userSpaceOnUse" x1="226.9998" x2="285.0002" y1="145.5786" y2="203.5791"><stop offset="0" stop-color="#fff"/><stop offset="1" stop-color="#97e4fd"/></linearGradient><linearGradient id="g"><stop offset="0" stop-color="#ff6e2e"/><stop offset="1" stop-color="#ff364e"/></linearGradient><linearGradient id="h" gradientUnits="userSpaceOnUse" x1="252.6628" x2="394.0403" xlink:href="#g" y1="252.6562" y2="394.0337"/><linearGradient id="i" gradientUnits="userSpaceOnUse" x1="121.5329" x2="270.0569" xlink:href="#g" y1="249.083" y2="397.6069"/><path d="m512 256c0 141.386719-114.613281 256-256 256s-256-114.613281-256-256 114.613281-256 256-256 256 114.613281 256 256zm0 0" fill="url(#a)"/><path d="m337.171875 151.976562-56.902344 55.503907v77.570312l113.804688-32.359375v-45.210937zm0 0" fill="url(#c)"/><path d="m174.828125 151.976562-56.902344 55.503907v45.210937l113.804688 32.359375v-77.570312zm0 0" fill="url(#d)"/><path d="m256 290.328125 138.074219-37.636719-80.074219-78.113281-58-7.863281v-2.921875l-9.09375 1.691406-12.480469-1.691406v4.011719l-36.425781 6.773437-80.074219 78.113281 116.5 36.71875v6.800782l11.570313-3.152344 10.003906 3.152344zm0 0" fill="url(#e)"/><path d="m256 118-58 56.578125 29 28.289063 29-28.289063 29 28.289063 29-28.289063zm0 0" fill="url(#f)"/><path d="m273.664062 252.691406-91.691406 70.652344 91.691406 70.65625h120.410157v-141.308594zm0 0" fill="url(#h)"/><path d="m273.664062 323.34375-35.328124-35.328125 35.328124-35.324219h-155.738281v141.308594h155.738281l-35.328124-35.328125zm0 0" fill="url(#i)"/></svg>