<svg height="512pt" viewBox="0 0 512 512" width="512pt" xmlns="http://www.w3.org/2000/svg" xmlns:xlink="http://www.w3.org/1999/xlink"><linearGradient id="a" gradientUnits="userSpaceOnUse" x1="74.9807" x2="437.0193" y1="74.9807" y2="437.0193"><stop offset="0" stop-color="#bcf7fc"/><stop offset="1" stop-color="#71d1fe"/></linearGradient><linearGradient id="b" gradientUnits="userSpaceOnUse" x1="122.8325" x2="247.1205" y1="180.4141" y2="304.702"><stop offset="0" stop-color="#5da938"/><stop offset="1" stop-color="#205c4a"/></linearGradient><linearGradient id="c" gradientUnits="userSpaceOnUse" x1="144.9521" x2="295.1841" y1="284.2767" y2="434.5087"><stop offset="0" stop-color="#ff6e2e"/><stop offset="1" stop-color="#ff364e"/></linearGradient><linearGradient id="d" gradientUnits="userSpaceOnUse" x1="289.0948" x2="389.2859" y1="252.0394" y2="352.2305"><stop offset="0" stop-color="#a33b1a"/><stop offset="1" stop-color="#462300"/></linearGradient><path d="m512 256c0 141.386719-114.613281 256-256 256s-256-114.613281-256-256 114.613281-256 256-256 256 114.613281 256 256zm0 0" fill="url(#a)"/><path d="m176.882812 278.789062h16.1875v53.425782h-16.1875zm0 0" fill="#462300"/><path d="m236.148438 236.265625h17.996093l-69.167969-117.996094-69.171874 117.996094h18l-18 30.707031h18l-18 30.703125h138.339843l-17.996093-30.703125h17.996093zm0 0" fill="url(#b)"/><path d="m313.042969 353.796875v-40.472656h-197.140625v80.945312h219.519531zm0 0" fill="url(#c)"/><path d="m268.28125 272.851562 22.378906 40.472657 22.382813 40.472656h74.675781v-80.945313zm0 0" fill="url(#d)"/></svg>