<svg height="512pt" viewBox="0 0 512 512" width="512pt" xmlns="http://www.w3.org/2000/svg" xmlns:xlink="http://www.w3.org/1999/xlink"><linearGradient id="a" gradientUnits="userSpaceOnUse" x1="74.9807" x2="437.0193" y1="74.9807" y2="437.0193"><stop offset="0" stop-color="#ff6c84"/><stop offset="1" stop-color="#ff1a69"/></linearGradient><linearGradient id="b" gradientUnits="userSpaceOnUse" x1="118" x2="394" y1="118" y2="394"><stop offset="0" stop-color="#a33b1a"/><stop offset="1" stop-color="#462300"/></linearGradient><linearGradient id="c" gradientUnits="userSpaceOnUse" x1="176.623" x2="335.377" y1="229.1816" y2="387.9355"><stop offset="0" stop-color="#fff"/><stop offset="1" stop-color="#97e4fd"/></linearGradient><linearGradient id="d"><stop offset="0" stop-color="#71d1fe"/><stop offset="1" stop-color="#2196dc"/></linearGradient><linearGradient id="e" gradientUnits="userSpaceOnUse" x1="222.7129" x2="289.2871" xlink:href="#d" y1="269.8809" y2="336.4551"/><linearGradient id="f"><stop offset="0" stop-color="#ff6e2e"/><stop offset="1" stop-color="#ff364e"/></linearGradient><linearGradient id="g" gradientUnits="userSpaceOnUse" x1="157.4487" x2="191.7544" xlink:href="#f" y1="157.4487" y2="191.7544"/><linearGradient id="h" gradientUnits="userSpaceOnUse" x1="320.2456" x2="354.5513" xlink:href="#f" y1="157.4487" y2="191.7544"/><linearGradient id="i" gradientUnits="userSpaceOnUse" x1="223.3867" x2="288.6133" xlink:href="#f" y1="141.9883" y2="207.2148"/><linearGradient id="j" gradientUnits="userSpaceOnUse" x1="150.3438" x2="190.7734" xlink:href="#d" y1="215.0313" y2="255.4609"/><linearGradient id="k" gradientUnits="userSpaceOnUse" x1="321.2266" x2="361.6563" xlink:href="#d" y1="215.0313" y2="255.4609"/><linearGradient id="l" gradientUnits="userSpaceOnUse" x1="262.1992" x2="315.0273" y1="208.832" y2="261.6602"><stop offset="0" stop-color="#186c95"/><stop offset="1" stop-color="#093f61"/></linearGradient><linearGradient id="m" gradientUnits="userSpaceOnUse" x1="196.9727" x2="249.8008" y1="208.832" y2="261.6602"><stop offset="0" stop-color="#2196dc"/><stop offset="1" stop-color="#135772"/></linearGradient><path d="m512 256c0 141.386719-114.613281 256-256 256s-256-114.613281-256-256 114.613281-256 256-256 256 114.613281 256 256zm0 0" fill="url(#a)"/><path d="m256 118h-138v276h276v-276zm0 0" fill="url(#b)"/><path d="m254.761719 237.996094 1.238281-9.488282-23.152344 5.90625-36.144531-5.90625 6.78125 13.398438-53.140625 13.554688v106.195312h97.570312l8.085938-5.390625 1.695312-7.238281 6.390626 12.628906h97.570312v-106.195312zm0 0" fill="url(#c)"/><path d="m264.085938 361.65625h-16.171876v-34.066406l15.335938-6.902344-53.90625-24.257812 38.570312-17.355469v-34.394531h16.171876v44.847656l-15.335938 6.902344 53.90625 24.257812-38.570312 17.359375zm0 0" fill="url(#e)"/><path d="m198.859375 174.601562c0 13.398438-10.859375 24.257813-24.257813 24.257813-13.398437 0-24.257812-10.859375-24.257812-24.257813 0-13.398437 10.859375-24.257812 24.257812-24.257812 13.398438 0 24.257813 10.859375 24.257813 24.257812zm0 0" fill="url(#g)"/><path d="m361.65625 174.601562c0 13.398438-10.859375 24.257813-24.257812 24.257813-13.398438 0-24.257813-10.859375-24.257813-24.257813 0-13.398437 10.859375-24.257812 24.257813-24.257812 13.398437 0 24.257812 10.859375 24.257812 24.257812zm0 0" fill="url(#h)"/><path d="m256 150.34375h-40.96875v48.515625h81.9375v-48.515625zm0 0" fill="url(#i)"/><path d="m190.773438 215.03125h-40.429688v40.429688h40.429688l10.78125-20.214844zm0 0" fill="url(#j)"/><path d="m361.65625 255.460938v-40.429688h-40.429688l-16.171874 20.214844 16.171874 20.214844zm0 0" fill="url(#k)"/><path d="m321.226562 255.460938v-40.429688h-65.226562l-16.171875 20.214844 16.171875 20.214844zm0 0" fill="url(#l)"/><path d="m190.773438 215.03125h65.226562v40.429688h-65.226562zm0 0" fill="url(#m)"/></svg>