<svg height="512pt" viewBox="0 0 512 512" width="512pt" xmlns="http://www.w3.org/2000/svg" xmlns:xlink="http://www.w3.org/1999/xlink"><linearGradient id="a" gradientUnits="userSpaceOnUse" x1="74.9807" x2="437.0193" y1="74.9807" y2="437.0193"><stop offset="0" stop-color="#186c95"/><stop offset="1" stop-color="#093f61"/></linearGradient><linearGradient id="b"><stop offset="0" stop-color="#5da938"/><stop offset="1" stop-color="#205c4a"/></linearGradient><linearGradient id="c" gradientUnits="userSpaceOnUse" x1="289.3293" x2="368.835" xlink:href="#b" y1="198.4233" y2="277.9289"/><linearGradient id="d" gradientUnits="userSpaceOnUse" x1="135.0748" x2="230.761" xlink:href="#b" y1="190.333" y2="286.0192"/><linearGradient id="e" gradientUnits="userSpaceOnUse" x1="117.926" x2="394.074" y1="235.3945" y2="235.3945"><stop offset="0" stop-color="#205c4a"/><stop offset="1" stop-color="#0e424f"/></linearGradient><linearGradient id="f" gradientUnits="userSpaceOnUse" x1="226.9998" x2="285.0002" y1="145.5786" y2="203.5791"><stop offset="0" stop-color="#fff"/><stop offset="1" stop-color="#97e4fd"/></linearGradient><linearGradient id="g" gradientUnits="userSpaceOnUse" x1="151.6355" x2="360.3645" y1="218.9804" y2="427.7094"><stop offset="0" stop-color="#75c231"/><stop offset="1" stop-color="#317645"/></linearGradient><linearGradient id="h" gradientUnits="userSpaceOnUse" x1="195.7632" x2="316.2368" y1="261.1402" y2="381.6139"><stop offset="0" stop-color="#ff8b2a"/><stop offset="1" stop-color="#ff5233"/></linearGradient><linearGradient id="i" gradientUnits="userSpaceOnUse" x1="202.8741" x2="309.1259" y1="286.3996" y2="392.6514"><stop offset="0" stop-color="#a33b1a"/><stop offset="1" stop-color="#462300"/></linearGradient><path d="m512 256c0 141.386719-114.613281 256-256 256s-256-114.613281-256-256 114.613281-256 256-256 256 114.613281 256 256zm0 0" fill="url(#a)"/><path d="m337.171875 151.976562-56.902344 55.503907v77.570312l113.804688-32.359375v-45.210937zm0 0" fill="url(#c)"/><path d="m174.828125 151.976562-56.902344 55.503907v45.210937l113.804688 32.359375v-77.570312zm0 0" fill="url(#d)"/><path d="m256 299.65625 138.074219-46.964844-80.074219-78.113281-58-7.863281v-2.921875l-9.09375 1.691406-12.480469-1.691406v4.011719l-36.425781 6.773437-80.074219 78.113281 116.5 45.820313v8.484375l11.570313-3.933594 10.003906 3.933594zm0 0" fill="url(#e)"/><path d="m256 118-58 56.578125 29 28.289063 29-28.289063 29 28.289063 29-28.289063zm0 0" fill="url(#f)"/><path d="m256 252.691406h-138.074219v141.308594h276.148438v-141.308594zm0 0" fill="url(#g)"/><path d="m321.261719 282.894531h-130.523438c-22.304687 0-40.453125 18.144531-40.453125 40.449219 0 5.753906 1.214844 11.222656 3.390625 16.183594h204.648438c2.171875-4.960938 3.390625-10.429688 3.390625-16.183594 0-22.304688-18.148438-40.449219-40.453125-40.449219zm0 0" fill="url(#h)"/><path d="m321.261719 315.253906h-130.523438c-16.554687 0-30.808593 10-37.0625 24.273438 6.253907 14.269531 20.507813 24.269531 37.0625 24.269531h130.523438c16.554687 0 30.808593-10 37.0625-24.269531-6.253907-14.273438-20.507813-24.273438-37.0625-24.273438zm0 0" fill="url(#i)"/></svg>