<svg height="512pt" viewBox="0 0 512 512" width="512pt" xmlns="http://www.w3.org/2000/svg" xmlns:xlink="http://www.w3.org/1999/xlink"><linearGradient id="a" gradientUnits="userSpaceOnUse" x1="74.9807" x2="437.0193" y1="74.9807" y2="437.0193"><stop offset="0" stop-color="#ffd567"/><stop offset="1" stop-color="#ffa725"/></linearGradient><linearGradient id="b"><stop offset="0" stop-color="#bcf7fc"/><stop offset="1" stop-color="#71d1fe"/></linearGradient><linearGradient id="c" gradientUnits="userSpaceOnUse" x1="241.8496" x2="299.7988" xlink:href="#b" y1="186.0566" y2="244.0059"/><linearGradient id="d" gradientUnits="userSpaceOnUse" x1="210.8535" x2="260.7168" xlink:href="#b" y1="192.7949" y2="242.6582"/><linearGradient id="e" gradientUnits="userSpaceOnUse" x1="181.9847" x2="330.0153" y1="68.2425" y2="216.2731"><stop offset="0" stop-color="#fff"/><stop offset="1" stop-color="#97e4fd"/></linearGradient><linearGradient id="f" gradientUnits="userSpaceOnUse" x1="187" x2="325" y1="248.4531" y2="386.4531"><stop offset="0" stop-color="#a33b1a"/><stop offset="1" stop-color="#462300"/></linearGradient><linearGradient id="g" gradientUnits="userSpaceOnUse" x1="224.0423" x2="287.9577" y1="215.9234" y2="279.8388"><stop offset="0" stop-color="#ff8b2a"/><stop offset="1" stop-color="#ff5233"/></linearGradient><linearGradient id="h" gradientUnits="userSpaceOnUse" x1="167.8633" x2="344.1367" y1="267.5898" y2="443.8633"><stop offset="0" stop-color="#5da938"/><stop offset="1" stop-color="#205c4a"/></linearGradient><path d="m512 256c0 141.386719-114.613281 256-256 256s-256-114.613281-256-256 114.613281-256 256-256 256 114.613281 256 256zm0 0" fill="url(#a)"/><path d="m245.21875 182.6875h51.210938v64.6875h-51.210938zm0 0" fill="url(#c)"/><path d="m215.570312 188.078125h40.429688v59.296875h-40.429688zm0 0" fill="url(#d)"/><path d="m369.742188 118h-227.484376c-13.375 0-24.257812 10.882812-24.257812 24.257812s10.882812 24.257813 24.257812 24.257813h25.070313c3.757813 18.429687 20.09375 32.34375 39.617187 32.34375h98.109376c19.523437 0 35.859374-13.914063 39.617187-32.34375h25.070313c13.375 0 24.257812-10.882813 24.257812-24.257813s-10.882812-24.257812-24.257812-24.257812zm0 0" fill="url(#e)"/><path d="m247.914062 198.859375h16.171876v48.652344h-16.171876zm0 0" fill="#fff"/><path d="m319.746094 247.714844h-90.699219l5.085937 19.253906-41.878906-19.253906-74.253906 69.738281 138 32.34375 138-32.34375zm0 0" fill="url(#f)"/><path d="m296.429688 225.8125h-80.859376l-23.316406 21.902344c15.433594 17.933594 38.285156 29.308594 63.746094 29.308594s48.3125-11.375 63.746094-29.308594zm0 0" fill="url(#g)"/><path d="m256 317.453125h-138v76.546875h276v-76.546875zm0 0" fill="url(#h)"/><path d="m361.65625 198.859375h16.171875v16.171875h-16.171875zm0 0" fill="#ff5233"/><path d="m134.171875 198.859375h16.171875v16.171875h-16.171875zm0 0" fill="#ff6e2e"/><path d="m329.3125 215.03125h16.171875v16.171875h-16.171875zm0 0" fill="#ff6e2e"/><path d="m166.515625 215.03125h16.171875v16.171875h-16.171875zm0 0" fill="#ff8b2a"/></svg>