<svg height="512pt" viewBox="0 0 512 512" width="512pt" xmlns="http://www.w3.org/2000/svg" xmlns:xlink="http://www.w3.org/1999/xlink"><linearGradient id="a" gradientUnits="userSpaceOnUse" x1="74.9807" x2="437.0193" y1="74.9807" y2="437.0193"><stop offset="0" stop-color="#bcf7fc"/><stop offset="1" stop-color="#71d1fe"/></linearGradient><linearGradient id="b"><stop offset="0" stop-color="#ff8b2a"/><stop offset="1" stop-color="#ff5233"/></linearGradient><linearGradient id="c" gradientUnits="userSpaceOnUse" x1="231.9012" x2="304.3566" xlink:href="#b" y1="149.2037" y2="221.659"/><linearGradient id="d" gradientUnits="userSpaceOnUse" x1="207.6434" x2="272.0128" xlink:href="#b" y1="149.2037" y2="213.5731"/><linearGradient id="e"><stop offset="0" stop-color="#ff6e2e"/><stop offset="1" stop-color="#ff364e"/></linearGradient><linearGradient id="f" gradientUnits="userSpaceOnUse" x1="181.7967" x2="249.3439" xlink:href="#e" y1="149.8276" y2="217.3748"/><linearGradient id="g" gradientUnits="userSpaceOnUse" x1="270.742" x2="322.1173" xlink:href="#e" y1="157.9136" y2="209.2889"/><linearGradient id="h"><stop offset="0" stop-color="#a33b1a"/><stop offset="1" stop-color="#462300"/></linearGradient><linearGradient id="i" gradientUnits="userSpaceOnUse" x1="187" x2="325" xlink:href="#h" y1="236.0547" y2="374.0547"/><linearGradient id="j" gradientUnits="userSpaceOnUse" x1="164.7637" x2="347.2363" xlink:href="#h" y1="258.291" y2="440.7637"/><linearGradient id="k" gradientUnits="userSpaceOnUse" x1="202.3315" x2="309.6685" xlink:href="#e" y1="269.7779" y2="377.115"/><linearGradient id="l" gradientUnits="userSpaceOnUse" x1="221.8473" x2="290.1527" xlink:href="#b" y1="282.6058" y2="350.9112"/><linearGradient id="m" gradientUnits="userSpaceOnUse" x1="214.0557" x2="297.9443" xlink:href="#b" y1="213.5116" y2="297.4001"/><path d="m512 256c0 141.386719-114.613281 256-256 256s-256-114.613281-256-256 114.613281-256 256-256 256 114.613281 256 256zm0 0" fill="url(#a)"/><path d="m268.128906 118c6.699219 0 12.128906 5.429688 12.128906 12.128906v28.300782l16.171876 71.15625h-56.601563l16.171875-99.457032c0-6.699218 5.429688-12.128906 12.128906-12.128906zm0 0" fill="url(#c)"/><path d="m243.871094 118c-6.699219 0-12.128906 5.429688-12.128906 12.128906v28.300782l-16.171876 71.15625h40.429688v-99.457032c0-6.699218-5.429688-12.128906-12.128906-12.128906zm0 0" fill="url(#d)"/><path d="m231.742188 234.976562h-16.171876v-76.546874c0-4.457032-3.628906-8.085938-8.085937-8.085938-4.460937 0-8.085937 3.628906-8.085937 8.085938v16.171874h-16.171876v-16.171874c0-13.375 10.882813-24.257813 24.257813-24.257813s24.257813 10.882813 24.257813 24.257813zm0 0" fill="url(#f)"/><path d="m296.429688 234.976562h-16.171876v-76.546874c0-13.375 10.882813-24.257813 24.257813-24.257813s24.257813 10.882813 24.257813 24.257813v16.171874h-16.171876v-16.171874c0-4.457032-3.625-8.085938-8.085937-8.085938-4.457031 0-8.085937 3.628906-8.085937 8.085938zm0 0" fill="url(#g)"/><path d="m319.746094 235.316406h-90.699219l5.085937 19.253906-41.878906-19.253906-74.253906 69.738282 138 32.34375 138-32.34375zm0 0" fill="url(#i)"/><path d="m344.945312 305.054688-122.953124 54.9375-54.9375-54.9375h-49.054688v88.945312h276v-88.945312zm0 0" fill="url(#j)"/><path d="m312.601562 305.054688-58.550781 26.023437-54.652343-26.023437h-32.34375c0 49.042968 39.898437 88.945312 88.945312 88.945312s88.945312-39.902344 88.945312-88.945312zm0 0" fill="url(#k)"/><path d="m256 305.054688h-56.601562c0 31.210937 25.390624 56.601562 56.601562 56.601562s56.601562-25.390625 56.601562-56.601562zm0 0" fill="url(#l)"/><path d="m328.773438 190.773438h16.171874v16.171874h-16.171874zm0 0" fill="#ff364e"/><path d="m167.054688 190.773438h16.171874v16.171874h-16.171874zm0 0" fill="#ff5233"/><path d="m296.429688 213.414062h-80.859376l-23.316406 21.902344c10.320313 11.992188 23.964844 21.046875 39.488282 25.734375v44.003907c0 13.375 10.882812 24.257812 24.257812 24.257812s24.257812-10.882812 24.257812-24.257812v-44.003907c15.523438-4.6875 29.167969-13.742187 39.488282-25.734375zm0 0" fill="url(#m)"/></svg>