<svg height="512pt" viewBox="0 0 512 512" width="512pt" xmlns="http://www.w3.org/2000/svg" xmlns:xlink="http://www.w3.org/1999/xlink"><linearGradient id="a" gradientUnits="userSpaceOnUse" x1="74.9807" x2="437.0193" y1="74.9807" y2="437.0193"><stop offset="0" stop-color="#ff6c84"/><stop offset="1" stop-color="#ff1a69"/></linearGradient><linearGradient id="b" gradientUnits="userSpaceOnUse" x1="134.4632" x2="377.5368" y1="110.7881" y2="353.8617"><stop offset="0" stop-color="#71d1fe"/><stop offset="1" stop-color="#2196dc"/></linearGradient><linearGradient id="c" gradientUnits="userSpaceOnUse" x1="176.6365" x2="251.0272" y1="233.5346" y2="307.9252"><stop offset="0" stop-color="#2196dc"/><stop offset="1" stop-color="#135772"/></linearGradient><linearGradient id="d" gradientUnits="userSpaceOnUse" x1="245.6365" x2="335.3635" y1="233.5346" y2="323.2615"><stop offset="0" stop-color="#186c95"/><stop offset="1" stop-color="#093f61"/></linearGradient><linearGradient id="e" gradientUnits="userSpaceOnUse" x1="172.8496" x2="339.1504" y1="282.5488" y2="448.8496"><stop offset="0" stop-color="#205c4a"/><stop offset="1" stop-color="#0e424f"/></linearGradient><path d="m512 256c0 141.386719-114.613281 256-256 256s-256-114.613281-256-256 114.613281-256 256-256 256 114.613281 256 256zm0 0" fill="url(#a)"/><path d="m366.398438 118c-7.675782 5.804688-17.234376 9.25-27.597657 9.25-10.367187 0-19.925781-3.445312-27.601562-9.25-7.675781 5.804688-17.234375 9.25-27.597657 9.25-10.367187 0-19.925781-3.445312-27.601562-9.25-7.675781 5.804688-17.234375 9.25-27.601562 9.25-10.363282 0-19.921876-3.445312-27.597657-9.25-7.675781 5.804688-17.234375 9.25-27.601562 9.25-10.363281 0-19.921875-3.445312-27.597657-9.25-7.675781 5.804688-17.238281 9.25-27.601562 9.25v210.148438h276v-210.148438c-10.363281 0-19.925781-3.445312-27.601562-9.25zm0 0" fill="url(#b)"/><path d="m213.414062 294.273438h16.171876v53.90625h-16.171876zm0 0" fill="#bcf7fc"/><path d="m282.414062 294.273438h16.171876v53.90625h-16.171876zm0 0" fill="#71d1fe"/><path d="m276.484375 282.46875-54.984375-93.796875-54.984375 93.796875h17.980469l-17.980469 30.671875h69zm0 0" fill="url(#c)"/><path d="m345.484375 282.46875-54.984375-93.796875-54.984375 93.796875h17.980469l-17.980469 30.671875h109.96875l-17.980469-30.671875zm0 0" fill="url(#d)"/><path d="m256 337.398438h-138v56.601562h276v-56.601562zm0 0" fill="url(#e)"/></svg>