<svg height="512pt" viewBox="0 0 512 512" width="512pt" xmlns="http://www.w3.org/2000/svg" xmlns:xlink="http://www.w3.org/1999/xlink"><linearGradient id="a" gradientUnits="userSpaceOnUse" x1="74.9807" x2="437.0193" y1="74.9807" y2="437.0193"><stop offset="0" stop-color="#ffd567"/><stop offset="1" stop-color="#ffa725"/></linearGradient><linearGradient id="b" gradientUnits="userSpaceOnUse" x1="167.3198" x2="344.6802" y1="209.3579" y2="386.7183"><stop offset="0" stop-color="#71d1fe"/><stop offset="1" stop-color="#2196dc"/></linearGradient><linearGradient id="c" gradientUnits="userSpaceOnUse" x1="200.7384" x2="313.9569" y1="242.4464" y2="355.6649"><stop offset="0" stop-color="#186c95"/><stop offset="1" stop-color="#093f61"/></linearGradient><linearGradient id="d" gradientUnits="userSpaceOnUse" x1="192.3175" x2="319.6825" y1="121.631" y2="248.9959"><stop offset="0" stop-color="#2196dc"/><stop offset="1" stop-color="#135772"/></linearGradient><linearGradient id="e" gradientUnits="userSpaceOnUse" x1="226.4504" x2="285.5496" y1="290.3293" y2="349.4285"><stop offset="0" stop-color="#5da938"/><stop offset="1" stop-color="#205c4a"/></linearGradient><linearGradient id="f" gradientUnits="userSpaceOnUse" x1="172.8496" x2="339.1504" y1="282.5488" y2="448.8496"><stop offset="0" stop-color="#205c4a"/><stop offset="1" stop-color="#0e424f"/></linearGradient><path d="m512 256c0 141.386719-114.613281 256-256 256s-256-114.613281-256-256 114.613281-256 256-256 256 114.613281 256 256zm0 0" fill="url(#a)"/><path d="m366.398438 249.425781c-7.675782 5.804688-17.234376 9.25-27.597657 9.25-10.367187 0-19.925781-3.445312-27.601562-9.25-7.675781 5.804688-17.234375 9.25-27.597657 9.25-10.367187 0-19.925781-3.445312-27.601562-9.25-7.675781 5.804688-17.234375 9.25-27.601562 9.25-10.363282 0-19.921876-3.445312-27.597657-9.25-7.675781 5.804688-17.234375 9.25-27.601562 9.25-10.363281 0-19.921875-3.445312-27.597657-9.25-7.675781 5.804688-17.234374 9.25-27.601562 9.25v78.722657h276v-78.722657c-10.367188.003907-19.925781-3.445312-27.601562-9.25zm0 0" fill="url(#b)"/><path d="m310.660156 236.453125-70.832031-13.882813v20.089844l-27.707031-11.597656-16.171875 21.566406v100.941406h120.101562v-100.941406zm0 0" fill="url(#c)"/><path d="m256 118h-60.050781v134.628906c1.683593-.96875 3.308593-2.035156 4.851562-3.203125 7.675781 5.804688 17.234375 9.253907 27.597657 9.253907 10.367187 0 19.925781-3.449219 27.601562-9.253907 7.675781 5.804688 17.234375 9.253907 27.601562 9.253907 10.363282 0 19.921876-3.449219 27.597657-9.253907 1.542969 1.167969 3.164062 2.234375 4.851562 3.203125v-134.628906zm0 0" fill="url(#d)"/><path d="m277.941406 142.257812h16.171875v32.34375h-16.171875zm0 0" fill="#97e4fd"/><path d="m277.941406 190.773438h16.171875v32.34375h-16.171875zm0 0" fill="#97e4fd"/><path d="m217.886719 142.257812h16.171875v32.34375h-16.171875zm0 0" fill="#fff"/><path d="m217.886719 190.773438h16.171875v32.34375h-16.171875zm0 0" fill="#fff"/><path d="m256 286.1875h-25.40625v67.382812h50.8125v-67.382812zm0 0" fill="url(#e)"/><path d="m256 337.398438h-138v56.601562h276v-56.601562zm0 0" fill="url(#f)"/></svg>