<svg height="512pt" viewBox="0 0 512 512" width="512pt" xmlns="http://www.w3.org/2000/svg" xmlns:xlink="http://www.w3.org/1999/xlink"><linearGradient id="a" gradientUnits="userSpaceOnUse" x1="74.9807" x2="437.0193" y1="74.9807" y2="437.0193"><stop offset="0" stop-color="#ffd567"/><stop offset="1" stop-color="#ffa725"/></linearGradient><linearGradient id="b"><stop offset="0" stop-color="#75c231"/><stop offset="1" stop-color="#317645"/></linearGradient><linearGradient id="c" gradientUnits="userSpaceOnUse" x1="289.2971" x2="368.8027" xlink:href="#b" y1="198.4233" y2="277.9289"/><linearGradient id="d" gradientUnits="userSpaceOnUse" x1="135.0426" x2="230.7287" xlink:href="#b" y1="190.333" y2="286.0192"/><linearGradient id="e" gradientUnits="userSpaceOnUse" x1="186.9308" x2="325.0048" y1="183.6529" y2="321.7269"><stop offset="0" stop-color="#205c4a"/><stop offset="1" stop-color="#0e424f"/></linearGradient><linearGradient id="f" gradientUnits="userSpaceOnUse" x1="226.9676" x2="284.968" y1="145.5786" y2="203.5791"><stop offset="0" stop-color="#fff"/><stop offset="1" stop-color="#97e4fd"/></linearGradient><linearGradient id="g" gradientUnits="userSpaceOnUse" x1="174.3082" x2="337.4766" y1="196.2001" y2="359.3685"><stop offset="0" stop-color="#bcf7fc"/><stop offset="1" stop-color="#71d1fe"/></linearGradient><linearGradient id="h" gradientUnits="userSpaceOnUse" x1="174.3082" x2="337.4766" y1="246.3889" y2="409.5573"><stop offset="0" stop-color="#71d1fe"/><stop offset="1" stop-color="#2196dc"/></linearGradient><linearGradient id="i" gradientUnits="userSpaceOnUse" x1="176.6222" x2="335.1625" y1="294.2636" y2="452.8039"><stop offset="0" stop-color="#186c95"/><stop offset="1" stop-color="#093f61"/></linearGradient><path d="m512 256c0 141.386719-114.613281 256-256 256s-256-114.613281-256-256 114.613281-256 256-256 256 114.613281 256 256zm0 0" fill="url(#a)"/><path d="m337.140625 151.976562-56.902344 55.503907v77.570312l113.804688-32.359375v-45.210937zm0 0" fill="url(#c)"/><path d="m174.796875 151.976562-56.902344 55.503907v45.210937l113.800781 32.359375v-77.570312zm0 0" fill="url(#d)"/><path d="m255.96875 290.328125 138.074219-37.636719-80.074219-78.113281-58-7.863281v-2.921875l-9.097656 1.691406-12.476563-1.691406v4.011719l-36.425781 6.773437-80.074219 78.113281 116.5 36.71875v6.800782l11.566407-3.152344 10.007812 3.152344zm0 0" fill="url(#e)"/><path d="m255.96875 118-58 56.578125 29 28.289063 29-28.289063 29 28.289063 29-28.289063zm0 0" fill="url(#f)"/><path d="m393.964844 252.691406h-276.148438v50.1875l107.941406 18.0625-2.226562 5.042969 17.878906-2.425781 14.480469 2.425781v-4.386719l138.074219-18.71875zm0 0" fill="url(#g)"/><path d="m393.964844 302.878906c-10.371094 0-19.933594-3.449218-27.613282-9.257812-7.679687 5.808594-17.246093 9.257812-27.617187 9.257812s-19.933594-3.449218-27.613281-9.257812c-7.679688 5.808594-17.242188 9.257812-27.613282 9.257812-10.371093 0-19.9375-3.449218-27.617187-9.257812-7.679687 5.808594-17.242187 9.257812-27.613281 9.257812s-19.933594-3.449218-27.617188-9.257812c-7.679687 5.808594-17.242187 9.257812-27.613281 9.257812s-19.933594-3.449218-27.617187-9.257812c-7.679688 5.808594-17.242188 9.257812-27.613282 9.257812v50.1875l107.703125 18.023438-1.992187 5.082031 17.878906-2.421875 14.484375 2.421875v-4.386719l138.074219-18.71875zm0 0" fill="url(#h)"/><path d="m366.351562 343.8125c-7.679687 5.804688-17.242187 9.253906-27.613281 9.253906-10.371093 0-19.933593-3.449218-27.617187-9.253906-7.679688 5.804688-17.242188 9.253906-27.613282 9.253906-10.371093 0-19.933593-3.449218-27.617187-9.253906-7.679687 5.804688-17.242187 9.253906-27.613281 9.253906s-19.933594-3.449218-27.617188-9.253906c-7.679687 5.804688-17.242187 9.253906-27.613281 9.253906s-19.933594-3.449218-27.613281-9.253906c-7.679688 5.804688-17.246094 9.253906-27.617188 9.253906v40.933594h276.148438v-40.933594c-10.371094 0-19.933594-3.449218-27.613282-9.253906zm0 0" fill="url(#i)"/></svg>