<svg height="512pt" viewBox="0 0 512 512" width="512pt" xmlns="http://www.w3.org/2000/svg" xmlns:xlink="http://www.w3.org/1999/xlink"><linearGradient id="a"><stop offset="0" stop-color="#ff8b2a"/><stop offset="1" stop-color="#ff5233"/></linearGradient><linearGradient id="b" gradientUnits="userSpaceOnUse" x1="74.9807" x2="437.0193" xlink:href="#a" y1="74.9807" y2="437.0193"/><linearGradient id="c"><stop offset="0" stop-color="#a33b1a"/><stop offset="1" stop-color="#462300"/></linearGradient><linearGradient id="d" gradientUnits="userSpaceOnUse" x1="141.6968" x2="370.3033" xlink:href="#c" y1="190.3117" y2="418.9182"/><linearGradient id="e" gradientUnits="userSpaceOnUse" x1="169.0014" x2="342.9986" xlink:href="#a" y1="217.6004" y2="391.5976"/><linearGradient id="f" gradientUnits="userSpaceOnUse" x1="197.3803" x2="314.6194" y1="216.5404" y2="333.7795"><stop offset="0" stop-color="#ffd567"/><stop offset="1" stop-color="#ffa725"/></linearGradient><linearGradient id="g" gradientUnits="userSpaceOnUse" x1="224.485" x2="287.515" xlink:href="#c" y1="251.045" y2="314.0749"/><linearGradient id="h" gradientUnits="userSpaceOnUse" x1="197.3795" x2="314.6203" y1="275.4224" y2="392.6631"><stop offset="0" stop-color="#ff6e2e"/><stop offset="1" stop-color="#ff364e"/></linearGradient><path d="m512 256c0 141.386719-114.613281 256-256 256s-256-114.613281-256-256 114.613281-256 256-256 256 114.613281 256 256zm0 0" fill="url(#b)"/><path d="m411.882812 306.644531-97.253906-168.746093c-12.054687-20.910157-34.519531-33.898438-58.628906-33.898438s-46.574219 12.988281-58.628906 33.898438l-97.253906 168.746093c-5.886719 10.214844-9 21.878907-9 33.726563 0 37.292968 30.339843 67.628906 67.628906 67.628906h194.507812c37.289063 0 67.628906-30.339844 67.628906-67.628906 0-11.847656-3.113281-23.507813-9-33.726563zm0 0" fill="url(#d)"/><path d="m378.398438 325.941406-97.253907-168.746094c-5.25-9.109374-14.652343-14.550781-25.144531-14.550781s-19.894531 5.441407-25.144531 14.550781l-97.253907 168.75c-2.546874 4.417969-3.839843 9.273438-3.839843 14.429688 0 15.980469 13.003906 28.980469 28.984375 28.980469h194.507812c15.980469 0 28.984375-13 28.984375-28.980469 0-5.160156-1.292969-10.015625-3.839843-14.433594zm0 0" fill="url(#e)"/><path d="m256 320.4375 87.796875-15.835938-79.390625-137.757812c-1.8125-3.144531-4.800781-4.878906-8.40625-4.878906s-6.589844 1.734375-8.40625 4.878906l-79.394531 137.757812 68.972656 15.179688-.492187 4.140625 10.617187-1.914063 8.703125 1.914063zm0 0" fill="url(#f)"/><path d="m296.703125 260.234375-40.703125-39.691406-40.703125 39.691406v44.652344l28.539063 13.546875-.71875 5.773437 7.320312-2.640625 5.5625 2.640625v-4.644531l40.703125-14.675781zm0 0" fill="url(#g)"/><path d="m361.660156 335.589844-17.863281-30.988282c-9.59375-.992187-18.410156-4.605468-25.707031-10.125-8.636719 6.53125-19.386719 10.40625-31.046875 10.40625-11.65625 0-22.410157-3.875-31.042969-10.40625-8.632812 6.53125-19.386719 10.40625-31.042969 10.40625-11.660156 0-22.410156-3.875-31.046875-10.40625-7.296875 5.519532-16.113281 9.132813-25.710937 10.125l-17.859375 30.988282c-.855469 1.488281-1.253906 3.007812-1.253906 4.78125 0 5.328125 4.332031 9.664062 9.660156 9.664062h194.507812c5.328125 0 9.660156-4.335937 9.660156-9.664062 0-1.773438-.398437-3.292969-1.253906-4.78125zm0 0" fill="url(#h)"/></svg>