<svg height="512pt" viewBox="0 0 512 512" width="512pt" xmlns="http://www.w3.org/2000/svg" xmlns:xlink="http://www.w3.org/1999/xlink"><linearGradient id="a" gradientUnits="userSpaceOnUse" x1="74.9807" x2="437.0193" y1="74.9807" y2="437.0193"><stop offset="0" stop-color="#75c231"/><stop offset="1" stop-color="#317645"/></linearGradient><linearGradient id="b"><stop offset="0" stop-color="#71d1fe"/><stop offset="1" stop-color="#2196dc"/></linearGradient><linearGradient id="c" gradientUnits="userSpaceOnUse" x1="209.9063" x2="228.1875" xlink:href="#b" y1="393.7188" y2="412"/><linearGradient id="d" gradientUnits="userSpaceOnUse" x1="209.9063" x2="228.1875" xlink:href="#b" y1="357.1563" y2="375.4375"/><linearGradient id="e" gradientUnits="userSpaceOnUse" x1="209.9063" x2="228.1875" xlink:href="#b" y1="320.5938" y2="338.875"/><linearGradient id="f" gradientUnits="userSpaceOnUse" x1="283.0313" x2="301.3125" xlink:href="#b" y1="393.7188" y2="412"/><linearGradient id="g" gradientUnits="userSpaceOnUse" x1="283.0313" x2="301.3125" xlink:href="#b" y1="357.1563" y2="375.4375"/><linearGradient id="h" gradientUnits="userSpaceOnUse" x1="283.0313" x2="301.3125" xlink:href="#b" y1="320.5938" y2="338.875"/><linearGradient id="i" gradientUnits="userSpaceOnUse" x1="168.7734" x2="196.1953" xlink:href="#b" y1="325.1641" y2="352.5859"/><linearGradient id="j" gradientUnits="userSpaceOnUse" x1="168.7734" x2="196.1953" xlink:href="#b" y1="380.0078" y2="407.4297"/><linearGradient id="k" gradientUnits="userSpaceOnUse" x1="132.2109" x2="159.6328" xlink:href="#b" y1="288.6016" y2="316.0234"/><linearGradient id="l" gradientUnits="userSpaceOnUse" x1="132.2109" x2="159.6328" xlink:href="#b" y1="380.0078" y2="407.4297"/><linearGradient id="m" gradientUnits="userSpaceOnUse" x1="241.8984" x2="269.3203" xlink:href="#b" y1="325.1641" y2="352.5859"/><linearGradient id="n" gradientUnits="userSpaceOnUse" x1="241.8984" x2="269.3203" xlink:href="#b" y1="380.0078" y2="407.4297"/><linearGradient id="o" gradientUnits="userSpaceOnUse" x1="315.0234" x2="342.4453" xlink:href="#b" y1="325.1641" y2="352.5859"/><linearGradient id="p" gradientUnits="userSpaceOnUse" x1="315.0234" x2="342.4453" xlink:href="#b" y1="380.0078" y2="407.4297"/><linearGradient id="q" gradientUnits="userSpaceOnUse" x1="351.5859" x2="379.0078" xlink:href="#b" y1="288.6016" y2="316.0234"/><linearGradient id="r" gradientUnits="userSpaceOnUse" x1="209.9063" x2="228.1875" xlink:href="#b" y1="284.0313" y2="302.3125"/><linearGradient id="s" gradientUnits="userSpaceOnUse" x1="283.0313" x2="301.3125" xlink:href="#b" y1="284.0313" y2="302.3125"/><linearGradient id="t" gradientUnits="userSpaceOnUse" x1="173.3438" x2="191.625" xlink:href="#b" y1="284.0313" y2="302.3125"/><linearGradient id="u" gradientUnits="userSpaceOnUse" x1="136.7813" x2="155.0625" xlink:href="#b" y1="338.875" y2="357.1563"/><linearGradient id="v" gradientUnits="userSpaceOnUse" x1="246.4688" x2="264.75" xlink:href="#b" y1="284.0313" y2="302.3125"/><linearGradient id="w" gradientUnits="userSpaceOnUse" x1="319.5938" x2="337.875" xlink:href="#b" y1="284.0313" y2="302.3125"/><linearGradient id="x" gradientUnits="userSpaceOnUse" x1="356.1563" x2="374.4375" xlink:href="#b" y1="338.875" y2="357.1563"/><linearGradient id="y" gradientUnits="userSpaceOnUse" x1="351.5859" x2="379.0078" xlink:href="#b" y1="380.0078" y2="407.4297"/><linearGradient id="z" gradientUnits="userSpaceOnUse" x1="167.6395" x2="342.9704" y1="131.6462" y2="306.9771"><stop offset="0" stop-color="#186c95"/><stop offset="1" stop-color="#093f61"/></linearGradient><path d="m512 256c0 141.386719-114.613281 256-256 256s-256-114.613281-256-256 114.613281-256 256-256 256 114.613281 256 256zm0 0" fill="url(#a)"/><path d="m209.90625 393.71875h18.28125v18.28125h-18.28125zm0 0" fill="url(#c)"/><path d="m209.90625 357.15625h18.28125v18.28125h-18.28125zm0 0" fill="url(#d)"/><path d="m209.90625 320.59375h18.28125v18.28125h-18.28125zm0 0" fill="url(#e)"/><path d="m283.03125 393.71875h18.28125v18.28125h-18.28125zm0 0" fill="url(#f)"/><path d="m283.03125 357.15625h18.28125v18.28125h-18.28125zm0 0" fill="url(#g)"/><path d="m283.03125 320.59375h18.28125v18.28125h-18.28125zm0 0" fill="url(#h)"/><path d="m173.34375 320.59375h18.28125v36.5625h-18.28125zm0 0" fill="url(#i)"/><path d="m173.34375 375.4375h18.28125v36.5625h-18.28125zm0 0" fill="url(#j)"/><path d="m136.78125 284.03125h18.28125v36.5625h-18.28125zm0 0" fill="url(#k)"/><path d="m136.78125 375.4375h18.28125v36.5625h-18.28125zm0 0" fill="url(#l)"/><path d="m246.46875 320.59375h18.28125v36.5625h-18.28125zm0 0" fill="url(#m)"/><path d="m246.46875 375.4375h18.28125v36.5625h-18.28125zm0 0" fill="url(#n)"/><path d="m319.59375 320.59375h18.28125v36.5625h-18.28125zm0 0" fill="url(#o)"/><path d="m319.59375 375.4375h18.28125v36.5625h-18.28125zm0 0" fill="url(#p)"/><path d="m356.15625 284.03125h18.28125v36.5625h-18.28125zm0 0" fill="url(#q)"/><path d="m209.90625 284.03125h18.28125v18.28125h-18.28125zm0 0" fill="url(#r)"/><path d="m283.03125 284.03125h18.28125v18.28125h-18.28125zm0 0" fill="url(#s)"/><path d="m173.34375 284.03125h18.28125v18.28125h-18.28125zm0 0" fill="url(#t)"/><path d="m136.78125 338.875h18.28125v18.28125h-18.28125zm0 0" fill="url(#u)"/><path d="m246.46875 284.03125h18.28125v18.28125h-18.28125zm0 0" fill="url(#v)"/><path d="m319.59375 284.03125h18.28125v18.28125h-18.28125zm0 0" fill="url(#w)"/><path d="m356.15625 338.875h18.28125v18.28125h-18.28125zm0 0" fill="url(#x)"/><path d="m356.15625 375.4375h18.28125v36.5625h-18.28125zm0 0" fill="url(#y)"/><path d="m398.101562 188.230469c-6.339843-6.53125-14.328124-10.945313-23.046874-12.835938-3.585938-21.992187-22.71875-38.832031-45.710938-38.832031-1.617188 0-3.230469.082031-4.835938.25-15.308593-22.859375-41.140624-36.8125-68.898437-36.8125s-53.59375 13.953125-68.898437 36.8125c-1.605469-.164062-3.21875-.25-4.835938-.25-22.898438 0-41.972656 16.707031-45.664062 38.574219-21.160157 3.992187-37.210938 22.609375-37.210938 44.910156 0 25.199219 20.503906 45.703125 45.703125 45.703125h220.59375c25.199219 0 45.703125-20.503906 45.703125-45.703125 0-11.945313-4.578125-23.242187-12.898438-31.816406zm0 0" fill="url(#z)"/></svg>