<svg height="512pt" viewBox="0 0 512 512" width="512pt" xmlns="http://www.w3.org/2000/svg" xmlns:xlink="http://www.w3.org/1999/xlink"><linearGradient id="a" gradientUnits="userSpaceOnUse" x1="74.9807" x2="437.0193" y1="74.9807" y2="437.0193"><stop offset="0" stop-color="#ff8b2a"/><stop offset="1" stop-color="#ff5233"/></linearGradient><linearGradient id="b"><stop offset="0" stop-color="#ffd567"/><stop offset="1" stop-color="#ffa725"/></linearGradient><linearGradient id="c" gradientUnits="userSpaceOnUse" x1="145.1608" x2="219.8092" xlink:href="#b" y1="296.9805" y2="371.6289"/><linearGradient id="d" gradientUnits="userSpaceOnUse" x1="206.0974" x2="280.7461" xlink:href="#b" y1="296.9802" y2="371.6289"/><linearGradient id="e" gradientUnits="userSpaceOnUse" x1="267.0352" x2="341.6836" xlink:href="#b" y1="296.9805" y2="371.6289"/><linearGradient id="f" gradientUnits="userSpaceOnUse" x1="167.6395" x2="342.9704" y1="131.6462" y2="306.9771"><stop offset="0" stop-color="#186c95"/><stop offset="1" stop-color="#093f61"/></linearGradient><path d="m512 256c0 141.386719-114.613281 256-256 256s-256-114.613281-256-256 114.613281-256 256-256 256 114.613281 256 256zm0 0" fill="url(#a)"/><path d="m179.4375 412h-18.28125v-105.117188l24.375 18.28125v-68.554687h18.28125v105.117187l-24.375-18.28125zm0 0" fill="url(#c)"/><path d="m240.375 412h-18.28125v-105.117188l24.375 18.28125v-68.554687h18.28125v105.117187l-24.375-18.28125zm0 0" fill="url(#d)"/><path d="m307.40625 256.609375v68.554687l-24.375-18.28125v105.117188h18.28125v-68.554688l24.375 18.28125v-105.117187zm0 0" fill="url(#e)"/><path d="m398.101562 188.230469c-6.339843-6.53125-14.328124-10.945313-23.046874-12.835938-3.585938-21.992187-22.71875-38.832031-45.710938-38.832031-1.617188 0-3.230469.082031-4.835938.25-15.308593-22.859375-41.140624-36.8125-68.898437-36.8125s-53.59375 13.953125-68.898437 36.8125c-1.605469-.164062-3.21875-.25-4.835938-.25-22.898438 0-41.972656 16.707031-45.664062 38.574219-21.160157 3.992187-37.210938 22.609375-37.210938 44.910156 0 25.199219 20.503906 45.703125 45.703125 45.703125h220.59375c25.199219 0 45.703125-20.503906 45.703125-45.703125 0-11.945313-4.582031-23.242187-12.898438-31.816406zm0 0" fill="url(#f)"/></svg>