<svg height="512pt" viewBox="0 0 512 512" width="512pt" xmlns="http://www.w3.org/2000/svg" xmlns:xlink="http://www.w3.org/1999/xlink"><linearGradient id="a" gradientUnits="userSpaceOnUse" x1="74.9807" x2="437.0193" y1="74.9807" y2="437.0193"><stop offset="0" stop-color="#ff6c84"/><stop offset="1" stop-color="#ff1a69"/></linearGradient><linearGradient id="b" gradientUnits="userSpaceOnUse" x1="214.1904" x2="300.4404" y1="189.4258" y2="275.6758"><stop offset="0" stop-color="#bcf7fc"/><stop offset="1" stop-color="#71d1fe"/></linearGradient><linearGradient id="c" gradientUnits="userSpaceOnUse" x1="181.9525" x2="329.9831" y1="68.2425" y2="216.2731"><stop offset="0" stop-color="#fff"/><stop offset="1" stop-color="#97e4fd"/></linearGradient><linearGradient id="d" gradientUnits="userSpaceOnUse" x1="174.3519" x2="337.4329" y1="196.3061" y2="359.3871"><stop offset="0" stop-color="#71d1fe"/><stop offset="1" stop-color="#2196dc"/></linearGradient><linearGradient id="e" gradientUnits="userSpaceOnUse" x1="174.3519" x2="337.4329" y1="246.468" y2="409.5489"><stop offset="0" stop-color="#2196dc"/><stop offset="1" stop-color="#135772"/></linearGradient><linearGradient id="f" gradientUnits="userSpaceOnUse" x1="176.6647" x2="335.1201" y1="294.3171" y2="452.7723"><stop offset="0" stop-color="#186c95"/><stop offset="1" stop-color="#093f61"/></linearGradient><path d="m512 256c0 141.386719-114.613281 256-256 256s-256-114.613281-256-256 114.613281-256 256-256 256 114.613281 256 256zm0 0" fill="url(#a)"/><path d="m245.1875 182.6875v5.390625h-29.648438v91.640625h80.859376v-97.03125zm0 0" fill="url(#b)"/><path d="m369.710938 118h-227.484376c-13.375 0-24.257812 10.882812-24.257812 24.257812s10.882812 24.257813 24.257812 24.257813h25.070313c3.757813 18.429687 20.09375 32.34375 39.617187 32.34375h98.109376c19.523437 0 35.859374-13.914063 39.617187-32.34375h25.070313c13.375 0 24.257812-10.882813 24.257812-24.257813s-10.882812-24.257812-24.257812-24.257812zm0 0" fill="url(#c)"/><path d="m247.882812 198.859375h16.171876v80.996094h-16.171876zm0 0" fill="#fff"/><path d="m393.890625 252.765625c-10.363281 0-19.921875-3.445313-27.597656-9.25-7.675781 5.804687-17.234375 9.25-27.601563 9.25-10.367187 0-19.921875-3.445313-27.597656-9.25-7.679688 5.804687-17.234375 9.25-27.601562 9.25-10.367188 0-19.925782-3.445313-27.601563-9.25-7.675781 5.804687-17.234375 9.25-27.597656 9.25-10.367188 0-19.925781-3.445313-27.601563-9.25-7.675781 5.804687-17.234375 9.25-27.597656 9.25-10.367188 0-19.925781-3.445313-27.601562-9.25-7.675782 5.804687-17.234376 9.25-27.601563 9.25v50.164063l107.648437 18.011718-1.992187 5.078125 17.867187-2.421875 14.476563 2.421875v-4.382812l138-18.710938zm0 0" fill="url(#d)"/><path d="m393.890625 302.925781c-10.363281 0-19.921875-3.445312-27.597656-9.25-7.675781 5.804688-17.234375 9.25-27.601563 9.25-10.367187 0-19.921875-3.445312-27.597656-9.25-7.679688 5.804688-17.234375 9.25-27.601562 9.25-10.367188 0-19.925782-3.445312-27.601563-9.25-7.675781 5.804688-17.234375 9.25-27.597656 9.25-10.367188 0-19.925781-3.445312-27.601563-9.25-7.675781 5.804688-17.234375 9.25-27.597656 9.25-10.367188 0-19.925781-3.445312-27.601562-9.25-7.675782 5.804688-17.234376 9.25-27.601563 9.25v50.164063l107.648437 18.011718-1.992187 5.078126 17.867187-2.421876 14.476563 2.421876v-4.382813l138-18.707031zm0 0" fill="url(#e)"/><path d="m366.292969 343.839844c-7.675781 5.800781-17.234375 9.25-27.601563 9.25-10.367187 0-19.921875-3.449219-27.597656-9.25-7.679688 5.800781-17.234375 9.25-27.601562 9.25-10.367188 0-19.925782-3.449219-27.601563-9.25-7.675781 5.800781-17.234375 9.25-27.597656 9.25-10.367188 0-19.925781-3.449219-27.601563-9.25-7.675781 5.800781-17.234375 9.25-27.597656 9.25-10.367188 0-19.925781-3.449219-27.601562-9.25-7.675782 5.800781-17.234376 9.25-27.601563 9.25v40.910156h276v-40.910156c-10.363281 0-19.921875-3.445313-27.597656-9.25zm0 0" fill="url(#f)"/></svg>