<svg height="512pt" viewBox="0 0 512 512" width="512pt" xmlns="http://www.w3.org/2000/svg" xmlns:xlink="http://www.w3.org/1999/xlink"><linearGradient id="a" gradientUnits="userSpaceOnUse" x1="74.9807" x2="437.0193" y1="74.9807" y2="437.0193"><stop offset="0" stop-color="#ff8b2a"/><stop offset="1" stop-color="#ff5233"/></linearGradient><linearGradient id="b"><stop offset="0" stop-color="#a33b1a"/><stop offset="1" stop-color="#462300"/></linearGradient><linearGradient id="c" gradientUnits="userSpaceOnUse" x1="129.7592" x2="382.2408" xlink:href="#b" y1="124.3736" y2="376.8552"/><linearGradient id="d"><stop offset="0" stop-color="#fff3d6"/><stop offset="1" stop-color="#ffbe9f"/></linearGradient><linearGradient id="e" gradientUnits="userSpaceOnUse" x1="172.9942" x2="339.0058" xlink:href="#d" y1="146.2046" y2="312.2162"/><linearGradient id="f" gradientUnits="userSpaceOnUse" x1="240.7537" x2="271.2459" xlink:href="#b" y1="211.406" y2="241.8982"/><linearGradient id="g" gradientUnits="userSpaceOnUse" x1="287.6428" x2="312.5735" xlink:href="#b" y1="267.6919" y2="292.6226"/><linearGradient id="h" gradientUnits="userSpaceOnUse" x1="199.4265" x2="224.3572" xlink:href="#b" y1="267.6919" y2="292.6226"/><linearGradient id="i" gradientUnits="userSpaceOnUse" x1="187.9483" x2="220.4935" xlink:href="#b" y1="191.3938" y2="223.9391"/><linearGradient id="j" gradientUnits="userSpaceOnUse" x1="291.5066" x2="324.0518" xlink:href="#b" y1="191.3938" y2="223.9391"/><linearGradient id="k" gradientUnits="userSpaceOnUse" x1="232.9871" x2="279.013" xlink:href="#d" y1="257.1443" y2="303.1702"/><path d="m512 256c0 141.386719-114.613281 256-256 256s-256-114.613281-256-256 114.613281-256 256-256 256 114.613281 256 256zm0 0" fill="url(#a)"/><path d="m403.964844 187.585938c-5.050782-34.082032-21.785156-65.414063-47.5625-88.796876-27.578125-25.011718-63.234375-38.789062-100.402344-38.789062s-72.824219 13.777344-100.402344 38.789062c-25.777344 23.382813-42.511718 54.714844-47.5625 88.796876-29.613281 15.960937-48.414062 47.097656-48.414062 81.066406 0 50.753906 41.292968 92.050781 92.054687 92.050781h51.652344l52.671875 91.296875 52.671875-91.296875h51.652344c50.757812 0 92.054687-41.292969 92.054687-92.050781 0-33.96875-18.800781-65.105469-48.414062-81.066406zm0 0" fill="url(#c)"/><path d="m256 106.027344c-57.101562 0-103.558594 46.453125-103.558594 103.558594v59.066406h23.011719v46.023437h161.09375v-46.023437h23.011719v-59.066406c0-57.105469-46.457032-103.558594-103.558594-103.558594zm0 0" fill="url(#e)"/><path d="m244.492188 207.664062h23.015624v37.972657h-23.015624zm0 0" fill="url(#f)"/><path d="m313.53125 291.664062h-23.011719l-15.34375-11.507812 15.34375-11.503906h23.011719zm0 0" fill="url(#g)"/><path d="m198.46875 291.664062h23.011719l15.34375-11.507812-15.34375-11.503906h-23.011719zm0 0" fill="url(#h)"/><path d="m227.234375 207.664062c0 12.710938-10.304687 23.015626-23.011719 23.015626-12.710937 0-23.015625-10.304688-23.015625-23.015626 0-12.707031 10.304688-23.011718 23.015625-23.011718 12.707032 0 23.011719 10.304687 23.011719 23.011718zm0 0" fill="url(#i)"/><path d="m330.792969 207.664062c0 12.710938-10.304688 23.015626-23.015625 23.015626-12.707032 0-23.011719-10.304688-23.011719-23.015626 0-12.707031 10.304687-23.011718 23.011719-23.011718 12.710937 0 23.015625 10.304687 23.015625 23.011718zm0 0" fill="url(#j)"/><path d="m256 268.652344h-34.519531v23.011718h69.039062v-23.011718zm0 0" fill="url(#k)"/></svg>