<svg height="512pt" viewBox="0 0 512 512" width="512pt" xmlns="http://www.w3.org/2000/svg" xmlns:xlink="http://www.w3.org/1999/xlink"><linearGradient id="a" gradientUnits="userSpaceOnUse" x1="74.9807" x2="437.0193" y1="74.9807" y2="437.0193"><stop offset="0" stop-color="#ff6c84"/><stop offset="1" stop-color="#ff1a69"/></linearGradient><linearGradient id="b"><stop offset="0" stop-color="#bcf7fc"/><stop offset="1" stop-color="#71d1fe"/></linearGradient><linearGradient id="c" gradientUnits="userSpaceOnUse" x1="165.6374" x2="345.6371" xlink:href="#b" y1="171.2585" y2="351.2582"/><linearGradient id="d" gradientUnits="userSpaceOnUse" x1="322.8252" x2="397.4566" xlink:href="#b" y1="113.6738" y2="188.3052"/><linearGradient id="e"><stop offset="0" stop-color="#fff"/><stop offset="1" stop-color="#97e4fd"/></linearGradient><linearGradient id="f" gradientUnits="userSpaceOnUse" x1="286.6708" x2="359.7222" xlink:href="#e" y1="115.2538" y2="188.3052"/><linearGradient id="g" gradientUnits="userSpaceOnUse" x1="258.795" x2="321.9858" xlink:href="#e" y1="125.1164" y2="188.3072"/><linearGradient id="h" gradientUnits="userSpaceOnUse" x1="174.3519" x2="337.4328" y1="246.468" y2="409.5489"><stop offset="0" stop-color="#71d1fe"/><stop offset="1" stop-color="#2196dc"/></linearGradient><linearGradient id="i" gradientUnits="userSpaceOnUse" x1="176.6647" x2="335.12" y1="294.3171" y2="452.7723"><stop offset="0" stop-color="#186c95"/><stop offset="1" stop-color="#093f61"/></linearGradient><path d="m512 256c0 141.386719-114.613281 256-256 256s-256-114.613281-256-256 114.613281-256 256-256 256 114.613281 256 256zm0 0" fill="url(#a)"/><path d="m393.96875 251.273438h-32.882812c-35.671876 0-64.6875-29.019532-64.6875-64.6875v-63.90625h-35.164063c-1.777344.632812-3.535156 1.320312-5.265625 2.074218-6.921875 3.019532-13.4375 7.007813-19.308594 11.890625l-91.167968 75.761719c-4.769532 3.960938-12.398438 6.519531-19.4375 6.519531h-8.085938v84l91.96875 21.554688-2.484375 10.789062 27.882813-4.835937 20.632812 4.835937v-8.414062l138-23.929688zm0 0" fill="url(#c)"/><path d="m356.234375 118h-37.734375l37.734375 65.980469c0 10.417969 8.445313 18.867187 18.867187 18.867187 10.417969 0 18.867188-8.449218 18.867188-18.867187v-28.246094c0-20.839844-16.894531-37.734375-37.734375-37.734375zm0 0" fill="url(#d)"/><path d="m318.5 118-34.707031.132812 34.707031 65.847657c0 10.417969 8.445312 18.867187 18.867188 18.867187 10.417968 0 18.867187-8.449218 18.867187-18.867187v-28.246094c0-20.839844-16.894531-37.734375-37.734375-37.734375zm0 0" fill="url(#f)"/><path d="m283.792969 118.132812c-7.730469.433594-15.328125 1.976563-22.558594 4.546876 11.640625 6.425781 19.53125 18.816406 19.53125 33.054687v28.246094c0 10.417969 8.445313 18.867187 18.867187 18.867187 10.417969 0 18.867188-8.449218 18.867188-18.867187v-28.246094c0-19.820313-15.285156-36.058594-34.707031-37.601563zm0 0" fill="url(#g)"/><path d="m393.890625 302.925781c-10.363281 0-19.921875-3.445312-27.597656-9.25-7.675781 5.804688-17.234375 9.25-27.601563 9.25-10.367187 0-19.921875-3.445312-27.597656-9.25-7.679688 5.804688-17.234375 9.25-27.601562 9.25-10.367188 0-19.925782-3.445312-27.601563-9.25-7.675781 5.804688-17.234375 9.25-27.597656 9.25-10.367188 0-19.925781-3.445312-27.601563-9.25-7.675781 5.804688-17.234375 9.25-27.597656 9.25-10.367188 0-19.925781-3.445312-27.601562-9.25-7.675782 5.804688-17.234376 9.25-27.601563 9.25v50.164063l107.648437 18.011718-1.992187 5.078126 17.867187-2.421876 14.476563 2.421876v-4.382813l138-18.707031zm0 0" fill="url(#h)"/><path d="m366.292969 343.839844c-7.675781 5.800781-17.234375 9.25-27.601563 9.25-10.367187 0-19.921875-3.449219-27.597656-9.25-7.679688 5.800781-17.234375 9.25-27.601562 9.25-10.367188 0-19.925782-3.449219-27.601563-9.25-7.675781 5.800781-17.234375 9.25-27.597656 9.25-10.367188 0-19.925781-3.449219-27.601563-9.25-7.675781 5.800781-17.234375 9.25-27.597656 9.25-10.367188 0-19.925781-3.449219-27.601562-9.25-7.675782 5.800781-17.234376 9.25-27.601563 9.25v40.910156h276v-40.910156c-10.363281 0-19.921875-3.445313-27.597656-9.25zm0 0" fill="url(#i)"/></svg>