<svg height="512pt" viewBox="0 0 512 512" width="512pt" xmlns="http://www.w3.org/2000/svg" xmlns:xlink="http://www.w3.org/1999/xlink"><linearGradient id="a" gradientUnits="userSpaceOnUse" x1="74.9807" x2="437.0193" y1="74.9807" y2="437.0193"><stop offset="0" stop-color="#186c95"/><stop offset="1" stop-color="#093f61"/></linearGradient><linearGradient id="b" gradientUnits="userSpaceOnUse" x1="201.7258" x2="310.1453" y1="145.5261" y2="253.9456"><stop offset="0" stop-color="#bcf7fc"/><stop offset="1" stop-color="#71d1fe"/></linearGradient><linearGradient id="c" gradientUnits="userSpaceOnUse" x1="214.3574" x2="297.3089" y1="226.9543" y2="309.9059"><stop offset="0" stop-color="#ff8b2a"/><stop offset="1" stop-color="#ff5233"/></linearGradient><linearGradient id="d" gradientUnits="userSpaceOnUse" x1="203.0603" x2="308.606" y1="248.2578" y2="353.8034"><stop offset="0" stop-color="#ff6e2e"/><stop offset="1" stop-color="#ff364e"/></linearGradient><linearGradient id="e" gradientUnits="userSpaceOnUse" x1="174.3196" x2="337.4006" y1="246.468" y2="409.5489"><stop offset="0" stop-color="#71d1fe"/><stop offset="1" stop-color="#2196dc"/></linearGradient><linearGradient id="f" gradientUnits="userSpaceOnUse" x1="176.6325" x2="335.0878" y1="294.3171" y2="452.7723"><stop offset="0" stop-color="#2196dc"/><stop offset="1" stop-color="#135772"/></linearGradient><path d="m512 256c0 141.386719-114.613281 256-256 256s-256-114.613281-256-256 114.613281-256 256-256 256 114.613281 256 256zm0 0" fill="url(#a)"/><path d="m314.964844 150.34375h-50.941406v-32.34375h-16.171876v32.34375h-50.941406v16.171875h15.222656l-9.785156 88.050781 16.074219 1.789063 2.796875-25.152344h69.4375l2.796875 25.152344 16.070313-1.789063-9.78125-88.050781h15.222656zm-59.027344 64.6875h-32.925781l1.796875-16.171875h62.253906l1.796875 16.171875zm29.328125-32.34375h-58.660156l1.796875-16.171875h55.066406zm0 0" fill="url(#b)"/><path d="m255.9375 296.28125 77.84375-22.847656c0-13.34375-10.914062-24.257813-24.257812-24.257813h-107.378907c-13.34375 0-24.257812 10.914063-24.257812 24.257813l51.898437 21.507812-6.191406 10.835938 18.929688-5.558594 13.414062 5.558594zm0 0" fill="url(#c)"/><path d="m255.9375 273.433594h-78.050781v55.195312h155.894531v-55.195312zm0 0" fill="url(#d)"/><path d="m393.859375 302.925781c-10.363281 0-19.921875-3.445312-27.597656-9.25-7.675781 5.804688-17.234375 9.25-27.601563 9.25-10.367187 0-19.925781-3.445312-27.601562-9.25-7.675782 5.804688-17.234375 9.25-27.597656 9.25-10.367188 0-19.925782-3.445312-27.601563-9.25-7.675781 5.804688-17.234375 9.25-27.597656 9.25-10.367188 0-19.925781-3.445312-27.601563-9.25-7.675781 5.804688-17.234375 9.25-27.601562 9.25-10.363282 0-19.921875-3.445312-27.597656-9.25-7.675782 5.804688-17.234376 9.25-27.601563 9.25v50.164063l107.648437 18.011718-1.992187 5.078126 17.867187-2.421876 14.476563 2.421876v-4.382813l138-18.707031zm0 0" fill="url(#e)"/><path d="m366.261719 343.839844c-7.675781 5.800781-17.234375 9.25-27.601563 9.25-10.367187 0-19.925781-3.449219-27.601562-9.25-7.675782 5.800781-17.234375 9.25-27.597656 9.25-10.367188 0-19.925782-3.449219-27.601563-9.25-7.675781 5.800781-17.234375 9.25-27.597656 9.25-10.367188 0-19.925781-3.449219-27.601563-9.25-7.675781 5.800781-17.234375 9.25-27.601562 9.25-10.363282 0-19.921875-3.449219-27.597656-9.25-7.675782 5.800781-17.234376 9.25-27.601563 9.25v40.910156h276v-40.910156c-10.363281 0-19.921875-3.445313-27.597656-9.25zm0 0" fill="url(#f)"/></svg>