<svg height="512pt" viewBox="0 0 512 512" width="512pt" xmlns="http://www.w3.org/2000/svg" xmlns:xlink="http://www.w3.org/1999/xlink"><linearGradient id="a" gradientUnits="userSpaceOnUse" x1="74.9807" x2="437.0193" y1="74.9807" y2="437.0193"><stop offset="0" stop-color="#ff6c84"/><stop offset="1" stop-color="#ff1a69"/></linearGradient><linearGradient id="b"><stop offset="0" stop-color="#ffe7ad"/><stop offset="1" stop-color="#ffc320"/></linearGradient><linearGradient id="c" gradientUnits="userSpaceOnUse" x1="130.757" x2="200.4201" xlink:href="#b" y1="105.243" y2="174.9061"/><linearGradient id="d" gradientUnits="userSpaceOnUse" x1="319.0407" x2="373.6315" xlink:href="#b" y1="110.0839" y2="164.6747"/><linearGradient id="e"><stop offset="0" stop-color="#ffd567"/><stop offset="1" stop-color="#ffa725"/></linearGradient><linearGradient id="f" gradientUnits="userSpaceOnUse" x1="166.3" x2="345.7" xlink:href="#e" y1="223.6563" y2="223.6563"/><linearGradient id="g" gradientUnits="userSpaceOnUse" x1="187.8625" x2="324.1375" xlink:href="#b" y1="207.4843" y2="207.4843"/><linearGradient id="h" gradientUnits="userSpaceOnUse" x1="118" x2="200.7246" xlink:href="#e" y1="223.6563" y2="223.6563"/><linearGradient id="i" gradientUnits="userSpaceOnUse" x1="311.1245" x2="394" xlink:href="#e" y1="223.6563" y2="223.6563"/><linearGradient id="j" gradientUnits="userSpaceOnUse" x1="174.4407" x2="337.4839" y1="196.325" y2="359.3682"><stop offset="0" stop-color="#bcf7fc"/><stop offset="1" stop-color="#71d1fe"/></linearGradient><linearGradient id="k" gradientUnits="userSpaceOnUse" x1="174.4407" x2="337.4839" y1="246.4868" y2="409.5301"><stop offset="0" stop-color="#71d1fe"/><stop offset="1" stop-color="#2196dc"/></linearGradient><linearGradient id="l" gradientUnits="userSpaceOnUse" x1="176.7535" x2="335.1711" y1="294.3359" y2="452.7535"><stop offset="0" stop-color="#186c95"/><stop offset="1" stop-color="#093f61"/></linearGradient><path d="m512 256c0 141.386719-114.613281 256-256 256s-256-114.613281-256-256 114.613281-256 256-256 256 114.613281 256 256zm0 0" fill="url(#a)"/><path d="m118 134.171875h24.90625v40.429687h16.171875v-40.429687h25.476563v40.429687h16.171874v-56.601562h-82.726562zm0 0" fill="url(#c)"/><path d="m394 118h-82.875v51.210938h16.171875v-35.039063h25.625v35.039063h16.171875v-35.039063h24.90625zm0 0" fill="url(#d)"/><path d="m311.125 158.429688h-110.398438l-34.425781 130.453124h179.398438zm-79.152344 49.054687 14.273438-9.710937-4.121094 16.621093zm0 0" fill="url(#f)"/><path d="m256 191.136719h-68.136719v32.699219h136.273438v-32.699219zm0 0" fill="url(#g)"/><path d="m118 158.429688v94.335937l82.726562 36.117187v-130.453124zm0 0" fill="url(#h)"/><path d="m311.125 158.429688v130.453124l82.800781-36.117187.074219-94.335937zm0 0" fill="url(#i)"/><path d="m393.925781 252.765625h-275.925781v50.164063l107.808594 18.046874-2.226563 5.042969 17.871094-2.421875 14.472656 2.421875v-4.382812l138-18.707031zm0 0" fill="url(#j)"/><path d="m393.925781 302.925781c-10.367187 0-19.925781-3.445312-27.601562-9.25-7.675781 5.804688-17.234375 9.25-27.597657 9.25-10.367187 0-19.925781-3.445312-27.601562-9.25-7.675781 5.804688-17.234375 9.25-27.601562 9.25-10.363282 0-19.921876-3.445312-27.597657-9.25-7.675781 5.804688-17.234375 9.25-27.601562 9.25-10.363281 0-19.921875-3.445312-27.597657-9.25-7.675781 5.804688-17.234374 9.25-27.601562 9.25-10.363281 0-19.925781-3.445312-27.601562-9.25-7.675782 5.804688-17.15625 9.25-27.523438 9.25v50.164063l107.574219 18.011718-1.992188 5.082032 17.871094-2.425782 14.472656 2.425782v-4.386719l138-18.707031zm0 0" fill="url(#k)"/><path d="m366.324219 343.839844c-7.675781 5.800781-17.234375 9.25-27.597657 9.25-10.367187 0-19.925781-3.449219-27.601562-9.25-7.675781 5.800781-17.234375 9.25-27.601562 9.25-10.363282 0-19.921876-3.449219-27.597657-9.25-7.675781 5.800781-17.234375 9.25-27.601562 9.25-10.363281 0-19.921875-3.449219-27.597657-9.25-7.675781 5.800781-17.234374 9.25-27.601562 9.25-10.363281 0-19.925781-3.449219-27.601562-9.25-7.675782 5.800781-17.15625 9.25-27.523438 9.25v40.910156h275.925781v-40.910156c-10.367187 0-19.925781-3.445313-27.601562-9.25zm0 0" fill="url(#l)"/></svg>