<svg height="512pt" viewBox="0 0 512 512" width="512pt" xmlns="http://www.w3.org/2000/svg" xmlns:xlink="http://www.w3.org/1999/xlink"><linearGradient id="a" gradientUnits="userSpaceOnUse" x1="74.9807" x2="437.0193" y1="74.9807" y2="437.0193"><stop offset="0" stop-color="#ff6c84"/><stop offset="1" stop-color="#ff1a69"/></linearGradient><linearGradient id="b"><stop offset="0" stop-color="#a33b1a"/><stop offset="1" stop-color="#462300"/></linearGradient><linearGradient id="c" gradientUnits="userSpaceOnUse" x1="141.6968" x2="370.3033" xlink:href="#b" y1="190.3117" y2="418.9181"/><linearGradient id="d" gradientUnits="userSpaceOnUse" x1="169.0015" x2="342.9986" y1="217.6004" y2="391.5975"><stop offset="0" stop-color="#ff8b2a"/><stop offset="1" stop-color="#ff5233"/></linearGradient><linearGradient id="e" gradientUnits="userSpaceOnUse" x1="200.008" x2="322.5969" y1="213.9127" y2="336.5017"><stop offset="0" stop-color="#ffd567"/><stop offset="1" stop-color="#ffa725"/></linearGradient><linearGradient id="f" gradientUnits="userSpaceOnUse" x1="190.2612" x2="318.103" xlink:href="#b" y1="261.3381" y2="389.1799"/><path d="m512 256c0 141.386719-114.613281 256-256 256s-256-114.613281-256-256 114.613281-256 256-256 256 114.613281 256 256zm0 0" fill="url(#a)"/><path d="m411.882812 306.644531-97.253906-168.746093c-12.054687-20.910157-34.519531-33.898438-58.628906-33.898438s-46.574219 12.988281-58.628906 33.898438l-97.253906 168.746093c-5.886719 10.214844-9 21.878907-9 33.726563 0 37.292968 30.339843 67.628906 67.628906 67.628906h194.507812c37.289063 0 67.628906-30.339844 67.628906-67.628906 0-11.847656-3.113281-23.507813-9-33.726563zm0 0" fill="url(#c)"/><path d="m378.398438 325.941406-97.253907-168.746094c-5.25-9.109374-14.652343-14.550781-25.144531-14.550781s-19.894531 5.441407-25.144531 14.550781l-97.253907 168.75c-2.546874 4.417969-3.839843 9.273438-3.839843 14.429688 0 15.980469 13.003906 28.980469 28.984375 28.980469h194.507812c15.980469 0 28.984375-13 28.984375-28.980469 0-5.160156-1.292969-10.015625-3.839843-14.433594zm0 0" fill="url(#d)"/><path d="m347.710938 311.390625-83.304688-144.542969c-1.8125-3.148437-4.800781-4.878906-8.40625-4.878906s-6.589844 1.730469-8.40625 4.878906l-50.550781 87.710938 31.355469 36.890625-11.042969 51.796875zm0 0" fill="url(#e)"/><path d="m361.660156 335.585938-13.953125-24.195313h-37.367187c-19.304688 0-35.003906-15.703125-35.003906-35.007813 0-10.445312 4.617187-20.273437 12.675781-26.953124l3.488281-2.898438-11.101562-19.261719-5.605469-2.070312c-6.007813-2.214844-12.324219-3.335938-18.792969-3.335938-12.648438 0-24.976562 4.453125-34.6875 12.527344l-24.269531 20.167969-46.699219 81.035156c-.859375 1.480469-1.257812 3.003906-1.257812 4.78125 0 5.324219 4.335937 9.660156 9.660156 9.660156h194.507812c5.324219 0 9.660156-4.335937 9.660156-9.660156 0-1.78125-.398437-3.300781-1.253906-4.789062zm0 0" fill="url(#f)"/></svg>