<svg height="512pt" viewBox="0 0 512 512" width="512pt" xmlns="http://www.w3.org/2000/svg" xmlns:xlink="http://www.w3.org/1999/xlink"><linearGradient id="a" gradientUnits="userSpaceOnUse" x1="74.9807" x2="437.0193" y1="74.9807" y2="437.0193"><stop offset="0" stop-color="#186c95"/><stop offset="1" stop-color="#093f61"/></linearGradient><linearGradient id="b" gradientUnits="userSpaceOnUse" x1="117.4422" x2="394.5579" y1="117.4421" y2="394.5578"><stop offset="0" stop-color="#fff3d6"/><stop offset="1" stop-color="#ffbe9f"/></linearGradient><linearGradient id="c"><stop offset="0" stop-color="#ffd567"/><stop offset="1" stop-color="#ffa725"/></linearGradient><linearGradient id="d" gradientUnits="userSpaceOnUse" x1="96.5722" x2="163.4231" xlink:href="#c" y1="222.5746" y2="289.4255"/><linearGradient id="e" gradientUnits="userSpaceOnUse" x1="348.5769" x2="415.4278" xlink:href="#c" y1="222.5745" y2="289.4254"/><linearGradient id="f" gradientUnits="userSpaceOnUse" x1="222.5743" x2="289.4257" xlink:href="#c" y1="348.5743" y2="415.4257"/><linearGradient id="g" gradientUnits="userSpaceOnUse" x1="222.5743" x2="289.4257" xlink:href="#c" y1="96.5743" y2="163.4257"/><linearGradient id="h"><stop offset="0" stop-color="#ff6e2e"/><stop offset="1" stop-color="#ff364e"/></linearGradient><linearGradient id="i" gradientUnits="userSpaceOnUse" x1="119.0301" x2="230.3739" xlink:href="#h" y1="281.6261" y2="392.9699"/><linearGradient id="j" gradientUnits="userSpaceOnUse" x1="281.6261" x2="392.9699" xlink:href="#h" y1="119.0301" y2="230.3739"/><linearGradient id="k" gradientUnits="userSpaceOnUse" x1="144.6307" x2="204.7733" xlink:href="#h" y1="144.6307" y2="204.7733"/><linearGradient id="l" gradientUnits="userSpaceOnUse" x1="307.2267" x2="367.3693" xlink:href="#h" y1="307.2267" y2="367.3693"/><linearGradient id="m" gradientUnits="userSpaceOnUse" x1="224.8461" x2="287.154" xlink:href="#h" y1="211.0925" y2="273.4004"/><path d="m512 256c0 141.386719-114.613281 256-256 256s-256-114.613281-256-256 114.613281-256 256-256 256 114.613281 256 256zm0 0" fill="url(#a)"/><path d="m348.898438 98.5h-185.796876c-35.621093 0-64.601562 28.980469-64.601562 64.601562v185.796876c0 35.621093 28.980469 64.601562 64.601562 64.601562h185.796876c35.621093 0 64.601562-28.980469 64.601562-64.601562v-185.796876c0-35.621093-28.980469-64.601562-64.601562-64.601562zm46.144531 250.398438c0 25.445312-20.699219 46.144531-46.144531 46.144531h-185.796876c-25.445312 0-46.144531-20.699219-46.144531-46.144531v-185.796876c0-25.445312 20.699219-46.144531 46.144531-46.144531h185.796876c25.445312 0 46.144531 20.699219 46.144531 46.144531zm0 0" fill="url(#b)"/><path d="m175.199219 234.347656-45.203125-45.199218-26.09375 26.097656c-7.097656 26.664062-7.097656 54.84375 0 81.507812l26.09375 26.097656 45.203125-45.203124c-3.773438-14.164063-3.773438-29.132813 0-43.300782zm0 0" fill="url(#d)"/><path d="m336.800781 277.652344 45.203125 45.199218 26.09375-26.097656c7.097656-26.664062 7.097656-54.84375 0-81.507812l-26.09375-26.097656-45.203125 45.203124c3.773438 14.164063 3.773438 29.132813 0 43.300782zm0 0" fill="url(#e)"/><path d="m277.648438 336.804688c-7.078126 1.882812-14.363282 2.824218-21.648438 2.824218s-14.570312-.941406-21.648438-2.824218l-45.203124 45.195312 26.097656 26.097656c13.332031 3.550782 27.046875 5.328125 40.753906 5.328125s27.421875-1.777343 40.753906-5.328125l26.097656-26.097656zm0 0" fill="url(#f)"/><path d="m296.753906 103.902344c-13.332031-3.550782-27.046875-5.328125-40.753906-5.328125s-27.421875 1.777343-40.753906 5.328125l-26.097656 26.097656 45.203124 45.195312c7.078126-1.882812 14.363282-2.824218 21.648438-2.824218s14.570312.941406 21.648438 2.824218l45.203124-45.195312zm0 0" fill="url(#g)"/><path d="m196.835938 315.164062c-10.769532-10.765624-17.976563-23.761718-21.636719-37.511718l-71.296875 19.101562c6.890625 25.886719 20.460937 50.347656 40.730468 70.617188 20.265626 20.265625 44.726563 33.839844 70.613282 40.726562l19.105468-71.292968c-13.753906-3.664063-26.75-10.875-37.515624-21.640626zm0 0" fill="url(#i)"/><path d="m296.753906 103.902344-19.101562 71.292968c13.75 3.660157 26.746094 10.871094 37.511718 21.640626 10.769532 10.765624 17.976563 23.761718 21.636719 37.511718l71.296875-19.105468c-6.890625-25.886719-20.460937-50.347657-40.730468-70.613282-20.265626-20.265625-44.726563-33.839844-70.613282-40.726562zm0 0" fill="url(#j)"/><path d="m196.835938 196.835938c10.765624-10.769532 23.761718-17.976563 37.511718-21.636719l-19.101562-71.296875c-25.886719 6.890625-50.347656 20.460937-70.617188 40.730468-20.265625 20.265626-33.839844 44.726563-40.726562 70.613282l71.292968 19.105468c3.664063-13.753906 10.875-26.75 21.640626-37.515624zm0 0" fill="url(#k)"/><path d="m408.097656 296.753906-71.292968-19.101562c-3.660157 13.75-10.871094 26.746094-21.640626 37.511718-10.765624 10.769532-23.761718 17.976563-37.511718 21.636719l19.105468 71.296875c25.886719-6.890625 50.347657-20.460937 70.613282-40.730468 20.265625-20.265626 33.839844-44.726563 40.726562-70.613282zm0 0" fill="url(#l)"/><path d="m297.539062 221.480469c-11.472656-11.46875-30.070312-11.46875-41.539062 0-11.46875-11.46875-30.066406-11.46875-41.539062 0-11.46875 11.464843-11.46875 30.066406 0 41.53125l41.539062 41.535156 41.539062-41.53125c11.46875-11.46875 11.46875-30.070313 0-41.535156zm0 0" fill="url(#m)"/></svg>