<svg height="512pt" viewBox="0 0 512 512" width="512pt" xmlns="http://www.w3.org/2000/svg" xmlns:xlink="http://www.w3.org/1999/xlink"><linearGradient id="a" gradientUnits="userSpaceOnUse" x1="74.9807" x2="437.0193" y1="74.9807" y2="437.0193"><stop offset="0" stop-color="#bcf7fc"/><stop offset="1" stop-color="#71d1fe"/></linearGradient><linearGradient id="b"><stop offset="0" stop-color="#fff"/><stop offset="1" stop-color="#97e4fd"/></linearGradient><linearGradient id="c" gradientUnits="userSpaceOnUse" x1="324.0992" x2="377.4466" xlink:href="#b" y1="294.153" y2="347.5004"/><linearGradient id="d" gradientUnits="userSpaceOnUse" x1="167.5473" x2="343.0633" y1="131.6796" y2="307.1956"><stop offset="0" stop-color="#186c95"/><stop offset="1" stop-color="#093f61"/></linearGradient><linearGradient id="e" gradientUnits="userSpaceOnUse" x1="133.7736" x2="187.1207" xlink:href="#b" y1="294.1531" y2="347.5002"/><linearGradient id="f" gradientUnits="userSpaceOnUse" x1="228.937" x2="282.2831" xlink:href="#b" y1="349.0552" y2="402.4014"/><path d="m512 256c0 141.386719-114.613281 256-256 256s-256-114.613281-256-256 114.613281-256 256-256 256 114.613281 256 256zm0 0" fill="url(#a)"/><path d="m361.148438 357.101562 15.847656-9.152343-10.375-17.972657h20.753906v-18.300781h-20.753906l10.375-17.972656-15.847656-9.148437-10.375 17.972656-10.375-17.972656-15.851563 9.148437 10.378906 17.972656h-20.753906v18.300781h20.753906l-10.378906 17.972657 15.851563 9.152343 10.375-17.972656zm0 0" fill="url(#c)"/><g fill="#bcf7fc"><path d="m151.296875 375.726562h18.300781v18.300782h-18.300781zm0 0"/><path d="m341.621094 375.726562h18.304687v18.300782h-18.304687zm0 0"/><path d="m246.460938 302.527344h18.300781v18.300781h-18.300781zm0 0"/></g><path d="m398.253906 188.324219c-6.347656-6.539063-14.34375-10.957031-23.074218-12.847657-3.589844-22.019531-22.742188-38.875-45.757813-38.875-1.617187 0-3.234375.082032-4.839844.25-15.324219-22.882812-41.183593-36.851562-68.972656-36.851562-27.785156 0-53.648437 13.96875-68.972656 36.851562-1.605469-.164062-3.21875-.25-4.839844-.25-22.921875 0-42.015625 16.722657-45.710937 38.613282-21.183594 3.996094-37.25 22.636718-37.25 44.957031 0 25.226563 20.523437 45.753906 45.75 45.753906h220.828124c25.226563 0 45.75-20.527343 45.75-45.753906 0-11.957031-4.585937-23.265625-12.910156-31.847656zm0 0" fill="url(#d)"/><path d="m186.671875 293.703125-15.847656-9.148437-10.378907 17.972656-10.375-17.972656-15.847656 9.148437 10.375 17.972656h-20.75v18.300781h20.75l-10.375 17.972657 15.847656 9.148437 10.375-17.96875 10.378907 17.96875 15.847656-9.148437-10.375-17.972657h20.75v-18.300781h-20.75zm0 0" fill="url(#e)"/><path d="m292.210938 366.578125h-20.753907l10.378907-17.972656-15.851563-9.148438-10.375 17.972657-10.375-17.972657-15.847656 9.148438 10.375 17.972656h-20.753907v18.300781h20.753907l-10.375 17.972656 15.847656 9.148438 10.375-17.972656 10.375 17.972656 15.851563-9.148438-10.378907-17.972656h20.753907zm0 0" fill="url(#f)"/></svg>