<svg height="512pt" viewBox="0 0 512 512" width="512pt" xmlns="http://www.w3.org/2000/svg" xmlns:xlink="http://www.w3.org/1999/xlink"><linearGradient id="a" gradientUnits="userSpaceOnUse" x1="74.9807" x2="437.0193" y1="74.9807" y2="437.0193"><stop offset="0" stop-color="#bcf7fc"/><stop offset="1" stop-color="#71d1fe"/></linearGradient><linearGradient id="b" gradientUnits="userSpaceOnUse" x1="168.0302" x2="343.3611" y1="131.6462" y2="306.9771"><stop offset="0" stop-color="#186c95"/><stop offset="1" stop-color="#093f61"/></linearGradient><linearGradient id="c"><stop offset="0" stop-color="#fff"/><stop offset="1" stop-color="#97e4fd"/></linearGradient><linearGradient id="d" gradientUnits="userSpaceOnUse" x1="349.4012" x2="402.6925" xlink:href="#c" y1="321.37" y2="374.6612"/><linearGradient id="e" gradientUnits="userSpaceOnUse" x1="300.4844" x2="318.7656" xlink:href="#c" y1="338.875" y2="357.1563"/><linearGradient id="f" gradientUnits="userSpaceOnUse" x1="154.6914" x2="262.4929" xlink:href="#c" y1="247.6211" y2="355.4226"/><linearGradient id="g" gradientUnits="userSpaceOnUse" x1="144.7601" x2="272.4242" xlink:href="#c" y1="330.6774" y2="458.3414"/><linearGradient id="h" gradientUnits="userSpaceOnUse" x1="154.6914" x2="245.793" xlink:href="#c" y1="302.4648" y2="393.5664"/><path d="m512 256c0 141.386719-114.613281 256-256 256s-256-114.613281-256-256 114.613281-256 256-256 256 114.613281 256 256zm0 0" fill="url(#a)"/><path d="m398.492188 188.230469c-6.339844-6.53125-14.328126-10.945313-23.046876-12.835938-3.585937-21.992187-22.71875-38.832031-45.710937-38.832031-1.617187 0-3.230469.082031-4.835937.25-15.304688-22.859375-41.140626-36.8125-68.898438-36.8125s-53.59375 13.953125-68.898438 36.8125c-1.605468-.164062-3.21875-.25-4.835937-.25-22.898437 0-41.96875 16.707031-45.664063 38.574219-21.160156 3.992187-37.210937 22.609375-37.210937 44.910156 0 25.199219 20.503906 45.703125 45.703125 45.703125h220.59375c25.203125 0 45.703125-20.503906 45.703125-45.703125 0-11.945313-4.582031-23.242187-12.898437-31.816406zm0 0" fill="url(#b)"/><path d="m412.609375 338.875h-20.730469l10.363282-17.953125-15.832032-9.140625-10.363281 17.953125-10.363281-17.953125-15.832032 9.140625 10.363282 17.953125h-20.730469v18.28125h20.730469l-10.363282 17.953125 15.832032 9.140625 10.363281-17.953125 10.363281 17.953125 15.832032-9.140625-10.363282-17.953125h20.730469zm0 0" fill="url(#d)"/><path d="m300.484375 338.875h18.28125v18.28125h-18.28125zm0 0" fill="url(#e)"/><path d="m282.203125 302.3125h-182.203125v18.28125h182.203125c20.15625 0 36.5625-16.402344 36.5625-36.5625h-18.28125c0 10.078125-8.203125 18.28125-18.28125 18.28125zm0 0" fill="url(#f)"/><path d="m282.203125 375.4375h-182.203125v18.28125h182.203125c10.078125 0 18.28125 8.203125 18.28125 18.28125h18.28125c0-20.15625-16.40625-36.5625-36.5625-36.5625zm0 0" fill="url(#g)"/><path d="m282.203125 357.15625v-18.28125h-163.921875v18.28125zm0 0" fill="url(#h)"/></svg>