<svg height="512pt" viewBox="0 0 512 512" width="512pt" xmlns="http://www.w3.org/2000/svg" xmlns:xlink="http://www.w3.org/1999/xlink"><linearGradient id="a" gradientUnits="userSpaceOnUse" x1="74.9807" x2="437.0193" y1="74.9807" y2="437.0193"><stop offset="0" stop-color="#75c231"/><stop offset="1" stop-color="#317645"/></linearGradient><linearGradient id="b" gradientUnits="userSpaceOnUse" x1="233.7637" x2="278.2363" y1="164.4052" y2="208.8778"><stop offset="0" stop-color="#fff3d6"/><stop offset="1" stop-color="#ffbe9f"/></linearGradient><linearGradient id="c" gradientUnits="userSpaceOnUse" x1="172.8496" x2="339.1504" y1="209.7754" y2="376.0762"><stop offset="0" stop-color="#bcf7fc"/><stop offset="1" stop-color="#71d1fe"/></linearGradient><linearGradient id="d" gradientUnits="userSpaceOnUse" x1="168.8066" x2="343.1934" y1="270.4199" y2="444.8066"><stop offset="0" stop-color="#186c95"/><stop offset="1" stop-color="#093f61"/></linearGradient><path d="m512 256c0 141.386719-114.613281 256-256 256s-256-114.613281-256-256 114.613281-256 256-256 256 114.613281 256 256zm0 0" fill="url(#a)"/><path d="m256 118h-21.5625v45.730469l12.023438 8.96875-1.242188 7.113281 6.46875-3.214844 4.3125 3.214844v-5.359375l21.5625-10.722656v-45.730469zm0 0" fill="#ff8b2a"/><path d="m234.4375 209.550781v63.09375h43.125v-63.09375zm0 0" fill="#ff8b2a"/><path d="m256 163.730469h-21.5625v45.820312h43.125v-45.820312zm0 0" fill="url(#b)"/><path d="m394 264.625h-8.085938c-8.140624 0-11.777343-2.71875-16.8125-6.480469-5.785156-4.316406-12.980468-9.691406-26.496093-9.691406-13.507813 0-20.703125 5.375-26.488281 9.691406-5.035157 3.761719-8.675782 6.480469-16.8125 6.480469-8.140626 0-11.78125-2.71875-16.816407-6.480469-5.777343-4.316406-12.972656-9.691406-26.488281-9.691406s-20.710938 5.375-26.488281 9.691406c-5.042969 3.761719-8.679688 6.480469-16.820313 6.480469s-11.78125-2.71875-16.8125-6.480469c-5.78125-4.316406-12.976562-9.691406-26.492187-9.691406-13.511719 0-20.703125 5.375-26.488281 9.691406-5.035157 3.761719-8.675782 6.480469-16.8125 6.480469h-8.085938v56.601562l108 28.476563-2.34375 7.910156 17.867188-3.816406 14.476562 3.816406v-6.910156l138-29.476563zm0 0" fill="url(#c)"/><path d="m394 321.226562h-276v28.300782l10.78125 8.085937-10.78125 8.085938v28.300781h276v-28.300781l-10.78125-8.085938 10.78125-8.085937zm0 0" fill="url(#d)"/><path d="m291.039062 365.699219h-35.039062l-10.78125-8.085938 10.78125-8.085937h35.039062zm0 0" fill="#fff3d6"/><path d="m220.960938 349.527344h35.039062v16.171875h-35.039062zm0 0" fill="#fff"/><path d="m118 349.527344h70.078125v16.171875h-70.078125zm0 0" fill="#fff"/><path d="m323.921875 349.527344h70.078125v16.171875h-70.078125zm0 0" fill="#fff3d6"/></svg>