<svg height="512pt" viewBox="0 0 512 512" width="512pt" xmlns="http://www.w3.org/2000/svg" xmlns:xlink="http://www.w3.org/1999/xlink"><linearGradient id="a" gradientUnits="userSpaceOnUse" x1="74.9807" x2="437.0193" y1="74.9807" y2="437.0193"><stop offset="0" stop-color="#bcf7fc"/><stop offset="1" stop-color="#71d1fe"/></linearGradient><linearGradient id="b"><stop offset="0" stop-color="#71d1fe"/><stop offset="1" stop-color="#2196dc"/></linearGradient><linearGradient id="c" gradientUnits="userSpaceOnUse" x1="203.6094" x2="221.8906" xlink:href="#b" y1="338.875" y2="357.1563"/><linearGradient id="d" gradientUnits="userSpaceOnUse" x1="289.3281" x2="307.6094" xlink:href="#b" y1="338.875" y2="357.1563"/><linearGradient id="e" gradientUnits="userSpaceOnUse" x1="375.0469" x2="393.3281" xlink:href="#b" y1="338.875" y2="357.1563"/><linearGradient id="f" gradientUnits="userSpaceOnUse" x1="117.8906" x2="136.1719" xlink:href="#b" y1="338.875" y2="357.1563"/><linearGradient id="g" gradientUnits="userSpaceOnUse" x1="167.6395" x2="342.9704" y1="131.6462" y2="306.9771"><stop offset="0" stop-color="#186c95"/><stop offset="1" stop-color="#093f61"/></linearGradient><linearGradient id="h"><stop offset="0" stop-color="#fff"/><stop offset="1" stop-color="#97e4fd"/></linearGradient><linearGradient id="i" gradientUnits="userSpaceOnUse" x1="148.2637" x2="191.5175" xlink:href="#h" y1="289.8262" y2="333.08"/><linearGradient id="j" gradientUnits="userSpaceOnUse" x1="148.2637" x2="191.5175" xlink:href="#h" y1="362.9512" y2="406.205"/><linearGradient id="k" gradientUnits="userSpaceOnUse" x1="319.7013" x2="362.9551" xlink:href="#h" y1="289.8262" y2="333.08"/><linearGradient id="l" gradientUnits="userSpaceOnUse" x1="319.7013" x2="362.9551" xlink:href="#h" y1="362.9512" y2="406.205"/><linearGradient id="m" gradientUnits="userSpaceOnUse" x1="233.9827" x2="277.2361" xlink:href="#h" y1="289.8264" y2="333.0798"/><linearGradient id="n" gradientUnits="userSpaceOnUse" x1="233.9827" x2="277.2361" xlink:href="#h" y1="362.9514" y2="406.2048"/><path d="m512 256c0 141.386719-114.613281 256-256 256s-256-114.613281-256-256 114.613281-256 256-256 256 114.613281 256 256zm0 0" fill="url(#a)"/><path d="m203.609375 338.875h18.28125v18.28125h-18.28125zm0 0" fill="url(#c)"/><path d="m289.328125 338.875h18.28125v18.28125h-18.28125zm0 0" fill="url(#d)"/><path d="m375.046875 338.875h18.28125v18.28125h-18.28125zm0 0" fill="url(#e)"/><path d="m117.890625 338.875h18.28125v18.28125h-18.28125zm0 0" fill="url(#f)"/><path d="m398.101562 188.230469c-6.339843-6.53125-14.328124-10.945313-23.046874-12.835938-3.585938-21.992187-22.71875-38.832031-45.710938-38.832031-1.617188 0-3.230469.082031-4.835938.25-15.308593-22.859375-41.140624-36.8125-68.898437-36.8125s-53.59375 13.953125-68.898437 36.8125c-1.605469-.164062-3.21875-.25-4.835938-.25-22.898438 0-41.972656 16.707031-45.664062 38.574219-21.160157 3.988281-37.210938 22.609375-37.210938 44.910156 0 25.199219 20.503906 45.703125 45.703125 45.703125h220.59375c25.199219 0 45.703125-20.503906 45.703125-45.703125 0-11.945313-4.578125-23.242187-12.898438-31.816406zm0 0" fill="url(#g)"/><path d="m154.058594 284.03125-15.832032 27.421875 15.832032 27.421875h31.664062l15.832032-27.421875-15.832032-27.421875zm0 0" fill="url(#i)"/><path d="m154.058594 357.15625-15.832032 27.421875 15.832032 27.421875h31.664062l15.832032-27.421875-15.832032-27.421875zm0 0" fill="url(#j)"/><path d="m357.160156 338.875 15.832032-27.421875-15.832032-27.421875h-31.664062l-15.832032 27.421875 15.832032 27.421875zm0 0" fill="url(#k)"/><path d="m325.496094 357.15625-15.832032 27.421875 15.832032 27.421875h31.664062l15.832032-27.421875-15.832032-27.421875zm0 0" fill="url(#l)"/><path d="m255.609375 284.03125h-15.832031l-15.832032 27.421875 15.832032 27.421875h31.664062l15.832032-27.421875-15.832032-27.421875zm0 0" fill="url(#m)"/><path d="m255.609375 357.15625h-15.832031l-15.832032 27.421875 15.832032 27.421875h31.664062l15.832032-27.421875-15.832032-27.421875zm0 0" fill="url(#n)"/></svg>