<svg height="512pt" viewBox="0 0 512 512" width="512pt" xmlns="http://www.w3.org/2000/svg" xmlns:xlink="http://www.w3.org/1999/xlink"><linearGradient id="a" gradientUnits="userSpaceOnUse" x1="74.9807" x2="437.0193" y1="74.9807" y2="437.0193"><stop offset="0" stop-color="#ff6c84"/><stop offset="1" stop-color="#ff1a69"/></linearGradient><linearGradient id="b"><stop offset="0" stop-color="#2196dc"/><stop offset="1" stop-color="#135772"/></linearGradient><linearGradient id="c" gradientUnits="userSpaceOnUse" x1="179.2568" x2="225.4678" xlink:href="#b" y1="369.7119" y2="415.9229"/><linearGradient id="d" gradientUnits="userSpaceOnUse" x1="272.5039" x2="346.7715" xlink:href="#b" y1="355.6836" y2="429.9512"/><linearGradient id="e" gradientUnits="userSpaceOnUse" x1="224.6426" x2="280.7559" y1="271.5137" y2="327.627"><stop offset="0" stop-color="#bcf7fc"/><stop offset="1" stop-color="#71d1fe"/></linearGradient><linearGradient id="f" gradientUnits="userSpaceOnUse" x1="208.1387" x2="303.8613" y1="321.0254" y2="416.748"><stop offset="0" stop-color="#71d1fe"/><stop offset="1" stop-color="#2196dc"/></linearGradient><linearGradient id="g" gradientUnits="userSpaceOnUse" x1="178.3177" x2="333.6823" y1="59.9218" y2="215.2864"><stop offset="0" stop-color="#a33b1a"/><stop offset="1" stop-color="#462300"/></linearGradient><path d="m512 256c0 141.386719-114.613281 256-256 256s-256-114.613281-256-256 114.613281-256 256-256 256 114.613281 256 256zm0 0" fill="url(#a)"/><path d="m236.195312 352.382812-19.804687 72.617188h-56.113281l36.308594-72.617188zm0 0" fill="url(#c)"/><path d="m315.414062 352.382812 36.308594 72.617188h-56.113281l-19.804687-72.617188zm0 0" fill="url(#d)"/><path d="m256 327.628906 39.609375-14.855468-19.804687-39.609376-19.804688-11.882812v-7.921875l-4.949219 4.953125-8.253906-4.953125v13.203125l-6.601563 6.601562-19.804687 39.609376 26.40625 13.203124v6.601563l7.542969-2.828125 5.660156 2.828125zm0 0" fill="url(#e)"/><path d="m256 312.773438h-39.609375v112.226562h79.21875v-112.226562zm0 0" fill="url(#f)"/><path d="m256 87h-104.761719l84.957031 186.164062h39.609376l84.957031-186.164062zm0 0" fill="url(#g)"/></svg>