<svg height="512pt" viewBox="0 0 512 512" width="512pt" xmlns="http://www.w3.org/2000/svg" xmlns:xlink="http://www.w3.org/1999/xlink"><linearGradient id="a" gradientUnits="userSpaceOnUse" x1="74.9807" x2="437.0193" y1="74.9807" y2="437.0193"><stop offset="0" stop-color="#186c95"/><stop offset="1" stop-color="#093f61"/></linearGradient><linearGradient id="b"><stop offset="0" stop-color="#ff8b2a"/><stop offset="1" stop-color="#ff5233"/></linearGradient><linearGradient id="c" gradientUnits="userSpaceOnUse" x1="240.1976" x2="271.8024" xlink:href="#b" y1="91.4886" y2="123.0934"/><linearGradient id="d"><stop offset="0" stop-color="#ffd567"/><stop offset="1" stop-color="#ffa725"/></linearGradient><linearGradient id="e" gradientUnits="userSpaceOnUse" x1="274.8082" x2="384.5934" xlink:href="#d" y1="160.6749" y2="270.46"/><linearGradient id="f" gradientUnits="userSpaceOnUse" x1="128.8921" x2="235.7064" xlink:href="#d" y1="162.1603" y2="268.9746"/><linearGradient id="g" gradientUnits="userSpaceOnUse" x1="68.2008" x2="123.0934" xlink:href="#b" y1="176.3226" y2="231.2152"/><linearGradient id="h"><stop offset="0" stop-color="#71d1fe"/><stop offset="1" stop-color="#2196dc"/></linearGradient><linearGradient id="i" gradientUnits="userSpaceOnUse" x1="219.8577" x2="292.1423" xlink:href="#h" y1="130.9391" y2="203.2237"/><linearGradient id="j" gradientUnits="userSpaceOnUse" x1="388.9066" x2="443.7992" xlink:href="#b" y1="176.3226" y2="231.2152"/><linearGradient id="k" gradientUnits="userSpaceOnUse" x1="192.3393" x2="319.6607" xlink:href="#h" y1="315.4361" y2="442.7575"/><path d="m512 256c0 141.386719-114.613281 256-256 256s-256-114.613281-256-256 114.613281-256 256-256 256 114.613281 256 256zm0 0" fill="url(#a)"/><path d="m246.019531 85.667969h19.960938v43.246093h-19.960938zm0 0" fill="url(#c)"/><path d="m128.25 238.699219h19.960938v29.941406h-19.960938zm0 0" fill="#ffc320"/><path d="m363.789062 238.699219h19.960938v29.941406h-19.960938zm0 0" fill="#ffa725"/><path d="m419.679688 198.730469-13.308594 49.949219h-150.371094v-69.195313h59.882812zm0 0" fill="url(#e)"/><path d="m256 179.484375v69.195313h-150.371094l-13.308594-49.949219 103.796876-19.246094zm0 0" fill="url(#f)"/><path d="m85.667969 158.855469h19.960937v89.824219h-19.960937zm0 0" fill="url(#g)"/><path d="m148.210938 291.929688h19.960937v19.960937h-19.960937zm0 0" fill="#97e4fd"/><path d="m108.289062 291.929688h19.960938v19.960937h-19.960938zm0 0" fill="#97e4fd"/><path d="m343.828125 291.929688h19.960937v19.960937h-19.960937zm0 0" fill="#71d1fe"/><path d="m383.75 291.929688h19.960938v19.960937h-19.960938zm0 0" fill="#71d1fe"/><path d="m256 196.59375 59.882812-17.109375c0-33.070313-26.8125-59.882813-59.882812-59.882813s-59.882812 26.8125-59.882812 59.882813l38.386718 15.355469-2.457031 8.597656 13.972656-3.992188 9.980469 3.992188zm0 0" fill="url(#i)"/><path d="m256 179.484375h-59.882812v29.273437c0 33.070313 26.8125 59.882813 59.882812 59.882813s59.882812-26.8125 59.882812-59.882813v-29.273437zm0 0" fill="#ffe7ad"/><path d="m406.371094 158.855469h19.960937v89.824219h-19.960937zm0 0" fill="url(#j)"/><path d="m318.285156 331.898438c-10.847656-23.566407-34.6875-39.96875-62.285156-39.96875s-51.4375 16.402343-62.285156 39.96875c-25.25.917968-45.503906 21.730468-45.503906 47.195312 0 26.046875 21.191406 47.242188 47.242187 47.242188h60.546875 60.546875c26.050781 0 47.242187-21.195313 47.242187-47.242188 0-25.464844-20.253906-46.277344-45.503906-47.195312zm0 0" fill="url(#k)"/></svg>