<svg height="512pt" viewBox="0 0 512 512" width="512pt" xmlns="http://www.w3.org/2000/svg" xmlns:xlink="http://www.w3.org/1999/xlink"><linearGradient id="a" gradientUnits="userSpaceOnUse" x1="74.9807" x2="437.0193" y1="74.9807" y2="437.0193"><stop offset="0" stop-color="#ff8b2a"/><stop offset="1" stop-color="#ff5233"/></linearGradient><linearGradient id="b" gradientUnits="userSpaceOnUse" x1="211.2578" x2="300.7422" y1="219.3438" y2="308.8281"><stop offset="0" stop-color="#fff"/><stop offset="1" stop-color="#97e4fd"/></linearGradient><linearGradient id="c" gradientUnits="userSpaceOnUse" x1="201.2174" x2="310.7826" y1="116.4559" y2="226.0211"><stop offset="0" stop-color="#bcf7fc"/><stop offset="1" stop-color="#71d1fe"/></linearGradient><linearGradient id="d" gradientUnits="userSpaceOnUse" x1="181.9847" x2="330.0153" y1="68.2425" y2="216.2731"><stop offset="0" stop-color="#71d1fe"/><stop offset="1" stop-color="#2196dc"/></linearGradient><linearGradient id="e"><stop offset="0" stop-color="#75c231"/><stop offset="1" stop-color="#317645"/></linearGradient><linearGradient id="f" gradientUnits="userSpaceOnUse" x1="126.2207" x2="203.3066" xlink:href="#e" y1="304.9199" y2="382.0059"/><linearGradient id="g" gradientUnits="userSpaceOnUse" x1="299.2598" x2="396.5605" xlink:href="#e" y1="294.1387" y2="391.4395"/><linearGradient id="h" gradientUnits="userSpaceOnUse" x1="205.9683" x2="306.0317" y1="338.9146" y2="438.978"><stop offset="0" stop-color="#186c95"/><stop offset="1" stop-color="#093f61"/></linearGradient><path d="m512 256c0 141.386719-114.613281 256-256 256s-256-114.613281-256-256 114.613281-256 256-256 256 114.613281 256 256zm0 0" fill="url(#a)"/><path d="m256 198.859375h-24.257812v130.453125h48.515624v-130.453125zm0 0" fill="url(#b)"/><path d="m256 145.074219v-5.511719l-11.941406 3.070312-15.011719-3.070312 2.265625 6.347656-80.15625 20.605469c3.757812 18.429687 20.09375 32.34375 39.617188 32.34375h18.097656c3.335937 9.414063 12.328125 16.171875 22.871094 16.171875h48.515624c10.542969 0 19.535157-6.757812 22.871094-16.171875h18.097656c19.523438 0 35.859376-13.914063 39.617188-32.34375zm0 0" fill="url(#c)"/><path d="m369.742188 118h-227.484376c-13.375 0-24.257812 10.882812-24.257812 24.257812s10.882812 24.257813 24.257812 24.257813h227.484376c13.375 0 24.257812-10.882813 24.257812-24.257813s-10.882812-24.257812-24.257812-24.257812zm0 0" fill="url(#d)"/><path d="m231.742188 313.140625v40.429687l-70.753907 40.429688h-42.988281v-80.859375zm0 0" fill="url(#f)"/><path d="m394 313.140625v80.859375h-42.988281l-70.753907-43.125v-37.734375zm0 0" fill="url(#g)"/><path d="m351.011719 394-70.753907-80.859375h-16.171874l-9.800782 17.214844-6.371094-17.214844h-16.171874l-70.753907 80.859375h86.925781l5.921876-16.167969 10.25 16.167969zm0 0" fill="url(#h)"/><g fill="#fff"><path d="m247.914062 313.140625h16.171876v32.34375h-16.171876zm0 0"/><path d="m247.914062 361.65625h16.171876v32.34375h-16.171876zm0 0"/></g></svg>