<svg height="512pt" viewBox="0 0 512 512" width="512pt" xmlns="http://www.w3.org/2000/svg" xmlns:xlink="http://www.w3.org/1999/xlink"><linearGradient id="a" gradientUnits="userSpaceOnUse" x1="74.9807" x2="437.0193" y1="74.9807" y2="437.0193"><stop offset="0" stop-color="#186c95"/><stop offset="1" stop-color="#093f61"/></linearGradient><linearGradient id="b" gradientUnits="userSpaceOnUse" x1="211.2256" x2="300.71" y1="219.3438" y2="308.8281"><stop offset="0" stop-color="#fff"/><stop offset="1" stop-color="#97e4fd"/></linearGradient><linearGradient id="c" gradientUnits="userSpaceOnUse" x1="201.1852" x2="310.7504" y1="116.4559" y2="226.0211"><stop offset="0" stop-color="#bcf7fc"/><stop offset="1" stop-color="#71d1fe"/></linearGradient><linearGradient id="d"><stop offset="0" stop-color="#71d1fe"/><stop offset="1" stop-color="#2196dc"/></linearGradient><linearGradient id="e" gradientUnits="userSpaceOnUse" x1="117.9678" x2="393.9678" xlink:href="#d" y1="142.2578" y2="142.2578"/><linearGradient id="f" gradientUnits="userSpaceOnUse" x1="174.3519" x2="337.4328" xlink:href="#d" y1="246.468" y2="409.5489"/><linearGradient id="g" gradientUnits="userSpaceOnUse" x1="176.6647" x2="335.12" y1="294.317" y2="452.7723"><stop offset="0" stop-color="#2196dc"/><stop offset="1" stop-color="#135772"/></linearGradient><path d="m512 256c0 141.386719-114.613281 256-256 256s-256-114.613281-256-256 114.613281-256 256-256 256 114.613281 256 256zm0 0" fill="url(#a)"/><path d="m255.96875 198.859375h-24.257812v130.453125h48.515624v-130.453125zm0 0" fill="url(#b)"/><path d="m255.96875 145.074219v-5.511719l-11.941406 3.070312-15.011719-3.070312 2.265625 6.347656-80.15625 20.605469c3.757812 18.429687 20.09375 32.34375 39.617188 32.34375h18.097656c3.335937 9.414063 12.328125 16.171875 22.871094 16.171875h48.515624c10.542969 0 19.535157-6.757812 22.875-16.171875h18.09375c19.527344 0 35.859376-13.914063 39.617188-32.34375zm0 0" fill="url(#c)"/><path d="m369.710938 118h-227.484376c-13.375 0-24.257812 10.882812-24.257812 24.257812s10.882812 24.257813 24.257812 24.257813h227.484376c13.375 0 24.257812-10.882813 24.257812-24.257813s-10.882812-24.257812-24.257812-24.257812zm0 0" fill="url(#e)"/><path d="m393.890625 302.925781c-10.363281 0-19.921875-3.445312-27.597656-9.25-7.675781 5.804688-17.234375 9.25-27.601563 9.25-10.367187 0-19.921875-3.445312-27.597656-9.25-7.679688 5.804688-17.234375 9.25-27.601562 9.25-10.367188 0-19.925782-3.445312-27.601563-9.25-7.675781 5.804688-17.234375 9.25-27.597656 9.25-10.367188 0-19.925781-3.445312-27.601563-9.25-7.675781 5.804688-17.234375 9.25-27.597656 9.25-10.367188 0-19.925781-3.445312-27.601562-9.25-7.675782 5.804688-17.234376 9.25-27.601563 9.25v50.164063l107.648437 18.011718-1.992187 5.078126 17.867187-2.421876 14.476563 2.421876v-4.382813l138-18.707031zm0 0" fill="url(#f)"/><path d="m366.292969 343.839844c-7.675781 5.800781-17.234375 9.25-27.601563 9.25-10.367187 0-19.921875-3.449219-27.597656-9.25-7.679688 5.800781-17.234375 9.25-27.601562 9.25-10.367188 0-19.925782-3.449219-27.601563-9.25-7.675781 5.800781-17.234375 9.25-27.597656 9.25-10.367188 0-19.925781-3.449219-27.601563-9.25-7.675781 5.800781-17.234375 9.25-27.597656 9.25-10.367188 0-19.925781-3.449219-27.601562-9.25-7.675782 5.800781-17.234376 9.25-27.601563 9.25v40.910156h276v-40.910156c-10.363281 0-19.921875-3.445313-27.597656-9.25zm0 0" fill="url(#g)"/></svg>