<svg height="512pt" viewBox="0 0 512 512" width="512pt" xmlns="http://www.w3.org/2000/svg" xmlns:xlink="http://www.w3.org/1999/xlink"><linearGradient id="a" gradientUnits="userSpaceOnUse" x1="74.9807" x2="437.0193" y1="74.9807" y2="437.0193"><stop offset="0" stop-color="#ffd567"/><stop offset="1" stop-color="#ffa725"/></linearGradient><linearGradient id="b"><stop offset="0" stop-color="#5da938"/><stop offset="1" stop-color="#205c4a"/></linearGradient><linearGradient id="c" gradientUnits="userSpaceOnUse" x1="301.3065" x2="362.7596" xlink:href="#b" y1="170.2639" y2="231.717"/><linearGradient id="d" gradientUnits="userSpaceOnUse" x1="160.0469" x2="199.8871" xlink:href="#b" y1="181.0703" y2="220.9105"/><linearGradient id="e" gradientUnits="userSpaceOnUse" x1="80.8573" x2="211.7443" xlink:href="#b" y1="169.3686" y2="300.2557"/><linearGradient id="f"><stop offset="0" stop-color="#75c231"/><stop offset="1" stop-color="#317645"/></linearGradient><linearGradient id="g" gradientUnits="userSpaceOnUse" x1="83.0367" x2="201.479" xlink:href="#f" y1="175.9068" y2="294.3492"/><linearGradient id="h" gradientUnits="userSpaceOnUse" x1="300.2557" x2="423.0568" xlink:href="#b" y1="177.4546" y2="300.2557"/><linearGradient id="i" gradientUnits="userSpaceOnUse" x1="310.521" x2="428.9633" xlink:href="#f" y1="175.9068" y2="294.3492"/><linearGradient id="j"><stop offset="0" stop-color="#ff8b2a"/><stop offset="1" stop-color="#ff5233"/></linearGradient><linearGradient id="k" gradientUnits="userSpaceOnUse" x1="170.8281" x2="341.1719" xlink:href="#j" y1="276.4844" y2="446.8281"/><linearGradient id="l"><stop offset="0" stop-color="#fff3d6"/><stop offset="1" stop-color="#ffbe9f"/></linearGradient><linearGradient id="m" gradientUnits="userSpaceOnUse" x1="197.6694" x2="314.3307" xlink:href="#l" y1="243.266" y2="359.9272"/><linearGradient id="n"><stop offset="0" stop-color="#a33b1a"/><stop offset="1" stop-color="#462300"/></linearGradient><linearGradient id="o" gradientUnits="userSpaceOnUse" x1="245.286" x2="266.7137" xlink:href="#n" y1="289.085" y2="310.5127"/><linearGradient id="p" gradientUnits="userSpaceOnUse" x1="278.2364" x2="295.7559" xlink:href="#n" y1="328.6387" y2="346.1582"/><linearGradient id="q" gradientUnits="userSpaceOnUse" x1="216.2442" x2="233.7637" xlink:href="#n" y1="328.6387" y2="346.1582"/><linearGradient id="r" gradientUnits="userSpaceOnUse" x1="208.1781" x2="231.0486" xlink:href="#n" y1="275.0217" y2="297.8922"/><linearGradient id="s" gradientUnits="userSpaceOnUse" x1="280.9515" x2="303.822" xlink:href="#n" y1="275.0217" y2="297.8922"/><linearGradient id="t" gradientUnits="userSpaceOnUse" x1="239.8282" x2="272.1719" xlink:href="#l" y1="321.2266" y2="353.5703"/><linearGradient id="u" gradientUnits="userSpaceOnUse" x1="215.5703" x2="296.4297" xlink:href="#j" y1="158.4297" y2="158.4297"/><path d="m512 256c0 141.386719-114.613281 256-256 256s-256-114.613281-256-256 114.613281-256 256-256 256 114.613281 256 256zm0 0" fill="url(#a)"/><path d="m345.484375 240.90625 16.171875-8.085938-16.171875-8.085937c-8.917969 0-16.171875-7.253906-16.171875-16.171875v-50.132812h-16.171875v50.132812c0 17.835938 14.507813 32.34375 32.34375 32.34375zm0 0" fill="url(#c)"/><path d="m166.515625 240.90625-16.171875-8.085938 16.171875-8.085937c8.917969 0 16.171875-7.253906 16.171875-16.171875v-50.132812h16.171875v50.132812c0 17.835938-14.507813 32.34375-32.34375 32.34375zm0 0" fill="url(#d)"/><path d="m166.515625 345.484375-48.515625-16.171875v-187.054688c0-13.375 10.882812-24.257812 24.257812-24.257812s24.257813 10.882812 24.257813 24.257812zm0 0" fill="url(#e)"/><path d="m150.34375 345.484375h-16.171875v-203.226563c0-13.375 3.628906-24.257812 8.085937-24.257812 4.460938 0 8.085938 10.882812 8.085938 24.257812zm0 0" fill="url(#g)"/><path d="m394 329.3125-48.515625 32.34375v-219.398438c0-13.375 10.882813-24.257812 24.257813-24.257812s24.257812 10.882812 24.257812 24.257812zm0 0" fill="url(#h)"/><path d="m377.828125 345.484375h-16.171875v-203.226563c0-13.375 3.625-24.257812 8.085938-24.257812 4.457031 0 8.085937 10.882812 8.085937 24.257812zm0 0" fill="url(#i)"/><path d="m328.773438 329.3125-72.773438-20.792969v-11.550781l-15.820312 7.03125-24.609376-7.03125 6.316407 15.160156-38.660157 17.183594h-65.226562v64.6875h276v-64.6875zm0 0" fill="url(#k)"/><path d="m256 215.03125c-40.128906 0-72.773438 32.644531-72.773438 72.773438v41.507812h16.171876v32.34375h113.203124v-32.34375h16.171876v-41.507812c0-40.128907-32.644532-72.773438-72.773438-72.773438zm0 0" fill="url(#m)"/><path d="m247.914062 286.457031h16.171876v26.683594h-16.171876zm0 0" fill="url(#o)"/><path d="m269.476562 337.398438 10.78125 8.085937h16.171876v-16.171875h-16.171876zm0 0" fill="url(#p)"/><path d="m215.570312 329.3125v16.171875h16.171876l10.78125-8.085937-10.78125-8.085938zm0 0" fill="url(#q)"/><path d="m235.785156 286.457031c0 8.929688-7.242187 16.171875-16.171875 16.171875-8.933593 0-16.171875-7.242187-16.171875-16.171875 0-8.929687 7.238282-16.171875 16.171875-16.171875 8.929688 0 16.171875 7.242188 16.171875 16.171875zm0 0" fill="url(#r)"/><path d="m308.558594 286.457031c0 8.929688-7.238282 16.171875-16.171875 16.171875-8.929688 0-16.171875-7.242187-16.171875-16.171875 0-8.929687 7.242187-16.171875 16.171875-16.171875 8.933593 0 16.171875 7.242188 16.171875 16.171875zm0 0" fill="url(#s)"/><path d="m256 329.3125h-24.257812v16.171875h48.515624v-16.171875zm0 0" fill="url(#t)"/><path d="m256 118c-22.289062 0-40.429688 18.132812-40.429688 40.429688 0 22.296874 18.140626 40.429687 40.429688 40.429687s40.429688-18.132813 40.429688-40.429687c0-22.296876-18.140626-40.429688-40.429688-40.429688zm0 0" fill="url(#u)"/></svg>