<svg height="512pt" viewBox="0 0 512 512" width="512pt" xmlns="http://www.w3.org/2000/svg" xmlns:xlink="http://www.w3.org/1999/xlink"><linearGradient id="a" gradientUnits="userSpaceOnUse" x1="74.9807" x2="437.0193" y1="74.9807" y2="437.0193"><stop offset="0" stop-color="#186c95"/><stop offset="1" stop-color="#093f61"/></linearGradient><linearGradient id="b" gradientUnits="userSpaceOnUse" x1="143.5381" x2="339.4873" y1="252.5635" y2="448.5127"><stop offset="0" stop-color="#fff3d6"/><stop offset="1" stop-color="#ffbe9f"/></linearGradient><linearGradient id="c" gradientUnits="userSpaceOnUse" x1="201.7081" x2="310.2919" y1="140.5245" y2="249.1084"><stop offset="0" stop-color="#ff6e2e"/><stop offset="1" stop-color="#ff364e"/></linearGradient><linearGradient id="d" gradientUnits="userSpaceOnUse" x1="297.7437" x2="381.231" y1="265.3325" y2="348.8198"><stop offset="0" stop-color="#ff6c84"/><stop offset="1" stop-color="#ff1a69"/></linearGradient><path d="m512 256c0 141.386719-114.613281 256-256 256s-256-114.613281-256-256 114.613281-256 256-256 256 114.613281 256 256zm0 0" fill="url(#a)"/><path d="m256 307.074219c-34.5-14.484375-69-28.972657-138-28.972657v115.898438h276v-57.949219zm0 0" fill="url(#b)"/><path d="m256 118c-42.351562 0-76.816406 34.453125-76.816406 76.816406 0 42.363282 34.464844 76.816406 76.816406 76.816406s76.816406-34.457031 76.816406-76.816406c0-42.363281-34.464844-76.816406-76.816406-76.816406zm0 0" fill="url(#c)"/><path d="m394 278.101562v57.949219c-69 0-103.5-14.488281-138-28.976562 34.5-14.484375 69-28.972657 138-28.972657zm0 0" fill="url(#d)"/></svg>