<svg height="512pt" viewBox="0 0 512 512" width="512pt" xmlns="http://www.w3.org/2000/svg" xmlns:xlink="http://www.w3.org/1999/xlink"><linearGradient id="a" gradientUnits="userSpaceOnUse" x1="74.9807" x2="437.0193" y1="74.9807" y2="437.0193"><stop offset="0" stop-color="#75c231"/><stop offset="1" stop-color="#317645"/></linearGradient><linearGradient id="b" gradientUnits="userSpaceOnUse" x1="271.498" x2="383.96" y1="291.5781" y2="404.04"><stop offset="0" stop-color="#fff3d6"/><stop offset="1" stop-color="#ffbe9f"/></linearGradient><linearGradient id="c"><stop offset="0" stop-color="#ff6c84"/><stop offset="1" stop-color="#ff1a69"/></linearGradient><linearGradient id="d" gradientUnits="userSpaceOnUse" x1="297.7437" x2="381.231" xlink:href="#c" y1="265.3325" y2="348.8198"/><linearGradient id="e" gradientUnits="userSpaceOnUse" x1="93.4727" x2="320.418" xlink:href="#c" y1="142.5273" y2="369.4727"/><linearGradient id="f" gradientUnits="userSpaceOnUse" x1="109.6445" x2="304.2461" y1="158.6992" y2="353.3008"><stop offset="0" stop-color="#ffd567"/><stop offset="1" stop-color="#ffa725"/></linearGradient><linearGradient id="g" gradientUnits="userSpaceOnUse" x1="324.9955" x2="382.1451" xlink:href="#c" y1="129.8549" y2="187.0045"/><linearGradient id="h" gradientUnits="userSpaceOnUse" x1="158.8592" x2="255.0314" y1="214.6017" y2="310.774"><stop offset="0" stop-color="#ff6e2e"/><stop offset="1" stop-color="#ff364e"/></linearGradient><path d="m512 256c0 141.386719-114.613281 256-256 256s-256-114.613281-256-256 114.613281-256 256-256 256 114.613281 256 256zm0 0" fill="url(#a)"/><path d="m394 336.050781v57.949219h-98.109375l-39.890625-86.925781zm0 0" fill="url(#b)"/><path d="m394 278.101562v57.949219c-69 0-103.5-14.488281-138-28.976562 34.5-14.484375 69-28.972657 138-28.972657zm0 0" fill="url(#d)"/><path d="m206.945312 118h-88.945312v276h177.890625v-276zm0 0" fill="url(#e)"/><path d="m206.945312 134.171875h-72.773437v243.65625h145.546875v-243.65625zm0 0" fill="url(#f)"/><path d="m353.570312 198.859375c-22.292968 0-40.429687-18.136719-40.429687-40.429687 0-22.292969 18.136719-40.429688 40.429687-40.429688 22.292969 0 40.429688 18.136719 40.429688 40.429688 0 22.292968-18.136719 40.429687-40.429688 40.429687zm0 0" fill="url(#g)"/><path d="m239.289062 276.980469v-94.292969c0-17.867188-14.480468-32.34375-32.34375-32.34375-17.867187 0-32.34375 14.476562-32.34375 32.34375v94.292969c-9.925781 8.882812-16.171874 21.792969-16.171874 36.160156 0 26.796875 21.71875 48.515625 48.515624 48.515625 26.796876 0 48.515626-21.71875 48.515626-48.515625 0-14.367187-6.246094-27.277344-16.171876-36.160156zm0 0" fill="#fff"/><path d="m223.117188 285.148438v-102.460938h-32.34375v102.460938c-9.65625 5.601562-16.171876 16.046874-16.171876 27.992187 0 17.835937 14.511719 32.34375 32.34375 32.34375 17.832032 0 32.34375-14.507813 32.34375-32.34375 0-11.945313-6.515624-22.390625-16.171874-27.992187zm0 0" fill="url(#h)"/></svg>