<svg height="512pt" viewBox="0 0 512 512" width="512pt" xmlns="http://www.w3.org/2000/svg" xmlns:xlink="http://www.w3.org/1999/xlink"><linearGradient id="a" gradientUnits="userSpaceOnUse" x1="74.9807" x2="437.0193" y1="74.9807" y2="437.0193"><stop offset="0" stop-color="#186c95"/><stop offset="1" stop-color="#093f61"/></linearGradient><linearGradient id="b" gradientUnits="userSpaceOnUse" x1="130.9066" x2="381.0939" y1="143.9335" y2="394.1207"><stop offset="0" stop-color="#ff6e2e"/><stop offset="1" stop-color="#ff364e"/></linearGradient><linearGradient id="c" gradientUnits="userSpaceOnUse" x1="166.9734" x2="345.0271" y1="187.1626" y2="365.2163"><stop offset="0" stop-color="#ffd567"/><stop offset="1" stop-color="#ffa725"/></linearGradient><linearGradient id="d" gradientUnits="userSpaceOnUse" x1="214.312" x2="297.6885" y1="282.4524" y2="365.8289"><stop offset="0" stop-color="#fff3d6"/><stop offset="1" stop-color="#ffbe9f"/></linearGradient><path d="m512 256c0 141.386719-114.613281 256-256 256s-256-114.613281-256-256 114.613281-256 256-256 256 114.613281 256 256zm0 0" fill="url(#a)"/><path d="m395.957031 207.328125-68.546875-117.078125-25.945312 15.226562-45.464844-45.476562-45.464844 45.476562-25.945312-15.226562-68.539063 117.054688c-37.507812 63.722656-27.15625 144.789062 25.175781 197.132812 30.65625 30.671875 71.417969 47.5625 114.773438 47.5625s84.117188-16.890625 114.773438-47.5625c52.332031-52.351562 62.683593-133.417969 25.183593-197.109375zm0 0" fill="url(#b)"/><path d="m356.375 230.636719-45.371094-77.5-16.929687 9.929687-38.074219-38.085937-38.074219 38.089843-16.929687-9.929687-45.355469 77.472656c-26.886719 45.675781-19.460937 103.800781 18.078125 141.351563 21.972656 21.988281 51.195312 34.097656 82.28125 34.097656s60.308594-12.109375 82.28125-34.097656c37.539062-37.550782 44.964844-95.675782 18.09375-141.328125zm0 0" fill="url(#c)"/><path d="m297.6875 282.453125-41.6875-41.679687-41.6875 41.679687c-22.984375 22.992187-22.984375 60.390625 0 83.375 11.140625 11.132813 25.9375 17.265625 41.6875 17.265625s30.546875-6.132812 41.6875-17.265625c22.984375-22.984375 22.984375-60.382813 0-83.375zm0 0" fill="url(#d)"/></svg>