<svg height="512pt" viewBox="0 0 512 512" width="512pt" xmlns="http://www.w3.org/2000/svg" xmlns:xlink="http://www.w3.org/1999/xlink"><linearGradient id="a"><stop offset="0" stop-color="#ffd567"/><stop offset="1" stop-color="#ffa725"/></linearGradient><linearGradient id="b" gradientUnits="userSpaceOnUse" x1="74.9807" x2="437.0193" xlink:href="#a" y1="74.9807" y2="437.0193"/><linearGradient id="c" gradientUnits="userSpaceOnUse" x1="136.9298" x2="375.0702" y1="137.9104" y2="376.0508"><stop offset="0" stop-color="#ff8b2a"/><stop offset="1" stop-color="#ff5233"/></linearGradient><linearGradient id="d" gradientUnits="userSpaceOnUse" x1="166.9734" x2="345.0271" xlink:href="#a" y1="187.1625" y2="365.2163"/><linearGradient id="e" gradientUnits="userSpaceOnUse" x1="173.0031" x2="338.9975" y1="270.2225" y2="436.2169"><stop offset="0" stop-color="#a33b1a"/><stop offset="1" stop-color="#462300"/></linearGradient><linearGradient id="f" gradientUnits="userSpaceOnUse" x1="173.667" x2="338.3336" y1="251.235" y2="251.235"><stop offset="0" stop-color="#fff3d6"/><stop offset="1" stop-color="#ffbe9f"/></linearGradient><path d="m512 256c0 141.386719-114.613281 256-256 256s-256-114.613281-256-256 114.613281-256 256-256 256 114.613281 256 256zm0 0" fill="url(#b)"/><path d="m395.957031 207.328125-68.546875-117.078125-25.945312 15.226562-45.464844-45.476562-45.464844 45.476562-25.945312-15.226562-68.539063 117.054688c-24.429687 41.507812-28.558593 90.375-14 133.867187h307.898438c14.558593-43.496094 10.433593-92.355469-13.992188-133.84375zm0 0" fill="url(#c)"/><path d="m356.375 230.636719-45.371094-77.5-16.929687 9.929687-38.074219-38.085937-38.074219 38.089843-16.929687-9.929687-45.355469 77.472656c-26.886719 45.675781-19.460937 103.800781 18.078125 141.351563 21.972656 21.988281 51.195312 34.097656 82.28125 34.097656 31.082031 0 60.308594-12.109375 82.28125-34.097656 37.539062-37.550782 44.964844-95.675782 18.09375-141.328125zm0 0" fill="url(#d)"/><path d="m338.335938 271.3125-82.335938-10.453125v-4.859375l-15.53125 2.890625-22.75-2.890625 1.34375 6.871094-45.394531 8.441406-71.613281 69.855469c7.792968 23.28125 20.925781 45.023437 39.171874 63.269531 30.65625 30.671875 71.417969 47.5625 114.773438 47.5625s84.117188-16.890625 114.773438-47.5625c18.246093-18.25 31.378906-39.992188 39.167968-63.269531zm0 0" fill="url(#e)"/><path d="m256 191-82.332031 80.3125 41.167969 40.160156 41.164062-40.160156 41.167969 40.160156 41.167969-40.160156zm0 0" fill="url(#f)"/></svg>