<svg height="512pt" viewBox="0 0 512 512" width="512pt" xmlns="http://www.w3.org/2000/svg" xmlns:xlink="http://www.w3.org/1999/xlink"><linearGradient id="a"><stop offset="0" stop-color="#ffd567"/><stop offset="1" stop-color="#ffa725"/></linearGradient><linearGradient id="b" gradientUnits="userSpaceOnUse" x1="74.9807" x2="437.0193" xlink:href="#a" y1="74.9807" y2="437.0193"/><linearGradient id="c"><stop offset="0" stop-color="#ff8b2a"/><stop offset="1" stop-color="#ff5233"/></linearGradient><linearGradient id="d" gradientUnits="userSpaceOnUse" x1="130.9066" x2="381.0938" xlink:href="#c" y1="143.9335" y2="394.1207"/><linearGradient id="e" gradientUnits="userSpaceOnUse" x1="139.5777" x2="372.4261" xlink:href="#a" y1="265.5205" y2="265.5205"/><linearGradient id="f" gradientUnits="userSpaceOnUse" x1="185.8159" x2="326.1846" xlink:href="#c" y1="231.7081" y2="372.0768"/><linearGradient id="g" gradientUnits="userSpaceOnUse" x1="203.8535" x2="308.147" y1="361.9165" y2="466.21"><stop offset="0" stop-color="#a33b1a"/><stop offset="1" stop-color="#462300"/></linearGradient><path d="m512 256c0 141.386719-114.613281 256-256 256s-256-114.613281-256-256 114.613281-256 256-256 256 114.613281 256 256zm0 0" fill="url(#b)"/><path d="m395.957031 207.328125-68.546875-117.078125-25.945312 15.226562-45.464844-45.476562-45.464844 45.476562-25.945312-15.226562-68.539063 117.054688c-37.507812 63.722656-27.15625 144.789062 25.175781 197.132812 3.375 3.378906 6.871094 6.589844 10.484376 9.628906h104.289062v-.003906h104.292969c3.609375-3.039062 7.105469-6.246094 10.480469-9.625 52.332031-52.351562 62.683593-133.417969 25.183593-197.109375zm0 0" fill="url(#d)"/><path d="m356.375 230.636719-45.371094-77.5-16.929687 9.929687-38.074219-38.085937-38.074219 38.089843-16.929687-9.929687-45.355469 77.472656c-26.886719 45.675781-19.460937 103.800781 18.078125 141.351563 21.972656 21.988281 51.195312 34.097656 82.28125 34.097656 31.082031 0 60.308594-12.109375 82.28125-34.097656 37.539062-37.550782 44.964844-95.675782 18.09375-141.328125zm0 0" fill="url(#e)"/><path d="m290.453125 331.195312-22.96875-11.484374 22.96875-11.484376c12.664063 0 22.96875-10.304687 22.96875-22.96875v-48.234374h22.96875v48.234374c0 25.328126-20.609375 45.9375-45.9375 45.9375zm0 0" fill="#a33b1a"/><path d="m221.546875 331.195312 22.96875-11.484374-22.96875-11.484376c-12.664063 0-22.96875-10.304687-22.96875-22.96875v-48.234374h-22.96875v48.234374c0 25.328126 20.609375 45.9375 45.9375 45.9375zm0 0" fill="#d14626"/><path d="m256 175.769531c-18.996094 0-34.453125 15.457031-34.453125 34.453125v197.585938h68.90625v-197.585938c0-18.996094-15.457031-34.453125-34.453125-34.453125zm0 0" fill="url(#f)"/><path d="m256 379.265625c-39.140625 0-75.253906 12.953125-104.292969 34.796875 29.179688 24.5625 65.707031 37.9375 104.292969 37.9375 38.589844 0 75.113281-13.375 104.292969-37.9375-29.039063-21.84375-65.152344-34.796875-104.292969-34.796875zm0 0" fill="url(#g)"/></svg>