<svg height="512pt" viewBox="0 0 512 512" width="512pt" xmlns="http://www.w3.org/2000/svg" xmlns:xlink="http://www.w3.org/1999/xlink"><linearGradient id="a" gradientUnits="userSpaceOnUse" x1="74.9807" x2="437.0193" y1="74.9807" y2="437.0193"><stop offset="0" stop-color="#186c95"/><stop offset="1" stop-color="#093f61"/></linearGradient><linearGradient id="b"><stop offset="0" stop-color="#ffd567"/><stop offset="1" stop-color="#ffa725"/></linearGradient><linearGradient id="c" gradientUnits="userSpaceOnUse" x1="191.043" x2="320.957" xlink:href="#b" y1="61.1289" y2="191.043"/><linearGradient id="d" gradientUnits="userSpaceOnUse" x1="227.6992" x2="321.2266" xlink:href="#b" y1="273.5195" y2="367.0469"/><linearGradient id="e"><stop offset="0" stop-color="#ff6e2e"/><stop offset="1" stop-color="#ff364e"/></linearGradient><linearGradient id="f" gradientUnits="userSpaceOnUse" x1="211.9316" x2="300.0684" xlink:href="#e" y1="142.6621" y2="230.7988"/><linearGradient id="g" gradientUnits="userSpaceOnUse" x1="252.2037" x2="357.5904" y1="191.8745" y2="297.2612"><stop offset="0" stop-color="#a33b1a"/><stop offset="1" stop-color="#462300"/></linearGradient><linearGradient id="h" gradientUnits="userSpaceOnUse" x1="269.6113" x2="357.7534" xlink:href="#e" y1="225.6777" y2="313.8199"/><linearGradient id="i" gradientUnits="userSpaceOnUse" x1="148.612" x2="271.5182" y1="162.8568" y2="285.763"><stop offset="0" stop-color="#ff8b2a"/><stop offset="1" stop-color="#ff5233"/></linearGradient><linearGradient id="j" gradientUnits="userSpaceOnUse" x1="104.262" x2="149.7724" xlink:href="#e" y1="169.4724" y2="214.9828"/><path d="m512 256c0 141.386719-114.613281 256-256 256s-256-114.613281-256-256 114.613281-256 256-256 256 114.613281 256 256zm0 0" fill="url(#a)"/><path d="m247.914062 126.085938h16.171876v48.515624h-16.171876zm0 0" fill="#ffe7ad"/><path d="m256 118h-121.828125v16.171875h243.65625v-16.171875zm0 0" fill="url(#c)"/><path d="m239.828125 293.195312h16.171875v33.421876h-16.171875zm0 0" fill="#ffe7ad"/><path d="m337.398438 293.195312v25.335938h-154.710938v16.171875h170.882812v-41.507813zm0 0" fill="url(#d)"/><path d="m182.6875 377.828125h16.171875v16.171875h-16.171875zm0 0" fill="#71d1fe"/><path d="m182.6875 345.484375h16.171875v16.171875h-16.171875zm0 0" fill="#97e4fd"/><path d="m247.375 377.828125h16.171875v16.171875h-16.171875zm0 0" fill="#71d1fe"/><path d="m247.375 345.484375h16.171875v16.171875h-16.171875zm0 0" fill="#97e4fd"/><path d="m215.03125 377.828125h16.171875v16.171875h-16.171875zm0 0" fill="#97e4fd"/><path d="m215.03125 345.484375h16.171875v16.171875h-16.171875zm0 0" fill="#71d1fe"/><path d="m150.34375 377.828125h16.171875v16.171875h-16.171875zm0 0" fill="#97e4fd"/><path d="m150.34375 345.484375h16.171875v16.171875h-16.171875zm0 0" fill="#71d1fe"/><path d="m118 377.828125h16.171875v16.171875h-16.171875zm0 0" fill="#71d1fe"/><path d="m118 345.484375h16.171875v16.171875h-16.171875zm0 0" fill="#97e4fd"/><path d="m279.71875 377.828125h16.171875v16.171875h-16.171875zm0 0" fill="#97e4fd"/><path d="m279.71875 345.484375h16.171875v16.171875h-16.171875zm0 0" fill="#71d1fe"/><path d="m256 163.820312h-65.226562v45.820313h130.453124v-45.820313zm0 0" fill="url(#f)"/><path d="m394 260.851562c0-40.128906-32.644531-72.773437-72.773438-72.773437h-65.226562l-21.5625 88.945313h86.789062v-3.695313zm0 0" fill="url(#g)"/><path d="m321.226562 260.851562h72.773438c0 22.296876-18.132812 40.429688-40.429688 40.429688h-97.570312l-21.5625-40.429688zm0 0" fill="url(#h)"/><path d="m123.390625 188.078125 10.78125 42.503906 65.765625 15.144531v15.125c0 22.296876 18.140625 40.429688 40.429688 40.429688h15.632812v-113.203125zm0 0" fill="url(#i)"/><path d="m118 155.734375v71.125l16.171875 3.722656v-74.847656zm0 0" fill="url(#j)"/></svg>