<svg height="512pt" viewBox="0 0 512 512" width="512pt" xmlns="http://www.w3.org/2000/svg" xmlns:xlink="http://www.w3.org/1999/xlink"><linearGradient id="a" gradientUnits="userSpaceOnUse" x1="74.9807" x2="437.0193" y1="74.9807" y2="437.0193"><stop offset="0" stop-color="#ff6c84"/><stop offset="1" stop-color="#ff1a69"/></linearGradient><linearGradient id="b"><stop offset="0" stop-color="#2196dc"/><stop offset="1" stop-color="#135772"/></linearGradient><linearGradient id="c" gradientUnits="userSpaceOnUse" x1="358.5703" x2="421.2109" xlink:href="#b" y1="189.0547" y2="251.6953"/><linearGradient id="d" gradientUnits="userSpaceOnUse" x1="90.7891" x2="153.4297" xlink:href="#b" y1="189.0547" y2="251.6953"/><linearGradient id="e" gradientUnits="userSpaceOnUse" x1="291.625" x2="327.25" xlink:href="#b" y1="372.375" y2="408"/><linearGradient id="f" gradientUnits="userSpaceOnUse" x1="291.625" x2="327.25" y1="336.75" y2="372.375"><stop offset="0" stop-color="#a33b1a"/><stop offset="1" stop-color="#462300"/></linearGradient><linearGradient id="g"><stop offset="0" stop-color="#ff8b2a"/><stop offset="1" stop-color="#ff5233"/></linearGradient><linearGradient id="h" gradientUnits="userSpaceOnUse" x1="234.4981" x2="313.1269" xlink:href="#g" y1="181.0606" y2="259.6894"/><linearGradient id="i" gradientUnits="userSpaceOnUse" x1="305.7481" x2="384.3769" xlink:href="#g" y1="181.0606" y2="259.6894"/><linearGradient id="j"><stop offset="0" stop-color="#ffd567"/><stop offset="1" stop-color="#ffa725"/></linearGradient><linearGradient id="k" gradientUnits="userSpaceOnUse" x1="256.2334" x2="362.6416" xlink:href="#j" y1="194.9502" y2="301.3584"/><linearGradient id="l" gradientUnits="userSpaceOnUse" x1="198.8731" x2="277.5019" xlink:href="#j" y1="181.0606" y2="259.6894"/><linearGradient id="m" gradientUnits="userSpaceOnUse" x1="163.2481" x2="241.8769" xlink:href="#g" y1="181.0606" y2="259.6894"/><linearGradient id="n" gradientUnits="userSpaceOnUse" x1="127.6231" x2="206.2519" xlink:href="#j" y1="181.0606" y2="259.6894"/><linearGradient id="o"><stop offset="0" stop-color="#186c95"/><stop offset="1" stop-color="#093f61"/></linearGradient><linearGradient id="p" gradientUnits="userSpaceOnUse" x1="77.5781" x2="202.8594" xlink:href="#o" y1="157.7344" y2="283.0156"/><linearGradient id="q" gradientUnits="userSpaceOnUse" x1="309.1406" x2="434.4219" xlink:href="#o" y1="157.7344" y2="283.0156"/><path d="m512 256c0 141.386719-114.613281 256-256 256s-256-114.613281-256-256 114.613281-256 256-256 256 114.613281 256 256zm0 0" fill="url(#a)"/><path d="m408 264.90625h-36.21875v-89.0625h36.21875zm0 0" fill="url(#c)"/><path d="m104 175.84375h36.21875v89.0625h-36.21875zm0 0" fill="url(#d)"/><path d="m327.25 372.375v35.625h-35.625v-35.625l17.8125-17.8125zm0 0" fill="url(#e)"/><path d="m327.25 336.75v35.625h-35.625v-35.625l17.8125-17.8125zm0 0" fill="url(#f)"/><path d="m291.625 166.9375 17.8125 53.4375-17.8125 53.4375c0 9.839844-7.972656 17.816406-17.8125 17.816406s-17.8125-7.976562-17.8125-17.816406l-17.8125-53.4375 17.8125-53.4375c0-9.835938 7.972656-17.8125 17.8125-17.8125s17.8125 7.972656 17.8125 17.8125zm0 0" fill="url(#h)"/><path d="m362.875 166.9375 11.875 53.4375-11.875 53.4375c0 9.839844-7.972656 17.816406-17.8125 17.816406s-17.8125-7.976562-17.8125-17.816406l-17.8125-53.4375 17.8125-53.4375c0-9.835938 7.972656-17.8125 17.8125-17.8125s17.8125 7.972656 17.8125 17.8125zm0 0" fill="url(#i)"/><path d="m309.4375 149.125c-9.835938 0-17.8125 7.972656-17.8125 17.8125v169.8125h35.625v-169.8125c0-9.839844-7.972656-17.8125-17.8125-17.8125zm0 0" fill="url(#k)"/><path d="m256 166.9375v106.875c0 9.839844-7.972656 17.8125-17.8125 17.8125s-17.8125-7.972656-17.8125-17.8125l-17.8125-53.4375 17.8125-53.4375c0-9.839844 7.972656-17.8125 17.8125-17.8125s17.8125 7.972656 17.8125 17.8125zm0 0" fill="url(#l)"/><path d="m220.375 166.9375v106.875c0 9.839844-7.972656 17.8125-17.8125 17.8125s-17.8125-7.972656-17.8125-17.8125l-17.8125-53.4375 17.8125-53.4375c0-9.839844 7.972656-17.8125 17.8125-17.8125s17.8125 7.972656 17.8125 17.8125zm0 0" fill="url(#m)"/><path d="m184.75 166.9375v106.875c0 9.839844-7.972656 17.8125-17.8125 17.8125s-17.8125-7.972656-17.8125-17.8125l-11.875-53.4375 11.875-53.4375c0-9.839844 7.972656-17.8125 17.8125-17.8125s17.8125 7.972656 17.8125 17.8125zm0 0" fill="url(#n)"/><path d="m131.3125 104h17.8125v232.75h-17.8125zm0 0" fill="url(#p)"/><path d="m362.875 104h17.8125v232.75h-17.8125zm0 0" fill="url(#q)"/></svg>