<svg height="512pt" viewBox="0 0 512 512" width="512pt" xmlns="http://www.w3.org/2000/svg" xmlns:xlink="http://www.w3.org/1999/xlink"><linearGradient id="a" gradientUnits="userSpaceOnUse" x1="74.9807" x2="437.0193" y1="74.9807" y2="437.0193"><stop offset="0" stop-color="#bcf7fc"/><stop offset="1" stop-color="#71d1fe"/></linearGradient><linearGradient id="b"><stop offset="0" stop-color="#75c231"/><stop offset="1" stop-color="#317645"/></linearGradient><linearGradient id="c" gradientUnits="userSpaceOnUse" x1="277.8436" x2="383.2859" xlink:href="#b" y1="299.3446" y2="404.7869"/><linearGradient id="d" gradientUnits="userSpaceOnUse" x1="150.4228" x2="212.4477" xlink:href="#b" y1="321.0533" y2="383.0782"/><linearGradient id="e" gradientUnits="userSpaceOnUse" x1="186.9636" x2="325.0364" xlink:href="#b" y1="184.0269" y2="322.0996"/><linearGradient id="f"><stop offset="0" stop-color="#5da938"/><stop offset="1" stop-color="#205c4a"/></linearGradient><linearGradient id="g" gradientUnits="userSpaceOnUse" x1="161.8422" x2="350.1578" xlink:href="#f" y1="209.1483" y2="397.4638"/><linearGradient id="h" gradientUnits="userSpaceOnUse" x1="231.4596" x2="280.5404" xlink:href="#f" y1="179.9813" y2="229.0621"/><linearGradient id="i" gradientUnits="userSpaceOnUse" x1="199.0571" x2="312.9429" y1="277.6453" y2="391.5312"><stop offset="0" stop-color="#205c4a"/><stop offset="1" stop-color="#0e424f"/></linearGradient><linearGradient id="j" gradientUnits="userSpaceOnUse" x1="212.4479" x2="299.5521" xlink:href="#b" y1="225.9611" y2="313.0653"/><path d="m512 256c0 141.386719-114.613281 256-256 256s-256-114.613281-256-256 114.613281-256 256-256 256 114.613281 256 256zm0 0" fill="url(#a)"/><path d="m256 321.1875 54.472656 72.8125h83.601563v-40.449219zm0 0" fill="url(#c)"/><path d="m117.925781 394h83.601563l54.472656-72.8125-138.074219 32.363281zm0 0" fill="url(#d)"/><path d="m256 276.011719 138.074219-22.949219-138.074219-135.0625-138.074219 135.0625 82.894531 19.753906-4.6875 13.148438 35.265626-5.863282 24.601562 5.863282zm0 0" fill="url(#e)"/><path d="m326.652344 253.0625-70.652344 32.902344-70.652344-32.902344h-67.421875v100.488281h276.148438v-100.488281zm0 0" fill="url(#g)"/><path d="m256 180.25h-24.808594v48.542969h49.617188v-48.542969zm0 0" fill="url(#h)"/><path d="m256 275.175781h-54.472656v118.824219h108.945312v-118.824219zm0 0" fill="url(#i)"/><path d="m310.472656 253.0625-8.089844 5.394531-8.089843-5.394531h-76.585938l-8.089843 5.394531-8.089844-5.394531h-16.179688v32.902344h16.179688l8.089844-5.394532 8.089843 5.394532h76.585938l8.089843-5.394532 8.089844 5.394532h16.179688v-32.902344zm0 0" fill="url(#j)"/><path d="m294.292969 253.0625h16.179687v32.902344h-16.179687zm0 0" fill="#ffe7ad"/><path d="m201.527344 253.0625h16.179687v32.902344h-16.179687zm0 0" fill="#fff"/></svg>