<svg height="512pt" viewBox="0 0 512 512" width="512pt" xmlns="http://www.w3.org/2000/svg" xmlns:xlink="http://www.w3.org/1999/xlink"><linearGradient id="a" gradientUnits="userSpaceOnUse" x1="74.9807" x2="437.0193" y1="74.9807" y2="437.0193"><stop offset="0" stop-color="#ff8b2a"/><stop offset="1" stop-color="#ff5233"/></linearGradient><linearGradient id="b" gradientUnits="userSpaceOnUse" x1="173.712" x2="321.6762" y1="138.0884" y2="286.0526"><stop offset="0" stop-color="#71d1fe"/><stop offset="1" stop-color="#2196dc"/></linearGradient><linearGradient id="c"><stop offset="0" stop-color="#5da938"/><stop offset="1" stop-color="#205c4a"/></linearGradient><linearGradient id="d" gradientUnits="userSpaceOnUse" x1="239.3763" x2="363.7227" xlink:href="#c" y1="181.8683" y2="306.2148"/><linearGradient id="e" gradientUnits="userSpaceOnUse" x1="126.6299" x2="196.3297" xlink:href="#c" y1="189.6546" y2="259.3544"/><linearGradient id="f" gradientUnits="userSpaceOnUse" x1="238.1774" x2="273.8226" y1="94.9215" y2="130.5666"><stop offset="0" stop-color="#bcf7fc"/><stop offset="1" stop-color="#71d1fe"/></linearGradient><linearGradient id="g"><stop offset="0" stop-color="#fff3d6"/><stop offset="1" stop-color="#ffbe9f"/></linearGradient><linearGradient id="h" gradientUnits="userSpaceOnUse" x1="283.2492" x2="408.9613" xlink:href="#g" y1="221.3726" y2="347.0847"/><linearGradient id="i" gradientUnits="userSpaceOnUse" x1="286.8517" x2="334.9439" xlink:href="#g" y1="285.334" y2="333.4263"/><linearGradient id="j" gradientUnits="userSpaceOnUse" x1="58.9565" x2="272.833" xlink:href="#g" y1="177.2903" y2="391.1669"/><linearGradient id="k" gradientUnits="userSpaceOnUse" x1="133.2497" x2="268.9548" xlink:href="#g" y1="241.5276" y2="377.2327"/><path d="m512 256c0 141.386719-114.613281 256-256 256s-256-114.613281-256-256 114.613281-256 256-256 256 114.613281 256 256zm0 0" fill="url(#a)"/><path d="m252.386719 253.789062 118.878906-17.328124-16.195313-77.152344c-15.21875-24.652344-39.386718-43.195313-67.964843-51.105469l-38.03125 21.136719-24.179688-21.136719c-28.574219 7.910156-52.734375 26.441406-67.957031 51.078125l-16.871094 71.277344c5.15625 59.5 55.09375 106.191406 115.933594 106.191406v-17.128906l-23.75-35.625zm0 0" fill="url(#b)"/><path d="m390.1875 279.75-17.8125-59.375c0-22.402344-6.328125-43.316406-17.300781-61.066406h-45.960938v17.8125h-64.988281v17.8125h-17.8125v35.625h55.082031v17.8125h-25.394531c-19.671875 0-35.625 15.949218-35.625 35.625 0 16.871094 11.738281 30.996094 27.488281 34.679687l8.136719 18.074219zm0 0" fill="url(#d)"/><path d="m156.976562 159.308594c-10.996093 17.761718-17.351562 38.683594-17.351562 61.066406l-17.8125 51.746094h61.753906v-112.8125zm0 0" fill="url(#e)"/><path d="m256 104c-10.777344 0-21.203125 1.464844-31.105469 4.203125 2.050781 15.347656 15.199219 27.1875 31.105469 27.1875s29.054688-11.839844 31.105469-27.1875c-9.902344-2.738281-20.328125-4.203125-31.105469-4.203125zm0 0" fill="url(#f)"/><path d="m348.046875 369.40625 59.953125-92.03125v-137.75c0-9.839844-7.976562-17.8125-17.8125-17.8125-9.839844 0-17.8125 7.976562-17.8125 17.8125v100.800781l-152 126.011719 35.625 41.5625h92.046875zm0 0" fill="url(#h)"/><path d="m309.4375 336.75v-23.621094l57.863281-57.859375c6.957031-6.957031 6.957031-18.234375 0-25.191406s-18.234375-6.957031-25.191406 0l-106.878906 106.875 20.769531 53.234375c29.761719 0 53.4375-24.046875 53.4375-53.4375zm0 0" fill="url(#i)"/><path d="m163.953125 369.40625-59.953125-92.03125v-137.75c0-9.839844 7.976562-17.8125 17.8125-17.8125s17.8125 7.976562 17.8125 17.8125v100.800781l80.75 72.703125 35.625 77.058594v17.8125h-92.046875zm0 0" fill="url(#j)"/><path d="m202.5625 336.75v-23.621094l-57.863281-57.863281c-6.957031-6.953125-6.957031-18.234375 0-25.191406s18.234375-6.953125 25.191406 0l86.113281 86.113281-.003906 74c-29.761719 0-53.4375-24.046875-53.4375-53.4375zm0 0" fill="url(#k)"/></svg>