<svg height="512pt" viewBox="0 0 512 512" width="512pt" xmlns="http://www.w3.org/2000/svg" xmlns:xlink="http://www.w3.org/1999/xlink"><linearGradient id="a" gradientUnits="userSpaceOnUse" x1="74.9807" x2="437.0193" y1="74.9807" y2="437.0193"><stop offset="0" stop-color="#ff6c84"/><stop offset="1" stop-color="#ff1a69"/></linearGradient><linearGradient id="b" gradientUnits="userSpaceOnUse" x1="186.1742" x2="397.4274" y1="117.9703" y2="329.2235"><stop offset="0" stop-color="#fff3d6"/><stop offset="1" stop-color="#ffbe9f"/></linearGradient><linearGradient id="c" gradientUnits="userSpaceOnUse" x1="82.7793" x2="212.6934" y1="213.2793" y2="343.1934"><stop offset="0" stop-color="#a33b1a"/><stop offset="1" stop-color="#462300"/></linearGradient><linearGradient id="d"><stop offset="0" stop-color="#ffd567"/><stop offset="1" stop-color="#ffa725"/></linearGradient><linearGradient id="e" gradientUnits="userSpaceOnUse" x1="139.6504" x2="176.0371" xlink:href="#d" y1="140.2363" y2="176.623"/><linearGradient id="f" gradientUnits="userSpaceOnUse" x1="139.6504" x2="176.0371" xlink:href="#d" y1="270.6895" y2="307.0762"/><linearGradient id="g" gradientUnits="userSpaceOnUse" x1="238.7031" x2="344.8984" y1="170.5586" y2="276.7539"><stop offset="0" stop-color="#ff6e2e"/><stop offset="1" stop-color="#ff364e"/></linearGradient><path d="m512 256c0 141.386719-114.613281 256-256 256s-256-114.613281-256-256 114.613281-256 256-256 256 114.613281 256 256zm0 0" fill="url(#a)"/><path d="m161.886719 158.429688-32.34375-8.085938v-32.34375h32.34375zm0 0" fill="#a33b1a"/><path d="m291.800781 118h-105.65625v211.195312h211.3125v-211.195312zm0 0" fill="url(#b)"/><path d="m129.542969 394h32.34375v-235.570312l-32.34375 8.085937v114.285156l10.78125 8.082031-10.78125 8.085938zm0 0" fill="url(#c)"/><path d="m202.316406 150.34375v16.171875h-16.171875l-11.039062-8.085937 11.039062-8.085938zm0 0" fill="#ffc320"/><path d="m129.542969 150.34375h56.601562v16.171875h-56.601562zm0 0" fill="url(#e)"/><path d="m202.316406 280.796875v16.171875h-16.171875l-11.039062-8.085938 11.039062-8.085937zm0 0" fill="#ffc320"/><path d="m129.542969 280.796875h56.601562v16.171875h-56.601562zm0 0" fill="url(#f)"/><path d="m324.683594 190.773438v-40.429688h-65.765625v40.429688h-40.429688v65.765624h40.429688v40.429688h65.765625v-40.429688h40.429687v-65.765624zm0 0" fill="url(#g)"/></svg>