<svg height="512pt" viewBox="0 0 512 512" width="512pt" xmlns="http://www.w3.org/2000/svg" xmlns:xlink="http://www.w3.org/1999/xlink"><linearGradient id="a" gradientUnits="userSpaceOnUse" x1="74.9807" x2="437.0193" y1="74.9807" y2="437.0193"><stop offset="0" stop-color="#186c95"/><stop offset="1" stop-color="#093f61"/></linearGradient><linearGradient id="b" gradientUnits="userSpaceOnUse" x1="179.55" x2="332.4503" y1="144.9086" y2="297.8089"><stop offset="0" stop-color="#ff8b2a"/><stop offset="1" stop-color="#ff5233"/></linearGradient><linearGradient id="c" gradientUnits="userSpaceOnUse" x1="198.3894" x2="312.8915" y1="318.4512" y2="432.9532"><stop offset="0" stop-color="#ff6e2e"/><stop offset="1" stop-color="#ff364e"/></linearGradient><linearGradient id="d"><stop offset="0" stop-color="#ffd567"/><stop offset="1" stop-color="#ffa725"/></linearGradient><linearGradient id="e" gradientUnits="userSpaceOnUse" x1="148.9732" x2="218.1426" xlink:href="#d" y1="115.8029" y2="184.9723"/><linearGradient id="f" gradientUnits="userSpaceOnUse" x1="252.7272" x2="404.1569" xlink:href="#d" y1="74.6728" y2="226.1025"/><linearGradient id="g" gradientUnits="userSpaceOnUse" x1="194.7494" x2="317.2505" xlink:href="#d" y1="114.7929" y2="237.2939"/><linearGradient id="h" gradientUnits="userSpaceOnUse" x1="190.7417" x2="320.5386" xlink:href="#d" y1="310.8032" y2="440.6001"/><path d="m512 256c0 141.386719-114.613281 256-256 256s-256-114.613281-256-256 114.613281-256 256-256 256 114.613281 256 256zm0 0" fill="url(#a)"/><path d="m407.429688 222.828125-13.753907-16.695313-126.859375 104.671876v-87.976563h-21.632812v87.976563l-126.859375-104.671876-13.753907 16.695313 151.429688 124.75zm0 0" fill="url(#b)"/><path d="m305.242188 310.804688h-99.203126l-15.296874 15.292968v99.207032l15.296874 15.296874h99.203126l15.296874-15.296874v-99.207032zm0 0" fill="url(#c)"/><path d="m104.570312 222.828125h75.714844l75.714844-151.429687c-83.5 0-151.429688 67.933593-151.429688 151.429687zm0 0" fill="url(#e)"/><path d="m256 71.398438 75.714844 151.429687h75.714844c0-83.496094-67.933594-151.429687-151.429688-151.429687zm0 0" fill="url(#f)"/><path d="m256 71.398438c-41.75 0-75.714844 67.933593-75.714844 151.429687h151.429688c0-83.496094-33.964844-151.429687-75.714844-151.429687zm0 0" fill="url(#g)"/><path d="m320.539062 310.804688h-15.296874l-49.601563 49.601562-49.601563-49.601562h-15.296874v15.292968l49.601562 49.605469-49.601562 49.601563v15.296874h15.296874l49.601563-49.605468.359375.363281 49.242188 49.242187h15.296874v-15.296874l-49.601562-49.601563 49.601562-49.605469zm0 0" fill="url(#h)"/></svg>