<svg height="512pt" viewBox="0 0 512 512" width="512pt" xmlns="http://www.w3.org/2000/svg" xmlns:xlink="http://www.w3.org/1999/xlink"><linearGradient id="a" gradientUnits="userSpaceOnUse" x1="74.9807" x2="437.0193" y1="74.9807" y2="437.0193"><stop offset="0" stop-color="#bcf7fc"/><stop offset="1" stop-color="#71d1fe"/></linearGradient><linearGradient id="b" gradientUnits="userSpaceOnUse" x1="175.6723" x2="293.1781" y1="224.8694" y2="342.3752"><stop offset="0" stop-color="#ff8b2a"/><stop offset="1" stop-color="#ff5233"/></linearGradient><linearGradient id="c" gradientUnits="userSpaceOnUse" x1="214.0704" x2="358.4065" y1="117.7748" y2="262.111"><stop offset="0" stop-color="#ff6e2e"/><stop offset="1" stop-color="#ff364e"/></linearGradient><linearGradient id="d" gradientUnits="userSpaceOnUse" x1="216.6756" x2="259.531" y1="290.3652" y2="333.2207"><stop offset="0" stop-color="#a33b1a"/><stop offset="1" stop-color="#462300"/></linearGradient><linearGradient id="e" gradientUnits="userSpaceOnUse" x1="170.8281" x2="341.1719" y1="276.4844" y2="446.8281"><stop offset="0" stop-color="#75c231"/><stop offset="1" stop-color="#317645"/></linearGradient><path d="m512 256c0 141.386719-114.613281 256-256 256s-256-114.613281-256-256 114.613281-256 256-256 256 114.613281 256 256zm0 0" fill="url(#a)"/><path d="m178.050781 222.488281v114.910157h120.105469v-100.195313h-84.3125zm0 0" fill="url(#b)"/><path d="m333.949219 118h-120.105469v119.203125l120.105469 49.367187zm0 0" fill="url(#c)"/><path d="m220.851562 286.1875h34.5v51.210938h-34.5zm0 0" fill="url(#d)"/><path d="m256 329.3125h-138v64.6875h276v-64.6875zm0 0" fill="url(#e)"/><g fill="#fff3d6"><path d="m243.097656 146.03125h16.171875v32.34375h-16.171875zm0 0"/><path d="m288.523438 146.03125h16.171874v32.34375h-16.171874zm0 0"/><path d="m243.097656 194.546875h16.171875v32.34375h-16.171875zm0 0"/><path d="m288.523438 194.546875h16.171874v32.34375h-16.171874zm0 0"/></g></svg>