<svg height="512pt" viewBox="0 0 512 512" width="512pt" xmlns="http://www.w3.org/2000/svg" xmlns:xlink="http://www.w3.org/1999/xlink"><linearGradient id="a" gradientUnits="userSpaceOnUse" x1="74.9807" x2="437.0193" y1="74.9807" y2="437.0193"><stop offset="0" stop-color="#ffd567"/><stop offset="1" stop-color="#ffa725"/></linearGradient><linearGradient id="b" gradientUnits="userSpaceOnUse" x1="156.6113" x2="355.3887" y1="130.0684" y2="328.8457"><stop offset="0" stop-color="#71d1fe"/><stop offset="1" stop-color="#2196dc"/></linearGradient><linearGradient id="c"><stop offset="0" stop-color="#2196dc"/><stop offset="1" stop-color="#135772"/></linearGradient><linearGradient id="d" gradientUnits="userSpaceOnUse" x1="187.1357" x2="324.8643" xlink:href="#c" y1="277.6768" y2="415.4053"/><linearGradient id="e" gradientUnits="userSpaceOnUse" x1="227.0977" x2="284.9023" xlink:href="#c" y1="171.6523" y2="229.457"/><linearGradient id="f" gradientUnits="userSpaceOnUse" x1="181.2373" x2="330.7627" y1="310.1182" y2="459.6436"><stop offset="0" stop-color="#186c95"/><stop offset="1" stop-color="#093f61"/></linearGradient><path d="m512 256c0 141.386719-114.613281 256-256 256s-256-114.613281-256-256 114.613281-256 256-256 256 114.613281 256 256zm0 0" fill="url(#a)"/><path d="m314.628906 122.695312c-17.421875-11.585937-37.628906-17.695312-58.628906-17.695312s-41.207031 6.109375-58.628906 17.695312h-33.386719v213.523438h184.03125v-213.523438zm0 0" fill="url(#b)"/><path d="m256 318.523438h-109.710938v56.035156h219.421876v-56.035156zm0 0" fill="url(#d)"/><path d="m264.847656 178.140625v-26.542969h-17.695312v26.542969h-23.886719v17.695313h23.886719v53.675781h17.695312v-53.675781h23.886719v-17.695313zm0 0" fill="url(#e)"/><path d="m256 362.761719h-127.40625v44.238281h254.8125v-44.238281zm0 0" fill="url(#f)"/></svg>