<svg height="512pt" viewBox="0 0 512 512" width="512pt" xmlns="http://www.w3.org/2000/svg"><path d="m512 256c0 141.386719-114.613281 256-256 256s-256-114.613281-256-256 114.613281-256 256-256 256 114.613281 256 256zm0 0" fill="#a65d4e"/><path d="m512 256c0-11.285156-.738281-22.398438-2.152344-33.300781l-105.835937-105.832031-296.183594 277.109374 116.019531 116.019532c10.53125 1.320312 21.261719 2.003906 32.152344 2.003906 141.386719 0 256-114.613281 256-256zm0 0" fill="#784132"/><path d="m390.402344 284.207031c0 89.804688-72.804688 162.609375-162.609375 162.609375-89.804688 0-162.609375-72.804687-162.609375-162.609375 0-89.804687 72.804687-162.609375 162.609375-162.609375 89.804687 0 162.609375 72.804688 162.609375 162.609375zm0 0" fill="#a3d4ff"/><path d="m390.402344 284.207031c0-89.667969-72.578125-162.375-162.1875-162.605469v325.210938c89.613281-.230469 162.1875-72.941406 162.1875-162.605469zm0 0" fill="#87c7ff"/><path d="m344.84375 397.074219c28.203125-29.246094 45.558594-69.027344 45.558594-112.867188 0-50.035156-22.605469-94.785156-58.15625-124.617187-1.265625 19.324218-4.957032 46.222656-14.972656 72.632812-18.75 49.425782 45.324218 58.652344 44.3125 102.261719-.398438 17.121094-7.847657 40.503906-16.742188 62.589844zm0 0" fill="#0f9887"/><path d="m65.183594 284.207031c0 63.179688 36.03125 117.941407 88.664062 144.859375 22.386719-28.875 33.835938-77.433594 41.546875-92.875 7.308594-14.640625-18.46875-27.046875-36.804687-33.78125-10.3125-3.789062-15.949219-14.957031-12.664063-25.441406 12.328125-39.332031 39.660157-24.589844 48.632813-75.421875 4.9375-27.996094-12.792969-50.421875-32.449219-66.125-57.085937 25.238281-96.925781 82.355469-96.925781 148.785156zm0 0" fill="#00bd9d"/><path d="m201.507812 211.710938c29.730469-29.730469 172.777344-124.574219 202.503907-94.84375 29.730469 29.730468-65.113281 172.773437-94.84375 202.503906-29.730469 29.730468-77.929688 29.730468-107.660157 0-29.730468-29.730469-29.730468-77.929688 0-107.660156zm0 0" fill="#ffce00"/><path d="m404.011719 116.867188c-.371094-.375-.777344-.714844-1.1875-1.050782l-202.40625 202.410156c.363281.378907.714843.769532 1.089843 1.144532 29.730469 29.730468 77.929688 29.730468 107.660157 0 29.730469-29.726563 124.574219-172.773438 94.84375-202.503906zm0 0" fill="#ffa300"/><path d="m217.703125 245.253906c15.996094-15.992187 92.953125-67.019531 108.945313-51.023437 15.996093 15.996093-35.03125 92.949219-51.023438 108.945312-15.992188 15.996094-41.925781 15.996094-57.921875 0-15.992187-15.996093-15.992187-41.925781 0-57.921875zm0 0" fill="#fe6a16"/><path d="m325.414062 193.226562-108.800781 108.800782c.359375.386718.714844.773437 1.089844 1.148437 15.996094 15.992188 41.929687 15.992188 57.921875 0 15.992188-15.996093 67.019531-92.953125 51.023438-108.945312-.375-.375-.792969-.703125-1.234376-1.003907zm0 0" fill="#f24500"/></svg>