<svg height="512pt" viewBox="0 0 512 512" width="512pt" xmlns="http://www.w3.org/2000/svg"><path d="m512 256c0 141.386719-114.613281 256-256 256s-256-114.613281-256-256 114.613281-256 256-256 256 114.613281 256 256zm0 0" fill="#ffce00"/><path d="m296.046875 110.496094 33.558594 33.558594-223.105469 260.449218 103.332031 103.335938c14.976563 2.726562 30.402344 4.160156 46.167969 4.160156 141.386719 0 256-114.613281 256-256 0-18.667969-2.015625-36.859375-5.8125-54.394531l-121.109375-121.109375zm0 0" fill="#ffa300"/><path d="m188.222656 404.503906h-81.722656l44-127.335937h81.722656zm0 0" fill="#a65d4e"/><path d="m232.222656 277.167969h-43.1875l-40.085937 127.335937h39.273437zm0 0" fill="#784132"/><path d="m296.046875 80.496094h89.03125v30h-89.03125zm0 0" fill="#fff"/><path d="m106.5 202.503906c0-59.097656 47.910156-107.007812 107.011719-107.007812 59.101562 0 214.488281 107.007812 214.488281 107.007812s-155.390625 107.011719-214.488281 107.011719c-59.101563 0-107.015625-47.910156-107.011719-107.011719zm0 0" fill="#00bd9d"/><path d="m106.5 202.332031v.171875c0 59.101563 47.910156 107.011719 107.011719 107.011719 59.097656 0 214.488281-107.011719 214.488281-107.011719zm0 0" fill="#0f9887"/><path d="m283.671875 404.503906h-63.171875l34.011719-98.429687h63.171875zm0 0" fill="#a65d4e"/><path d="m317.683594 306.074219h-32.183594l-32.8125 98.429687h30.984375zm0 0" fill="#784132"/><path d="m220.5 248.359375c0-45.683594 37.035156-82.71875 82.71875-82.71875s165.800781 82.71875 165.800781 82.71875-120.117187 82.71875-165.800781 82.71875c-45.6875 0-82.722656-37.035156-82.71875-82.71875zm0 0" fill="#0f9887"/><path d="m220.507812 248.761719c.21875 45.5 37.160157 82.316406 82.710938 82.316406 43.851562 0 156.84375-76.597656 165.800781-82.71875zm0 0" fill="#088a7a"/><path d="m160.96875 150.640625h89.03125v30h-89.03125zm0 0" fill="#fff"/><path d="m345.96875 291.074219h89.03125v30h-89.03125zm0 0" fill="#e9edf5"/><path d="m273.167969 222h89.03125v30h-89.03125zm0 0" fill="#fff"/><path d="m273.167969 248.761719h89.03125v3.238281h-89.03125zm0 0" fill="#e9edf5"/></svg>