<svg height="512pt" viewBox="0 0 512 512" width="512pt" xmlns="http://www.w3.org/2000/svg"><path d="m512 256c0 141.386719-114.613281 256-256 256s-256-114.613281-256-256 114.613281-256 256-256 256 114.613281 256 256zm0 0" fill="#ffce00"/><path d="m511.039062 278.125-170.289062-170.285156-37.597656 56.996094 79.308594 79.308593-3.027344 3.023438-179.125-179.128907-42.238282 176.648438 230.40625 230.410156c68.101563-41.265625 115.40625-113.386718 122.5625-196.972656zm0 0" fill="#ffa300"/><path d="m200.308594 68.039062-194.992188 240.085938c24.078125 116.390625 127.160156 203.875 250.683594 203.875 61.761719 0 118.414062-21.871094 162.632812-58.292969l-10.484374-111.882812-114.628907-34.496094v-74.632813l-81.542969-81.359374zm0 0" fill="#a65d4e"/><g fill="#784132"><path d="m418.632812 453.707031-10.484374-111.882812-114.628907-34.496094v-74.632813l-37.921875-37.835937v317.136719c.132813 0 .269532.003906.402344.003906 61.761719 0 118.414062-21.871094 162.632812-58.292969zm0 0"/><path d="m362.398438 185.085938-59.246094-20.25-18-56.996094h55.597656l21.648438 38.621094zm0 0"/><path d="m455.3125 237.882812-54.878906 53.027344-71.832032-12.132812 30.882813-60.316406 53.925781-2.03125zm0 0"/></g><path d="m293.519531 232.695312-96.726562 58.214844-31.792969-113.910156 35.308594-108.960938 11.667968 83.296876zm0 0" fill="#b46e5a"/><path d="m255.59375 194.855469v60.664062l37.925781-22.824219zm0 0" fill="#a65d4e"/><path d="m167.089844 496.128906c27.695312 10.257813 57.648437 15.871094 88.910156 15.871094 69.574219 0 132.652344-27.765625 178.792969-72.804688l-26.644531-97.371093-114.628907 69.175781-93.210937-34.585938zm0 0" fill="#b46e5a"/><path d="m434.792969 439.195312-26.644531-97.371093-114.628907 69.175781-37.921875-14.070312v115.066406c.132813 0 .265625.003906.402344.003906 69.574219 0 132.652344-27.765625 178.792969-72.804688zm0 0" fill="#a65d4e"/></svg>