<svg height="512pt" viewBox="0 0 512 512" width="512pt" xmlns="http://www.w3.org/2000/svg"><path d="m512 256c0 141.386719-114.613281 256-256 256s-256-114.613281-256-256 114.613281-256 256-256 256 114.613281 256 256zm0 0" fill="#ffce00"/><path d="m511.773438 245.644531-175.355469-175.355469-42.421875 47.363282 126.53125 126.535156-2.835938 3.886719-68.734375-68.734375-19.613281 27.300781-88.683594-88.679687-177.847656 138.039062 82.632812 82.636719-22.683593 13.589843 69.769531 69.769532-16.382812 19.351562 70.460937 70.460938c3.117187.113281 6.246094.191406 9.390625.191406 141.382812 0 256-114.617188 256-256 0-3.46875-.089844-6.917969-.226562-10.355469zm0 0" fill="#ffa300"/><path d="m261.089844 276.878906c36.632812 0 66.324218-29.695312 66.324218-66.324218 0-36.628907-29.691406-66.324219-66.324218-66.324219-1.484375 0-2.953125.066406-4.414063.164062-10.574219-29.78125-38.996093-51.105469-72.402343-51.105469-33.351563 0-61.734376 21.257813-72.351563 50.960938-.269531-.003906-.535156-.019531-.808594-.019531-36.628906 0-66.324219 29.695312-66.324219 66.324219 0 36.628906 29.695313 66.324218 66.324219 66.324218zm0 0" fill="#595959"/><path d="m261.089844 144.230469c-1.484375 0-2.953125.066406-4.414063.164062-10.574219-29.78125-38.996093-51.105469-72.402343-51.105469-.234376 0-.46875.011719-.703126.015626v183.574218h77.519532c36.628906 0 66.324218-29.695312 66.324218-66.324218 0-36.628907-29.695312-66.324219-66.324218-66.324219zm0 0" fill="#474747"/><path d="m367.839844 372.484375c46.480468 0 84.160156-37.679687 84.160156-84.164063 0-46.480468-37.679688-84.160156-84.160156-84.160156-1.886719 0-3.75.082032-5.601563.207032-13.421875-37.789063-49.484375-64.851563-91.875-64.851563-42.324219 0-78.34375 26.976563-91.8125 64.667969-.34375-.003906-.683593-.023438-1.027343-.023438-46.480469 0-84.160157 37.679688-84.160157 84.160156 0 46.480469 37.679688 84.164063 84.160157 84.164063zm0 0" fill="#6e6e6e"/><path d="m367.839844 204.160156c-1.886719 0-3.75.082032-5.601563.207032-13.421875-37.789063-49.484375-64.851563-91.875-64.851563-.164062 0-.320312.007813-.480469.007813v232.960937h97.957032c46.480468 0 84.160156-37.679687 84.160156-84.164063 0-46.480468-37.679688-84.160156-84.160156-84.160156zm0 0" fill="#595959"/><path d="m344.882812 91.941406c0 17.640625-14.300781 31.941406-31.941406 31.941406s-31.941406-14.300781-31.941406-31.941406 14.300781-31.941406 31.941406-31.941406 31.941406 14.300781 31.941406 31.941406zm0 0" fill="#474747"/><path d="m371.199219 401c0 24.542969-19.898438 44.441406-44.441407 44.441406-24.542968 0-44.441406-19.898437-44.441406-44.441406s19.898438-44.441406 44.441406-44.441406c24.542969 0 44.441407 19.898437 44.441407 44.441406zm0 0" fill="#474747"/><path d="m230.542969 415.710938c0 18.359374-14.878907 33.238281-33.238281 33.238281-18.355469 0-33.238282-14.878907-33.238282-33.238281 0-18.355469 14.882813-33.238282 33.238282-33.238282 18.359374 0 33.238281 14.882813 33.238281 33.238282zm0 0" fill="#595959"/><path d="m202.410156 290.691406 22.363282 6.757813c-1.503907 6.273437-3.871094 11.511719-7.097657 15.714843-3.230469 4.207032-7.238281 7.378907-12.027343 9.519532-4.785157 2.140625-10.878907 3.210937-18.277344 3.210937-8.972656 0-16.304688-1.304687-21.992188-3.914062-5.6875-2.605469-10.601562-7.195313-14.730468-13.761719-4.128907-6.566406-6.195313-14.972656-6.195313-25.214844 0-13.660156 3.632813-24.15625 10.898437-31.492187 7.265626-7.335938 17.542969-11.003907 30.835938-11.003907 10.402344 0 18.578125 2.101563 24.53125 6.308594 5.949219 4.203125 10.371094 10.664063 13.261719 19.375l-22.527344 5.011719c-.789063-2.515625-1.613281-4.355469-2.480469-5.519531-1.425781-1.953125-3.171875-3.453125-5.238281-4.507813-2.0625-1.050781-4.375-1.574219-6.925781-1.574219-5.785156 0-10.214844 2.324219-13.292969 6.972657-2.328125 3.453125-3.492187 8.871093-3.492187 16.257812 0 9.152344 1.390624 15.425781 4.167968 18.820313 2.777344 3.394531 6.683594 5.089844 11.714844 5.089844 4.882812 0 8.570312-1.371094 11.066406-4.113282 2.5-2.738281 4.3125-6.71875 5.4375-11.9375zm0 0" fill="#fff"/><path d="m233.953125 283.257812c0-13.480468 3.753906-23.976562 11.265625-31.484374 7.507812-7.511719 17.964844-11.265626 31.371094-11.265626 13.746094 0 24.332031 3.6875 31.769531 11.066407 7.433594 7.378906 11.152344 17.714843 11.152344 31.007812 0 9.648438-1.625 17.5625-4.875 23.738281-3.246094 6.175782-7.941407 10.984376-14.078125 14.417969-6.140625 3.4375-13.792969 5.15625-22.953125 5.15625-9.3125 0-17.019531-1.484375-23.121094-4.449219-6.101563-2.96875-11.050781-7.660156-14.839844-14.082031-3.796875-6.421875-5.691406-14.457031-5.691406-24.105469zm25.515625.113282c0 8.335937 1.546875 14.324218 4.644531 17.964844 3.097657 3.644531 7.3125 5.464843 12.644531 5.464843 5.484376 0 9.726563-1.785156 12.730469-5.351562 3.003907-3.566407 4.503907-9.96875 4.503907-19.207031 0-7.773438-1.566407-13.453126-4.703126-17.039063-3.132812-3.585937-7.386718-5.378906-12.753906-5.378906-5.144531 0-9.277344 1.824219-12.390625 5.464843-3.121093 3.644532-4.675781 9.671876-4.675781 18.082032zm0 0" fill="#fff"/><g fill="#e9edf5"><path d="m308.355469 251.574219c-7.433594-7.378907-18.023438-11.066407-31.765625-11.066407-2.328125 0-4.558594.121094-6.707032.347657v20.222656c1.988282-.824219 4.203126-1.253906 6.652344-1.253906 5.367188 0 9.621094 1.796875 12.753906 5.378906 3.136719 3.585937 4.703126 9.265625 4.703126 17.039063 0 9.238281-1.5 15.640624-4.503907 19.207031-3.003906 3.570312-7.246093 5.351562-12.730469 5.351562-2.550781 0-4.835937-.429687-6.875-1.261719v19.960938c2.441407.253906 5.003907.394531 7.722657.394531 9.160156 0 16.8125-1.71875 22.949219-5.15625 6.140624-3.433593 10.835937-8.242187 14.082031-14.417969 3.25-6.175781 4.871093-14.089843 4.871093-23.738281 0-13.292969-3.714843-23.628906-11.152343-31.007812zm0 0"/><path d="m396.671875 324.484375h-68.828125c.789062-6.792969 3.183594-13.1875 7.179688-19.175781 4-5.988282 11.5-13.058594 22.503906-21.207032 6.71875-4.992187 11.019531-8.785156 12.898437-11.375 1.875-2.59375 2.8125-5.050781 2.8125-7.378906 0-2.515625-.925781-4.664062-2.785156-6.449218-1.859375-1.785157-4.195313-2.675782-7.011719-2.675782-2.929687 0-5.324218.921875-7.183594 2.757813-1.859374 1.839843-3.105468 5.089843-3.746093 9.746093l-22.980469-1.859374c.902344-6.457032 2.554688-11.5 4.957031-15.125 2.402344-3.621094 5.792969-6.398438 10.167969-8.335938 4.375-1.933594 10.429688-2.898438 18.164062-2.898438 8.074219 0 14.355469.921876 18.839844 2.757813 4.488282 1.839844 8.019532 4.667969 10.589844 8.476563 2.570312 3.8125 3.859375 8.082031 3.859375 12.816406 0 5.03125-1.476563 9.835937-4.421875 14.417968-2.949219 4.582032-8.308594 9.613282-16.082031 15.09375-4.617188 3.191407-7.707031 5.425782-9.265625 6.703126-1.558594 1.277343-3.386719 2.949218-5.492188 5.011718h35.824219zm0 0"/></g></svg>