<svg height="512pt" viewBox="0 0 512 512" width="512pt" xmlns="http://www.w3.org/2000/svg"><path d="m512 256c0 141.386719-114.613281 256-256 256s-256-114.613281-256-256 114.613281-256 256-256 256 114.613281 256 256zm0 0" fill="#ffce00"/><path d="m507.292969 206.980469-103.292969-103.289063-182 113.589844 80.40625 80.40625-49.191406 93.929688 174.449218 54.289062c51.792969-46.84375 84.335938-114.570312 84.335938-189.90625 0-16.765625-1.628906-33.148438-4.707031-49.019531zm0 0" fill="#ffa300"/><path d="m404 103.691406h-182v113.589844l182 19.640625zm0 0" fill="#595959"/><path d="m404 103.691406h-91.855469v123.316406l91.855469 9.914063zm0 0" fill="#474747"/><path d="m131 225.378906v221.121094h182v-201.480469zm0 0" fill="#595959"/><path d="m313 245.019531-90.738281-9.792969v211.273438h90.738281zm0 0" fill="#474747"/><path d="m32.566406 381c43.820313 78.164062 127.449219 131 223.433594 131s179.613281-52.835938 223.433594-131zm0 0" fill="#6e6e6e"/><path d="m255.59375 381v130.996094c.136719 0 .269531.003906.40625.003906 95.984375 0 179.613281-52.835938 223.433594-131zm0 0" fill="#595959"/><path d="m245 127.191406h32v49h-32zm0 0" fill="#adadad"/><path d="m349 127.191406h32v49h-32zm0 0" fill="#9c9c9c"/><path d="m297 127.191406h32v49h-32zm0 0" fill="#adadad"/><path d="m312.144531 127.191406h16.855469v49h-16.855469zm0 0" fill="#9c9c9c"/><path d="m277 196.191406h-32v23.570313l32 3.453125zm0 0" fill="#adadad"/><path d="m154 227.863281v25.425781h32v-21.972656zm0 0" fill="#adadad"/><path d="m258 239.085938v14.203124h32v-10.75zm0 0" fill="#9c9c9c"/><path d="m381 196.191406h-32v34.792969l32 3.453125zm0 0" fill="#9c9c9c"/><path d="m329 196.191406h-32v29.183594l32 3.453125zm0 0" fill="#adadad"/><path d="m329 196.191406h-16.855469v30.816406l16.855469 1.820313zm0 0" fill="#9c9c9c"/><path d="m206 233.472656v19.816406h32v-16.363281zm0 0" fill="#adadad"/><path d="m238 236.925781-15.738281-1.699219v18.0625h15.738281zm0 0" fill="#9c9c9c"/><path d="m154 273.289062h32v49h-32zm0 0" fill="#adadad"/><path d="m258 273.289062h32v49h-32zm0 0" fill="#9c9c9c"/><path d="m206 273.289062h32v49h-32zm0 0" fill="#adadad"/><path d="m222.261719 273.289062h15.738281v49h-15.738281zm0 0" fill="#9c9c9c"/></svg>