<svg height="512pt" viewBox="0 0 512 512" width="512pt" xmlns="http://www.w3.org/2000/svg"><path d="m512 256c0 141.386719-114.613281 256-256 256s-256-114.613281-256-256 114.613281-256 256-256 256 114.613281 256 256zm0 0" fill="#4a7aff"/><path d="m116.777344 186.796875-58.34375 58.34375 259.335937 259.339844c109.195313-27.058594 190.730469-124.195313 194.109375-240.9375l-173.601562-173.601563-58.34375 58.347656 80.929687 80.929688-13.871093.445312-139.722657-139.722656-58.34375 58.347656 64.222657 64.21875-34.046876 36.613282zm0 0" fill="#0053bf"/><path d="m418.820312 386.328125h-156.164062v-140.796875l78.082031-62.050781 78.082031 62.050781zm0 0" fill="#e9edf5"/><path d="m309.714844 300.109375h62.050781v86.222656h-62.050781zm0 0" fill="#474747"/><path d="m249.34375 386.328125h-156.164062v-140.796875l78.082031-62.050781 78.082031 62.050781zm0 0" fill="#fff"/><path d="m140.234375 300.109375h62.050781v86.222656h-62.050781zm0 0" fill="#595959"/><path d="m32.566406 381c43.820313 78.164062 127.449219 131 223.433594 131s179.613281-52.835938 223.433594-131zm0 0" fill="#fe6a16"/><path d="m255.59375 381v130.996094c.136719 0 .269531.003906.40625.003906 95.984375 0 179.613281-52.835938 223.433594-131zm0 0" fill="#f24500"/><path d="m127.710938 127.074219 58.34375-58.34375 21.214843 21.210937-58.34375 58.34375zm0 0" fill="#91cdff"/><path d="m154.71875 231.070312 58.34375-58.34375 21.214844 21.210938-58.347656 58.347656zm0 0" fill="#91cdff"/><path d="m258.714844 127.070312 58.347656-58.34375 21.210938 21.214844-58.34375 58.34375zm0 0" fill="#78beff"/><path d="m346.398438 214.753906 58.34375-58.347656 21.210937 21.214844-58.34375 58.34375zm0 0" fill="#78beff"/><g fill="#91cdff"><path d="m254.199219 306.949219 58.347656-58.34375 21.210937 21.214843-58.34375 58.34375zm0 0"/><path d="m37.222656 223.925781 58.34375-58.34375 21.210938 21.210938-58.34375 58.34375zm0 0"/></g></svg>