<svg height="512pt" viewBox="0 0 512 512" width="512pt" xmlns="http://www.w3.org/2000/svg"><path d="m512 256c0 141.386719-114.613281 256-256 256s-256-114.613281-256-256 114.613281-256 256-256 256 114.613281 256 256zm0 0" fill="#00bd9d"/><path d="m512 256c0-13.769531-1.101562-27.28125-3.195312-40.460938l-118.3125-118.3125-236.980469 181.601563-33.074219-33.070313-17.636719 28.429688 85.886719 85.882812-45.65625 9.066407 51.523438 51.519531-28.546876 21.332031 69.164063 69.164063c6.871094.554687 13.8125.847656 20.828125.847656 141.386719 0 256-114.613281 256-256zm0 0" fill="#0f9887"/><path d="m399.757812 115.851562s10.167969 77.042969-49.523437 172.671876c-46.796875 74.980468-116.070313 122.65625-153.0625 154.707031-9.085937 7.875-22.726563 7.324219-31.164063-1.242188-5.402343-5.480469-7.667968-13.3125-6.042968-20.832031 6.195312-28.644531 13.601562-62.824219-.515625-139.632812-12.105469-65.839844-45.722657-157.394532-45.722657-157.394532zm0 0" fill="#e4e4e4"/><path d="m399.757812 115.851562-144.164062 4.171876v274.734374c31.90625-27.570312 67.148438-62.183593 94.640625-106.234374 59.691406-95.628907 49.523437-172.671876 49.523437-172.671876zm0 0" fill="#d9d9d9"/><path d="m399.757812 115.851562c0-29.074218-64.363281-52.644531-143.757812-52.644531s-143.757812 23.570313-143.757812 52.644531c0 29.074219 64.363281 52.644532 143.757812 52.644532s143.757812-23.570313 143.757812-52.644532zm0 0" fill="#fff"/><path d="m256 63.207031c-.136719 0-.269531 0-.40625 0v105.285157c.136719 0 .269531.003906.40625.003906 79.394531 0 143.757812-23.570313 143.757812-52.644532 0-29.074218-64.363281-52.644531-143.757812-52.644531zm0 0" fill="#e9edf5"/><path d="m256 315.890625c-82.273438 0-165.5625-24.089844-165.5625-70.132813h30c0 5.949219 10.722656 16.28125 34.257812 24.898438 26.824219 9.824219 62.804688 15.234375 101.304688 15.234375s74.480469-5.410156 101.304688-15.234375c16.5-6.039062 34.257812-16.410156 34.257812-24.898438h30c0 46.042969-83.289062 70.132813-165.5625 70.132813zm0 0" fill="#fff"/><path d="m391.5625 245.757812c0 8.488282-17.757812 18.859376-34.257812 24.898438-26.824219 9.824219-62.804688 15.234375-101.304688 15.234375-.136719 0-.269531 0-.40625-.003906v30.003906h.40625c82.273438 0 165.5625-24.089844 165.5625-70.132813zm0 0" fill="#e9edf5"/><path d="m256.308594 388.835938-.269532-30c25.023438-.222657 48.671876-3.808594 66.582032-10.089844 18.1875-6.378906 22.945312-12.878906 23.226562-14.269532l29.992188-.175781c.105468 12.046875-6.785156 29.050781-40.230469 41.640625-21.375 8.046875-49.535156 12.628906-79.300781 12.894532zm0 0" fill="#e9edf5"/><path d="m198.527344 208.332031h97.496094v30h-97.496094zm0 0" fill="#fff"/><path d="m255.59375 208.332031h40.429688v30h-40.429688zm0 0" fill="#e9edf5"/><path d="m143.03125 339.136719h65.996094v30h-65.996094zm0 0" fill="#fff"/></svg>