<svg height="512pt" viewBox="0 0 512 512" width="512pt" xmlns="http://www.w3.org/2000/svg"><path d="m512 256c0 141.386719-114.613281 256-256 256s-256-114.613281-256-256 114.613281-256 256-256 256 114.613281 256 256zm0 0" fill="#ffce00"/><path d="m512 256c0-16.003906-1.484375-31.660156-4.292969-46.851562l-98.105469-98.105469-299.933593 272.675781 127.59375 127.59375c6.1875.449219 12.433593.6875 18.738281.6875 141.386719 0 256-114.613281 256-256zm0 0" fill="#ffa300"/><path d="m450.234375 256c0 107.273438-86.960937 194.234375-194.234375 194.234375s-194.234375-86.960937-194.234375-194.234375 86.960937-194.234375 194.234375-194.234375 194.234375 86.960937 194.234375 194.234375zm0 0" fill="#87c7ff"/><path d="m256 61.765625c-.136719 0-.269531.003906-.40625.003906v388.460938c.136719 0 .269531.003906.40625.003906 107.273438 0 194.234375-86.960937 194.234375-194.234375s-86.960937-194.234375-194.234375-194.234375zm0 0" fill="#65b1fc"/><path d="m395.8125 390.816406c33.695312-34.929687 54.421875-82.449218 54.421875-134.816406 0-59.769531-27.003906-113.222656-69.464844-148.851562-1.511719 23.082031-5.921875 55.207031-17.886719 86.757812-22.394531 59.039062 54.140626 70.058594 52.929688 122.152344-.472656 20.449218-9.371094 48.378906-20 74.757812zm0 0" fill="#0f9887"/><path d="m61.765625 256c0 75.464844 43.035156 140.878906 105.90625 173.035156 26.742187-34.492187 40.417969-92.496094 49.628906-110.941406 8.730469-17.488281-22.0625-32.308594-43.960937-40.351562-12.320313-4.523438-19.054688-17.867188-15.128906-30.386719 14.726562-46.984375 47.375-29.371094 58.089843-90.09375 5.902344-33.441407-15.28125-60.226563-38.757812-78.984375-68.191407 30.144531-115.777344 98.371094-115.777344 177.722656zm0 0" fill="#00bd9d"/><path d="m380.847656 414.242188h-63.910156c-20.867188 0-37.785156-16.917969-37.785156-37.785157v-240.914062c0-20.867188 16.917968-37.785157 37.785156-37.785157h63.910156c20.867188 0 37.785156 16.917969 37.785156 37.785157v240.914062c0 20.867188-16.914062 37.785157-37.785156 37.785157zm0 0" fill="#fff"/><path d="m380.847656 97.757812h-32.394531v316.484376h32.394531c20.867188 0 37.785156-16.917969 37.785156-37.785157v-240.914062c0-20.867188-16.914062-37.785157-37.785156-37.785157zm0 0" fill="#e9edf5"/><path d="m370.640625 287.5625v-127.507812c0-12.015626-9.734375-21.75-21.746094-21.75s-21.75 9.734374-21.75 21.75v127.507812c-15.546875 7.929688-26.203125 24.082031-26.203125 42.734375 0 26.480469 21.46875 47.949219 47.953125 47.949219 26.480469 0 47.949219-21.46875 47.949219-47.949219.003906-18.652344-10.652344-34.804687-26.203125-42.734375zm0 0" fill="#fe6a16"/><path d="m370.640625 287.5625v-127.507812c0-12.015626-9.734375-21.75-21.746094-21.75-.148437 0-.296875.007812-.441406.011718v239.917969c.148437 0 .292969.011719.441406.011719 26.480469 0 47.949219-21.46875 47.949219-47.953125.003906-18.648438-10.652344-34.800781-26.203125-42.730469zm0 0" fill="#f24500"/></svg>