<svg height="512pt" viewBox="0 0 512 512" width="512pt" xmlns="http://www.w3.org/2000/svg"><path d="m512 256c0 141.386719-114.613281 256-256 256s-256-114.613281-256-256 114.613281-256 256-256 256 114.613281 256 256zm0 0" fill="#fe6a16"/><path d="m512 256c0-14.039062-1.148438-27.8125-3.324219-41.238281l-118.433593-118.433594-268.484376 46.792969 119.488282 119.492187-119.488282 14.4375 111.113282 111.113281-111.113282 27.507813 93.003907 93.003906c13.425781 2.175781 27.199219 3.324219 41.238281 3.324219 141.386719 0 256-114.613281 256-256zm0 0" fill="#f24500"/><path d="m413.75 347.460938h-17.855469c-4.734375-11.578126-16.105469-19.742188-29.386719-19.742188h-130.011718c-17.527344 0-31.738282 14.210938-31.738282 31.742188 0 13.042968 7.871094 24.246093 19.121094 29.125-5.691406 5.738281-9.210937 13.636718-9.210937 22.355468 0 17.53125 14.210937 31.742188 31.738281 31.742188h130.011719c17.527343 0 31.738281-14.210938 31.738281-31.742188h5.59375c17.53125 0 31.738281-14.210937 31.738281-31.738281 0-17.53125-14.207031-31.742187-31.738281-31.742187zm0 0" fill="#6e6e6e"/><path d="m413.75 347.460938h-17.855469c-4.734375-11.582032-16.105469-19.742188-29.386719-19.742188h-110.914062v114.960938h120.824219c17.527343 0 31.738281-14.207032 31.738281-31.738282h5.59375c17.53125 0 31.738281-14.210937 31.738281-31.742187 0-17.527344-14.207031-31.738281-31.738281-31.738281zm0 0" fill="#595959"/><path d="m139.671875 108.574219h232.660156v294.851562h-232.660156zm0 0" fill="#fff"/><path d="m255.59375 108.574219h116.734375v294.851562h-116.734375zm0 0" fill="#e9edf5"/><path d="m121.757812 96.328125h268.484376v46.792969h-268.484376zm0 0" fill="#e4e4e4"/><path d="m255.59375 96.328125h134.648438v46.792969h-134.648438zm0 0" fill="#d9d9d9"/><path d="m121.757812 368.878906h268.484376v46.792969h-268.484376zm0 0" fill="#e4e4e4"/><path d="m255.59375 368.878906h134.648438v46.792969h-134.648438zm0 0" fill="#d9d9d9"/><path d="m121.757812 230.261719h268.484376v46.789062h-268.484376zm0 0" fill="#e4e4e4"/><path d="m255.59375 230.261719h134.648438v46.789062h-134.648438zm0 0" fill="#d9d9d9"/><path d="m180.878906 212c-13.1875 0-23.878906-10.691406-23.878906-23.878906v-91.792969h47.757812v91.792969c0 13.1875-10.691406 23.878906-23.878906 23.878906zm0 0" fill="#6e6e6e"/></svg>