<svg height="512pt" viewBox="0 0 512 512" width="512pt" xmlns="http://www.w3.org/2000/svg"><path d="m512 256c0 141.386719-114.613281 256-256 256s-256-114.613281-256-256 114.613281-256 256-256 256 114.613281 256 256zm0 0" fill="#4a7aff"/><path d="m512 256c0-10.238281-.617188-20.328125-1.789062-30.253906l-107.539063-107.539063-301.40625 292.695313 93.773437 93.773437c19.539063 4.773438 39.949219 7.324219 60.960938 7.324219 141.386719 0 256-114.613281 256-256zm0 0" fill="#0053bf"/><path d="m123.761719 248.835938c40.949219-40.945313 237.964843-171.574219 278.910156-130.628907 40.945313 40.945313-89.683594 237.964844-130.628906 278.910157-40.945313 40.945312-107.332031 40.945312-148.28125 0-40.945313-40.945313-40.945313-107.335938 0-148.28125zm0 0" fill="#ffce00"/><path d="m402.671875 118.207031c-.273437-.273437-.558594-.535156-.847656-.792969l-278.871094 278.871094c.269531.277344.535156.558594.808594.832032 40.949219 40.949218 107.335937 40.949218 148.28125 0 40.945312-40.945313 171.574219-237.964844 130.628906-278.910157zm0 0" fill="#ffa300"/><path d="m141.15625 276.453125c28.519531-28.515625 165.726562-119.488281 194.242188-90.972656 28.515624 28.515625-62.457032 165.722656-90.972657 194.242187-28.515625 28.515625-74.75 28.515625-103.269531 0-28.515625-28.519531-28.515625-74.753906 0-103.269531zm0 0" fill="#fe6a16"/><path d="m334.527344 184.710938-194.167969 194.167968c.269531.277344.523437.566406.796875.84375 28.515625 28.515625 74.75 28.515625 103.269531 0 28.515625-28.519531 119.488281-165.726562 90.972657-194.242187-.273438-.273438-.578126-.515625-.871094-.769531zm0 0" fill="#f24500"/><path d="m255.191406 349.792969c0 49.207031-39.890625 89.097656-89.097656 89.097656-49.203125 0-89.09375-39.890625-89.09375-89.097656 0-49.203125 39.890625-89.09375 89.09375-89.09375 49.207031 0 89.097656 39.890625 89.097656 89.09375zm0 0" fill="#d9d9d9"/><path d="m104.792969 414.445312c15.972656 15.148438 37.550781 24.441407 61.300781 24.441407 49.207031 0 89.097656-39.886719 89.097656-89.09375 0-23.75-9.296875-45.328125-24.445312-61.300781zm0 0" fill="#cfcfcf"/><path d="m166.484375 260.703125c-.253906 1.53125-.390625 3.097656-.390625 4.699219 0 15.816406 12.824219 28.636718 28.640625 28.636718 10.949219 0 20.457031-6.144531 25.277344-15.175781-14.875-11.320312-33.410157-18.074219-53.527344-18.160156zm0 0" fill="#c1c1c1"/><path d="m223.371094 370.125c0 15.816406-12.820313 28.640625-28.636719 28.640625s-28.640625-12.824219-28.640625-28.640625 12.824219-28.636719 28.640625-28.636719 28.636719 12.820313 28.636719 28.636719zm0 0" fill="#adadad"/><path d="m135.605469 316.796875c0 8.742187-7.089844 15.835937-15.835938 15.835937-8.746093 0-15.835937-7.09375-15.835937-15.835937 0-8.746094 7.089844-15.835937 15.835937-15.835937 8.746094 0 15.835938 7.089843 15.835938 15.835937zm0 0" fill="#c1c1c1"/><path d="m148.191406 392.273438c0 9.496093-7.695312 17.195312-17.191406 17.195312s-17.191406-7.699219-17.191406-17.195312c0-9.492188 7.695312-17.191407 17.191406-17.191407s17.191406 7.699219 17.191406 17.191407zm0 0" fill="#c1c1c1"/><path d="m140.960938 378.277344-23.957032 23.957031c3.117188 4.371094 8.21875 7.234375 13.996094 7.234375 9.496094 0 17.191406-7.699219 17.191406-17.195312 0-5.777344-2.859375-10.878907-7.230468-13.996094zm0 0" fill="#adadad"/></svg>