<svg height="512pt" viewBox="0 0 512 512.001" width="512pt" xmlns="http://www.w3.org/2000/svg"><path d="m512 256c0 141.386719-114.613281 256-256 256-141.382812 0-256-114.613281-256-256s114.617188-256 256-256c141.386719 0 256 114.613281 256 256zm0 0" fill="#fe6a16"/><path d="m503.933594 320-135.308594-135.308594-84.292969 84.964844-89.589843-89.59375-99.960938 184.671875 146.859375 146.855469c4.753906.265625 9.539063.410156 14.359375.410156 119.285156 0 219.515625-81.585938 247.933594-192zm0 0" fill="#f24500"/><path d="m194.742188 301.339844h-134.515626v-121.273438l67.257813-53.449218 67.257813 53.449218zm0 0" fill="#fff"/><path d="m127.25 301.339844h67.492188v-121.273438l-67.257813-53.449218zm0 0" fill="#e9edf5"/><path d="m100.757812 227.074219h53.449219v74.269531h-53.449219zm0 0" fill="#595959"/><path d="m127.25 227.074219h26.957031v74.269531h-26.957031zm0 0" fill="#474747"/><path d="m411.703125 298.058594-125.738281 47.78125-43.078125-113.371094 43.886719-73.851562 81.851562 26.074218zm0 0" fill="#fff"/><path d="m349.238281 321.796875 62.464844-23.738281-43.078125-113.367188-81.851562-26.074218zm0 0" fill="#e9edf5"/><path d="m297.476562 262.023438 49.960938-18.988282 26.382812 69.425782-49.964843 18.984374zm0 0" fill="#595959"/><path d="m347.4375 243.03125-24.796875 9.421875 26.597656 69.34375 24.578125-9.34375zm0 0" fill="#474747"/><path d="m309.714844 292.796875v56.996094l-86.714844 102.207031 26.34375-102.207031-49.953125-56.996094h-196.746094c17.84375 123.949219 124.46875 219.203125 253.355469 219.203125s235.511719-95.253906 253.359375-219.203125zm0 0" fill="#a65d4e"/><path d="m309.714844 292.796875v56.996094l-54.046875 63.703125v98.5c.109375 0 .222656.003906.332031.003906 128.886719 0 235.511719-95.253906 253.359375-219.203125zm0 0" fill="#784132"/></svg>