<svg height="512pt" viewBox="0 0 512 512" width="512pt" xmlns="http://www.w3.org/2000/svg"><path d="m512 256c0 141.386719-114.613281 256-256 256s-256-114.613281-256-256 114.613281-256 256-256 256 114.613281 256 256zm0 0" fill="#4a7aff"/><path d="m282.914062 510.59375c128.734376-13.453125 229.085938-122.300781 229.085938-254.59375 0-6.160156-.230469-12.265625-.660156-18.316406l-61.570313-61.570313-8.613281 7.535157-43.828125-43.824219-53.910156 52.199219-96.503907-96.503907-176.703124 138.691407 59.308593 59.308593-29.902343 27.160157 72.039062 72.039062-3.734375 2.882812zm0 0" fill="#0053bf"/><path d="m271.78125 258.863281c36.628906 0 66.324219-29.695312 66.324219-66.324219 0-36.628906-29.695313-66.324218-66.324219-66.324218-1.484375 0-2.953125.066406-4.414062.164062-10.574219-29.78125-38.996094-51.105468-72.402344-51.105468-33.351563 0-61.734375 21.257812-72.351563 50.960937-.269531-.003906-.539062-.019531-.808593-.019531-36.628907 0-66.324219 29.695312-66.324219 66.324218 0 36.628907 29.695312 66.324219 66.324219 66.324219zm0 0" fill="#bfe1ff"/><path d="m271.78125 126.214844c-1.484375 0-2.953125.066406-4.414062.164062-10.578126-29.78125-38.996094-51.105468-72.402344-51.105468-.226563 0-.453125.011718-.679688.011718v183.578125h77.496094c36.628906 0 66.324219-29.695312 66.324219-66.324219 0-36.628906-29.695313-66.324218-66.324219-66.324218zm0 0" fill="#a3d4ff"/><path d="m412.1875 258.863281c27.570312 0 49.917969-22.347656 49.917969-49.917969 0-27.566406-22.347657-49.917968-49.917969-49.917968-1.117188 0-2.222656.050781-3.320312.125-7.960938-22.414063-29.351563-38.464844-54.492188-38.464844-25.101562 0-46.464844 16-54.453125 38.355469-.203125 0-.40625-.015625-.609375-.015625-27.570312 0-49.917969 22.351562-49.917969 49.917968 0 27.570313 22.347657 49.917969 49.917969 49.917969zm0 0" fill="#87c7ff"/><path d="m412.1875 159.03125c-1.117188 0-2.222656.046875-3.320312.121094-7.894532-22.226563-28.996094-38.1875-53.867188-38.453125v138.164062h57.1875c27.570312 0 49.917969-22.347656 49.917969-49.917969 0-27.566406-22.347657-49.914062-49.917969-49.914062zm0 0" fill="#65b1fc"/><path d="m284.730469 303c0 15.867188-12.863281 28.730469-28.730469 28.730469s-28.730469-12.863281-28.730469-28.730469 12.863281-28.730469 28.730469-28.730469 28.730469 12.863281 28.730469 28.730469zm0 0" fill="#fff"/><path d="m256 274.269531c-.136719 0-.269531.007813-.40625.007813v57.445312c.136719 0 .269531.007813.40625.007813 15.867188 0 28.730469-12.863281 28.730469-28.730469s-12.863281-28.730469-28.730469-28.730469zm0 0" fill="#dbeeff"/><path d="m150.988281 303c0 15.867188-12.863281 28.730469-28.730469 28.730469-15.867187 0-28.730468-12.863281-28.730468-28.730469s12.863281-28.730469 28.730468-28.730469c15.867188 0 28.730469 12.863281 28.730469 28.730469zm0 0" fill="#fff"/><path d="m418.472656 303c0 15.867188-12.863281 28.730469-28.730468 28.730469-15.867188 0-28.730469-12.863281-28.730469-28.730469s12.863281-28.730469 28.730469-28.730469c15.867187 0 28.730468 12.863281 28.730468 28.730469zm0 0" fill="#dbeeff"/><path d="m217.523438 375.867188c0 15.867187-12.863282 28.730468-28.730469 28.730468-15.867188 0-28.730469-12.863281-28.730469-28.730468 0-15.867188 12.863281-28.730469 28.730469-28.730469 15.867187 0 28.730469 12.863281 28.730469 28.730469zm0 0" fill="#fff"/><path d="m353.75 375.867188c0 15.867187-12.863281 28.730468-28.730469 28.730468-15.867187 0-28.730469-12.863281-28.730469-28.730468 0-15.867188 12.863282-28.730469 28.730469-28.730469 15.867188 0 28.730469 12.863281 28.730469 28.730469zm0 0" fill="#dbeeff"/><path d="m285.636719 439.066406c0 15.871094-12.863281 28.734375-28.730469 28.734375s-28.730469-12.863281-28.730469-28.734375c0-15.867187 12.863281-28.730468 28.730469-28.730468s28.730469 12.863281 28.730469 28.730468zm0 0" fill="#fff"/><path d="m256.90625 410.335938c-.441406 0-.875.015624-1.3125.035156v57.394531c.4375.019531.871094.035156 1.3125.035156 15.867188 0 28.730469-12.863281 28.730469-28.734375 0-15.867187-12.863281-28.730468-28.730469-28.730468zm0 0" fill="#dbeeff"/></svg>