<svg height="512pt" viewBox="0 0 512 512.001" width="512pt" xmlns="http://www.w3.org/2000/svg"><path d="m512 256c0 141.386719-114.613281 256-256 256-141.382812 0-256-114.613281-256-256s114.617188-256 256-256c141.386719 0 256 114.613281 256 256zm0 0" fill="#ffce00"/><path d="m509.507812 291.714844-214.996093-214.996094-15.929688 284.910156 112.101563 112.101563c63.214844-39.1875 108.089844-105.128907 118.824218-182.015625zm0 0" fill="#ffa300"/><path d="m315.429688 360.800781-195.878907-59.292969 53.460938-176.601562 121.5-48.1875 74.378906 107.480469zm0 0" fill="#a65d4e"/><path d="m216.84375 330.960938 98.585938 29.839843 53.460937-176.601562-74.378906-107.480469zm0 0" fill="#784132"/><path d="m211.316406 211.21875 77.832032 23.558594-32.734376 108.148437-77.832031-23.558593zm0 0" fill="#784132"/><path d="m216.84375 330.960938 39.5625 11.972656 32.738281-108.144532-39.316406-11.902343zm0 0" fill="#61362b"/><path d="m1.457031 283.359375c13.65625 128.519531 122.402344 228.640625 254.542969 228.640625s240.886719-100.121094 254.542969-228.636719c-6.265625-2.113281-13.804688-3.566406-24.128907-3.566406-38.402343 0-38.402343 20-76.808593 20-38.402344 0-38.402344-20-76.804688-20-38.40625 0-38.40625 20-76.808593 20-38.402344 0-38.402344-20-76.804688-20-38.40625 0-38.40625 20-76.808594 20s-38.402344-20-76.804687-20c-10.320313 0-17.851563 1.449219-24.117188 3.5625zm0 0" fill="#4a7aff"/><path d="m486.414062 279.796875c-38.402343 0-38.402343 20-76.808593 20-38.402344 0-38.402344-20-76.804688-20-38.40625 0-38.40625 20-76.808593 20-.113282 0-.214844-.003906-.324219-.003906v212.203125c.109375 0 .222656.003906.332031.003906 132.140625 0 240.886719-100.117188 254.542969-228.636719-6.265625-2.113281-13.800781-3.566406-24.128907-3.566406zm0 0" fill="#0053bf"/><path d="m20.929688 357.507812c39.300781 90.886719 129.75 154.492188 235.070312 154.492188s195.769531-63.605469 235.070312-154.492188c-1.488281-.070312-3.035156-.109374-4.65625-.109374-38.402343 0-38.402343 20-76.808593 20-38.402344 0-38.402344-20-76.804688-20-38.402343 0-38.402343 20-76.808593 20-38.402344 0-38.402344-20-76.804688-20s-38.402344 20-76.808594 20c-38.402344 0-38.402344-20-76.804687-20-1.617188 0-3.15625.039062-4.644531.109374zm0 0" fill="#65b1fc"/><path d="m486.414062 357.398438c-38.402343 0-38.402343 20-76.808593 20-38.402344 0-38.402344-20-76.804688-20-38.40625 0-38.40625 20-76.808593 20-.113282 0-.214844-.003907-.324219-.003907v134.601563c.109375 0 .222656.003906.332031.003906 105.320312 0 195.769531-63.605469 235.070312-154.492188-1.488281-.070312-3.035156-.109374-4.65625-.109374zm0 0" fill="#4a98f7"/></svg>