<svg height="512pt" viewBox="0 0 512 512" width="512pt" xmlns="http://www.w3.org/2000/svg"><path d="m512 256c0 141.386719-114.613281 256-256 256s-256-114.613281-256-256 114.613281-256 256-256 256 114.613281 256 256zm0 0" fill="#4a7aff"/><path d="m345.46875 90.410156-64.699219 78.476563-75.949219-75.945313-55.082031 65.65625 101.136719 101.136719-30.421875 31.054687-83.742187-83.742187-40.488282 50.582031 78.691406 79.644532-67.648437 69.046874 101.269531 101.269532c15.382813 2.882812 31.246094 4.410156 47.464844 4.410156 141.074219 0 255.484375-114.113281 255.988281-255.070312zm0 0" fill="#0053bf"/><path d="m397.21875 206.746094c-18.578125 0-34.984375 9.257812-44.890625 23.402344-5.722656-27.050782-21.664063-50.328126-43.597656-65.605469l12.859375-19.160157c.222656.003907.4375.019532.660156.019532 17.894531 0 32.402344-14.507813 32.402344-32.402344s-14.507813-32.398438-32.402344-32.398438-32.398438 14.503907-32.398438 32.398438c0 4.582031.957032 8.9375 2.671876 12.890625l-15.785157 23.515625c-9.25-2.609375-19.003906-4.003906-29.085937-4.003906-14.222656 0-27.796875 2.78125-40.210938 7.820312 6.910156-7.617187 11.121094-17.726562 11.121094-28.820312 0-23.699219-19.210938-42.910156-42.910156-42.910156-23.699219 0-42.910156 19.210937-42.910156 42.910156 0 23.699218 19.210937 42.910156 42.910156 42.910156 2.792968 0 5.519531-.277344 8.160156-.785156-17.496094 13.027344-30.871094 31.277344-37.824219 52.445312-5.09375-11.226562-16.386719-19.035156-29.515625-19.035156-17.894531 0-32.398437 14.503906-32.398437 32.398438 0 17.894531 14.503906 32.402343 32.398437 32.402343 9.625 0 18.265625-4.203125 24.199219-10.863281.289063 21.480469 6.902344 41.433594 18.074219 58.074219l-9.542969 14.203125c-4.214844-1.269532-8.679687-1.960938-13.308594-1.960938-25.441406 0-46.058593 20.621094-46.058593 46.0625 0 25.4375 20.617187 46.058594 46.058593 46.058594 25.4375 0 46.058594-20.621094 46.058594-46.058594 0-7.917968-2-15.367187-5.519531-21.875l6.988281-10.398437c17.886719 13.449219 40.128906 21.421875 64.230469 21.421875 17.625 0 34.253906-4.265625 48.917968-11.8125l9.96875 14.75c-5.578124 7.238281-8.902343 16.304687-8.902343 26.152344 0 23.699218 19.210937 42.910156 42.910156 42.910156s42.910156-19.210938 42.910156-42.910156c0-23.695313-19.210937-42.910157-42.910156-42.910157-1.011719 0-2.015625.050781-3.011719.117188l-12.859375-19.027344c10.710938-11.105469 19.039063-24.523437 24.171875-39.429687 9.210938 17.292968 27.414063 29.070312 48.375 29.070312 30.253906 0 54.78125-24.527344 54.78125-54.78125s-24.53125-54.785156-54.785156-54.785156zm0 0" fill="#fff"/><path d="m397.21875 206.746094c-18.578125 0-34.984375 9.257812-44.890625 23.402344-5.722656-27.050782-21.664063-50.328126-43.597656-65.605469l12.859375-19.160157c.222656.003907.4375.019532.660156.019532 17.894531 0 32.402344-14.507813 32.402344-32.402344s-14.507813-32.398438-32.402344-32.398438-32.398438 14.503907-32.398438 32.398438c0 4.582031.957032 8.9375 2.671876 12.890625l-15.785157 23.515625c-6.796875-1.917969-13.871093-3.171875-21.140625-3.707031v213.398437c14.675782-1.078125 28.535156-5.105468 40.972656-11.507812l9.96875 14.75c-5.578124 7.238281-8.902343 16.304687-8.902343 26.152344 0 23.699218 19.210937 42.910156 42.910156 42.910156s42.910156-19.210938 42.910156-42.910156c0-23.699219-19.210937-42.910157-42.910156-42.910157-1.011719 0-2.015625.046875-3.011719.117188l-12.859375-19.03125c10.710938-11.105469 19.039063-24.519531 24.171875-39.425781 9.210938 17.292968 27.414063 29.070312 48.375 29.070312 30.253906 0 54.78125-24.527344 54.78125-54.78125-.003906-30.257812-24.53125-54.785156-54.785156-54.785156zm0 0" fill="#e9edf5"/><path d="m330 256c0 13.253906-10.746094 24-24 24s-24-10.746094-24-24 10.746094-24 24-24 24 10.746094 24 24zm0 0" fill="#d7d7d7"/><g fill="#e6e6e6"><path d="m250 312c0 13.253906-10.746094 24-24 24s-24-10.746094-24-24 10.746094-24 24-24 24 10.746094 24 24zm0 0"/><path d="m250.5 219.75c0 19.746094-16.003906 35.75-35.75 35.75s-35.75-16.003906-35.75-35.75 16.003906-35.75 35.75-35.75 35.75 16.003906 35.75 35.75zm0 0"/></g></svg>