<svg height="512pt" viewBox="0 0 512 512" width="512pt" xmlns="http://www.w3.org/2000/svg"><path d="m512 256c0 141.386719-114.613281 256-256 256s-256-114.613281-256-256 114.613281-256 256-256 256 114.613281 256 256zm0 0" fill="#4a7aff"/><path d="m512 256c0-4.023438-.105469-8.023438-.289062-12.003906l-28.054688-28.054688-3.4375 13.128906-47.699219-47.699218-76.25 106.882812-129.257812-129.257812-167.011719 167.113281 185.664062 185.664063c3.429688.136718 6.871094.226562 10.335938.226562 141.386719 0 256-114.613281 256-256zm0 0" fill="#0053bf"/><path d="m447.53125 302.128906c27.984375 0 50.671875-22.683594 50.671875-50.667968 0-27.984376-22.6875-50.671876-50.671875-50.671876-1.132812 0-2.253906.050782-3.371094.125-8.078125-22.75-29.792968-39.042968-55.3125-39.042968-25.480468 0-47.164062 16.242187-55.273437 38.933594-.207031 0-.414063-.015626-.621094-.015626-27.980469 0-50.667969 22.6875-50.667969 50.671876 0 27.984374 22.6875 50.667968 50.667969 50.667968zm0 0" fill="#dbeeff"/><path d="m447.53125 200.789062c-1.132812 0-2.253906.050782-3.371094.125-8.070312-22.726562-29.746094-39.007812-55.230468-39.042968v140.257812h58.601562c27.984375 0 50.671875-22.683594 50.671875-50.667968 0-27.984376-22.6875-50.671876-50.671875-50.671876zm0 0" fill="#bfe1ff"/><path d="m242.246094 280c27.984375 0 50.671875-22.6875 50.671875-50.671875 0-27.980469-22.6875-50.667969-50.671875-50.667969-1.132813 0-2.253906.050782-3.371094.125-8.078125-22.75-29.789062-39.042968-55.3125-39.042968-25.480469 0-47.164062 16.238281-55.273438 38.933593-.207031 0-.410156-.015625-.617187-.015625-27.984375 0-50.671875 22.6875-50.671875 50.667969 0 27.988281 22.6875 50.671875 50.671875 50.671875zm0 0" fill="#dbeeff"/><path d="m242.246094 178.660156c-1.132813 0-2.253906.050782-3.371094.125-8.078125-22.75-29.785156-39.039062-55.304688-39.042968v140.257812h58.679688c27.984375 0 50.667969-22.6875 50.667969-50.671875 0-27.980469-22.6875-50.667969-50.671875-50.667969zm0 0" fill="#cbe5f7"/><path d="m334.851562 350.128906c32.644532 0 59.109376-26.464844 59.109376-59.109375s-26.464844-59.109375-59.109376-59.109375c-1.324218 0-2.632812.0625-3.9375.148438-9.421874-26.542969-34.753906-45.546875-64.523437-45.546875-29.726563 0-55.023437 18.945312-64.480469 45.417969-.242187 0-.480468-.015626-.722656-.015626-32.644531 0-59.109375 26.464844-59.109375 59.109376 0 32.644531 26.464844 59.109374 59.109375 59.109374h133.664062zm0 0" fill="#bfe1ff"/><path d="m334.851562 231.910156c-1.324218 0-2.632812.0625-3.9375.148438-9.421874-26.542969-34.753906-45.546875-64.523437-45.546875-.027344 0-.054687 0-.082031 0v163.617187h68.539062c32.644532 0 59.109375-26.464844 59.109375-59.109375s-26.460937-59.109375-59.105469-59.109375zm0 0" fill="#a3d4ff"/><path d="m178.117188 338.25c21.882812 0 39.621093-17.738281 39.621093-39.621094 0-21.882812-17.738281-39.617187-39.621093-39.617187-.886719 0-1.761719.039062-2.636719.09375-6.316407-17.789063-23.292969-30.527344-43.25-30.527344-19.921875 0-36.878907 12.699219-43.21875 30.445313-.164063-.003907-.324219-.011719-.484375-.011719-21.882813 0-39.621094 17.738281-39.621094 39.617187 0 21.882813 17.738281 39.621094 39.621094 39.621094zm0 0" fill="#fff"/><path d="m178.117188 259.011719c-.886719 0-1.761719.039062-2.636719.09375-6.300781-17.742188-23.207031-30.460938-43.097657-30.523438v109.667969h45.734376c21.882812 0 39.621093-17.738281 39.621093-39.621094 0-21.878906-17.738281-39.617187-39.621093-39.617187zm0 0" fill="#dbeeff"/></svg>