<svg height="512pt" viewBox="0 0 512 512" width="512pt" xmlns="http://www.w3.org/2000/svg"><path d="m512 256c0 141.386719-114.613281 256-256 256s-256-114.613281-256-256 114.613281-256 256-256 256 114.613281 256 256zm0 0" fill="#4a7aff"/><path d="m512 256c0-12.644531-.933594-25.074219-2.703125-37.226562l-134.441406-134.441407-52.417969 73.808594-95.96875-95.964844-35.753906 242.539063 180.125 180.125c83.714844-42.09375 141.160156-128.75 141.160156-228.839844zm0 0" fill="#0053bf"/><path d="m403.480469 145.238281c0 43.6875-35.417969 79.105469-79.105469 79.105469-43.691406 0-79.109375-35.417969-79.109375-79.105469 0-43.691406 35.417969-79.109375 79.109375-79.109375 43.6875 0 79.105469 35.417969 79.105469 79.109375zm0 0" fill="#ffce00"/><path d="m403.480469 145.238281c0-43.601562-35.273438-78.957031-78.835938-79.101562v158.199219c43.5625-.144532 78.835938-35.5 78.835938-79.097657zm0 0" fill="#ffa300"/><path d="m376.480469 244.035156-21.441407-65.070312-94.46875-47.515625-34.101562-69.273438-149.390625 240.582031c45.8125 79.597657 168.792969 142.796876 270.808594 139.648438 59.507812-35.898438 115.808593-68.402344 125.613281-140.277344zm0 0" fill="#fff"/><path d="m376.480469 244.035156-21.441407-65.070312-94.46875-47.515625-4.976562-10.109375v308.085937c30.925781 9.152344 62.503906 13.898438 92.292969 12.980469 59.507812-35.898438 115.808593-68.402344 125.613281-140.277344zm0 0" fill="#dbeeff"/><path d="m355.039062 178.964844-64.285156 32.925781-63.769531-44.570313-.515625-105.144531 34.101562 69.273438zm0 0" fill="#dbeeff"/><path d="m355.039062 178.964844-94.46875-47.515625-4.976562-10.105469v65.972656l35.160156 24.574219zm0 0" fill="#bfe1ff"/><path d="m1.457031 283.359375c13.65625 128.519531 122.402344 228.640625 254.542969 228.640625s240.886719-100.121094 254.542969-228.636719c-6.265625-2.113281-13.804688-3.566406-24.128907-3.566406-38.402343 0-38.402343 20-76.808593 20-38.402344 0-38.402344-20-76.804688-20-38.40625 0-38.40625 20-76.808593 20-38.402344 0-38.402344-20-76.804688-20-38.40625 0-38.40625 20-76.808594 20s-38.402344-20-76.804687-20c-10.320313 0-17.851563 1.449219-24.117188 3.5625zm0 0" fill="#bfe1ff"/><path d="m486.414062 279.796875c-38.402343 0-38.402343 20-76.808593 20-38.402344 0-38.402344-20-76.804688-20-38.40625 0-38.40625 20-76.808593 20-.136719 0-.261719-.007813-.398438-.007813v212.207032c.136719 0 .269531.003906.40625.003906 132.140625 0 240.886719-100.121094 254.542969-228.636719-6.265625-2.113281-13.804688-3.566406-24.128907-3.566406zm0 0" fill="#a3d4ff"/><path d="m20.929688 357.507812c39.300781 90.886719 129.75 154.492188 235.070312 154.492188s195.769531-63.605469 235.070312-154.492188c-1.492187-.070312-3.035156-.109374-4.65625-.109374-38.402343 0-38.402343 20-76.808593 20-38.402344 0-38.402344-20-76.804688-20-38.40625 0-38.40625 20-76.808593 20-38.402344 0-38.402344-20-76.804688-20-38.40625 0-38.40625 20-76.808594 20s-38.402344-20-76.804687-20c-1.617188 0-3.15625.039062-4.644531.109374zm0 0" fill="#a3d4ff"/><path d="m486.414062 357.398438c-38.402343 0-38.402343 20-76.808593 20-38.402344 0-38.402344-20-76.804688-20-38.40625 0-38.40625 20-76.808593 20-.136719 0-.261719-.007813-.398438-.007813v134.605469c.136719 0 .269531.003906.40625.003906 105.320312 0 195.769531-63.605469 235.070312-154.492188-1.492187-.070312-3.035156-.109374-4.65625-.109374zm0 0" fill="#87c7ff"/></svg>