<svg height="512pt" viewBox="0 0 512 512" width="512pt" xmlns="http://www.w3.org/2000/svg"><path d="m512 256c0 141.386719-114.613281 256-256 256s-256-114.613281-256-256 114.613281-256 256-256 256 114.613281 256 256zm0 0" fill="#a65d4e"/><path d="m266.472656 511.769531c136.527344-5.496093 245.527344-117.894531 245.527344-255.769531 0-1.0625-.027344-2.121094-.039062-3.179688l-72.84375-72.84375-7.257813 6.640626-49.542969-49.539063-37.582031 101.144531-98.507813-98.507812-173.429687 140.917968 65.019531 65.019532-19.585937 17.875zm0 0" fill="#784132"/><path d="m262.695312 293.992188c36.628907 0 66.324219-29.695313 66.324219-66.324219 0-36.628907-29.695312-66.324219-66.324219-66.324219-1.484374 0-2.953124.066406-4.414062.164062-10.574219-29.78125-38.996094-51.105468-72.402344-51.105468-33.351562 0-61.734375 21.257812-72.351562 50.960937-.269532-.003906-.539063-.019531-.808594-.019531-36.628906 0-66.324219 29.695312-66.324219 66.324219 0 36.628906 29.695313 66.324219 66.324219 66.324219zm0 0" fill="#82d9b6"/><path d="m401.375 250.839844c25.117188 0 45.480469-20.359375 45.480469-45.480469 0-25.117187-20.363281-45.476563-45.480469-45.476563-1.015625 0-2.023438.042969-3.027344.109376-7.25-20.421876-26.738281-35.042969-49.648437-35.042969-22.871094 0-42.332031 14.578125-49.613281 34.945312-.183594 0-.367188-.011719-.554688-.011719-25.117188 0-45.480469 20.359376-45.480469 45.476563 0 25.121094 20.363281 45.480469 45.480469 45.480469zm0 0" fill="#06ccab"/><path d="m369.441406 389.597656c46.480469 0 84.164063-37.679687 84.164063-84.160156 0-46.484375-37.683594-84.164062-84.164063-84.164062-1.882812 0-3.746094.085937-5.601562.207031-13.417969-37.789063-49.484375-64.851563-91.875-64.851563-42.320313 0-78.339844 26.976563-91.808594 64.671875-.34375-.003906-.683594-.027343-1.027344-.027343-46.480468 0-84.160156 37.679687-84.160156 84.160156 0 46.480468 37.679688 84.164062 84.160156 84.164062zm0 0" fill="#00bd9d"/><path d="m369.441406 221.273438c-1.882812 0-3.746094.082031-5.601562.207031-13.417969-37.789063-49.484375-64.851563-91.875-64.851563-.101563 0-.199219.003906-.300782.003906v232.964844h97.777344c46.480469 0 84.160156-37.683594 84.160156-84.164062 0-46.480469-37.675781-84.160156-84.160156-84.160156zm0 0" fill="#0f9887"/><path d="m271.308594 212.925781c-35.449219 0-64.183594 28.738281-64.183594 64.183594 0 22.320313 11.398438 41.972656 28.683594 53.472656v26.816407h71v-26.816407c17.289062-11.5 28.683594-31.152343 28.683594-53.472656 0-35.445313-28.734376-64.183594-64.183594-64.183594zm-31.054688 82.277344-4.84375-1.84375c-7.121094-2.710937-10.695312-10.683594-7.984375-17.808594l1.921875-5.042969 30.636719 11.667969-1.921875 5.042969c-2.710938 7.125-10.683594 10.699219-17.808594 7.984375zm44.019532 18.628906c-7.160157 7.160157-18.769532 7.160157-25.925782 0l12.960938-16.167969zm22.933593-20.472656-4.84375 1.84375c-7.125 2.714844-15.097656-.859375-17.808593-7.980469l-1.921876-5.042968 30.636719-11.671876 1.921875 5.042969c2.714844 7.125-.863281 15.097657-7.984375 17.808594zm0 0" fill="#fff"/><path d="m271.667969 212.9375v85.175781l12.605469 15.71875c-3.488282 3.488281-8.035157 5.265625-12.605469 5.355469v38.210938h35.140625v-26.816407c17.289062-11.5 28.683594-31.152343 28.683594-53.472656 0-35.328125-28.542969-63.980469-63.824219-64.171875zm35.539062 80.421875-4.84375 1.84375c-7.121093 2.714844-15.09375-.859375-17.808593-7.980469l-1.921876-5.042968 30.636719-11.671876 1.921875 5.042969c2.714844 7.125-.863281 15.097657-7.984375 17.808594zm0 0" fill="#e9edf5"/></svg>