<svg height="512pt" viewBox="0 0 512 512" width="512pt" xmlns="http://www.w3.org/2000/svg"><path d="m512 256c0 141.386719-114.613281 256-256 256s-256-114.613281-256-256 114.613281-256 256-256 256 114.613281 256 256zm0 0" fill="#4a7aff"/><path d="m512 256c0-15.175781-1.328125-30.039062-3.859375-44.488281l-69.105469-69.101563-10.09375 8.800782-58.742187-58.738282-51.453125 86.945313-79.949219-79.949219-157.675781 125.566406 119.769531 119.765625-2.566406 4.304688-56.679688-56.679688-13.972656 17.9375-46.550781-46.546875-34.34375 35.230469 86.578125 86.578125-24.449219 23.46875 98.230469 98.226562c15.816406 3.058594 32.148437 4.679688 48.863281 4.679688 141.386719 0 256-114.613281 256-256zm0 0" fill="#0053bf"/><path d="m254.390625 239.125c32.917969 0 59.605469-26.683594 59.605469-59.605469 0-32.917969-26.683594-59.605469-59.605469-59.605469-1.332031 0-2.652344.058594-3.964844.144532-9.503906-26.761719-35.046875-45.925782-65.070312-45.925782-29.972657 0-55.484375 19.101563-65.023438 45.800782-.242187-.003906-.480469-.019532-.726562-.019532-32.917969 0-59.605469 26.6875-59.605469 59.605469 0 32.921875 26.6875 59.609375 59.605469 59.609375h134.785156zm0 0" fill="#a3d4ff"/><path d="m254.390625 119.914062c-1.332031 0-2.652344.0625-3.964844.148438-9.503906-26.761719-35.046875-45.929688-65.070312-45.929688v164.996094h69.035156c32.917969 0 59.605469-26.6875 59.605469-59.609375 0-32.917969-26.683594-59.605469-59.605469-59.605469zm0 0" fill="#87c7ff"/><path d="m392.394531 239.125c32.917969 0 59.605469-26.683594 59.605469-59.605469 0-32.917969-26.6875-59.605469-59.605469-59.605469-1.335937 0-2.65625.058594-3.96875.144532-9.503906-26.761719-35.042969-45.925782-65.066406-45.925782-29.976563 0-55.484375 19.101563-65.023437 45.800782-.242188-.003906-.484376-.019532-.726563-.019532-32.917969 0-59.605469 26.6875-59.605469 59.605469s26.683594 59.605469 59.605469 59.605469zm0 0" fill="#dbeeff"/><path d="m392.394531 119.914062c-1.335937 0-2.65625.0625-3.96875.148438-9.503906-26.765625-35.042969-45.929688-65.066406-45.929688-.167969 0-.335937.007813-.503906.007813v164.988281h69.539062c32.917969 0 59.605469-26.6875 59.605469-59.609375 0-32.917969-26.6875-59.605469-59.605469-59.605469zm0 0" fill="#bfe1ff"/><g fill="#fff"><path d="m150.414062 311.265625c0 13.601563-11.027343 24.628906-24.632812 24.628906-13.601562 0-24.628906-11.027343-24.628906-24.628906 0-13.605469 11.027344-24.632813 24.628906-24.632813 13.605469 0 24.632812 11.027344 24.632812 24.632813zm0 0"/><path d="m87.765625 280.632812c0 13.601563-11.03125 24.632813-24.632813 24.632813-13.605468 0-24.632812-11.03125-24.632812-24.632813 0-13.605468 11.027344-24.632812 24.632812-24.632812 13.601563 0 24.632813 11.027344 24.632813 24.632812zm0 0"/><path d="m213.066406 280.632812c0 13.601563-11.03125 24.632813-24.632812 24.632813-13.605469 0-24.632813-11.03125-24.632813-24.632813 0-13.605468 11.027344-24.632812 24.632813-24.632812 13.601562 0 24.632812 11.027344 24.632812 24.632812zm0 0"/><path d="m275.714844 311.265625c0 13.601563-11.027344 24.628906-24.628906 24.628906-13.605469 0-24.632813-11.027343-24.632813-24.628906 0-13.605469 11.027344-24.632813 24.632813-24.632813 13.601562 0 24.628906 11.027344 24.628906 24.632813zm0 0"/></g><path d="m251.085938 286.632812c-.085938 0-.167969.003907-.253907.003907v49.253906c.085938 0 .167969.003906.253907.003906 13.601562 0 24.628906-11.027343 24.628906-24.632812 0-13.601563-11.027344-24.628907-24.628906-24.628907zm0 0" fill="#e9edf5"/><path d="m338.367188 280.632812c0 13.601563-11.027344 24.632813-24.632813 24.632813-13.601563 0-24.632813-11.03125-24.632813-24.632813 0-13.605468 11.03125-24.632812 24.632813-24.632812 13.605469 0 24.632813 11.027344 24.632813 24.632812zm0 0" fill="#e9edf5"/><path d="m401.019531 311.265625c0 13.601563-11.03125 24.628906-24.632812 24.628906-13.605469 0-24.632813-11.027343-24.632813-24.628906 0-13.605469 11.027344-24.632813 24.632813-24.632813 13.601562 0 24.632812 11.027344 24.632812 24.632813zm0 0" fill="#e9edf5"/><path d="m463.667969 280.632812c0 13.601563-11.027344 24.632813-24.632813 24.632813-13.601562 0-24.628906-11.03125-24.628906-24.632813 0-13.605468 11.027344-24.632812 24.628906-24.632812 13.605469 0 24.632813 11.027344 24.632813 24.632812zm0 0" fill="#e9edf5"/><path d="m150.414062 391.160156c0 13.601563-11.027343 24.628906-24.632812 24.628906-13.601562 0-24.628906-11.027343-24.628906-24.628906 0-13.605468 11.027344-24.632812 24.628906-24.632812 13.605469 0 24.632812 11.027344 24.632812 24.632812zm0 0" fill="#fff"/><path d="m213.066406 360.527344c0 13.605468-11.03125 24.632812-24.632812 24.632812-13.605469 0-24.632813-11.027344-24.632813-24.632812 0-13.605469 11.027344-24.632813 24.632813-24.632813 13.601562 0 24.632812 11.027344 24.632812 24.632813zm0 0" fill="#fff"/><path d="m275.714844 391.160156c0 13.601563-11.027344 24.628906-24.628906 24.628906-13.605469 0-24.632813-11.027343-24.632813-24.628906 0-13.605468 11.027344-24.632812 24.632813-24.632812 13.601562 0 24.628906 11.027344 24.628906 24.632812zm0 0" fill="#fff"/><path d="m251.085938 366.527344c-.085938 0-.167969.003906-.253907.003906v49.253906c.085938 0 .167969.003906.253907.003906 13.601562 0 24.628906-11.027343 24.628906-24.632812 0-13.601562-11.027344-24.628906-24.628906-24.628906zm0 0" fill="#e9edf5"/><path d="m338.367188 360.527344c0 13.605468-11.027344 24.632812-24.632813 24.632812-13.601563 0-24.632813-11.027344-24.632813-24.632812 0-13.605469 11.03125-24.632813 24.632813-24.632813 13.605469 0 24.632813 11.027344 24.632813 24.632813zm0 0" fill="#e9edf5"/><path d="m401.019531 391.160156c0 13.601563-11.03125 24.628906-24.632812 24.628906-13.605469 0-24.632813-11.027343-24.632813-24.628906 0-13.605468 11.027344-24.632812 24.632813-24.632812 13.601562 0 24.632812 11.027344 24.632812 24.632812zm0 0" fill="#e9edf5"/><path d="m213.066406 440.421875c0 13.605469-11.03125 24.632813-24.632812 24.632813-13.605469 0-24.632813-11.027344-24.632813-24.632813 0-13.601563 11.027344-24.632813 24.632813-24.632813 13.601562 0 24.632812 11.03125 24.632812 24.632813zm0 0" fill="#fff"/><path d="m338.367188 440.421875c0 13.605469-11.027344 24.632813-24.632813 24.632813-13.601563 0-24.632813-11.027344-24.632813-24.632813 0-13.601563 11.03125-24.632813 24.632813-24.632813 13.605469 0 24.632813 11.03125 24.632813 24.632813zm0 0" fill="#e9edf5"/></svg>