<svg height="512pt" viewBox="0 0 512 512.001" width="512pt" xmlns="http://www.w3.org/2000/svg"><path d="m512 256c0 141.386719-114.613281 256-256 256-141.382812 0-256-114.613281-256-256s114.617188-256 256-256c141.386719 0 256 114.613281 256 256zm0 0" fill="#00bd9d"/><path d="m512 256c0-6.761719-.265625-13.460938-.78125-20.089844l-104.867188-105.640625-293.550781 259.542969 121.242188 121.242188c7.238281.613281 14.558593.945312 21.957031.945312 141.386719 0 256-114.613281 256-256zm0 0" fill="#0f9887"/><path d="m452 256c0 108.246094-87.75 196-196 196-108.246094 0-196-87.753906-196-196s87.753906-196 196-196c108.25 0 196 87.753906 196 196zm0 0" fill="#ffce00"/><path d="m256 60c-.132812 0-.269531.003906-.40625.003906v391.992188c.136719 0 .269531.003906.40625.003906 108.25 0 196-87.753906 196-196s-87.75-196-196-196zm0 0" fill="#ffa300"/><path d="m299.949219 253.890625c-.746094-15.769531-9.789063-29.363281-22.863281-36.515625l61.175781-105.964844c-24.199219-14-52.292969-22.019531-82.261719-22.019531s-58.0625 8.019531-82.261719 22.019531l61.179688 105.964844c-13.074219 7.152344-22.121094 20.746094-22.863281 36.515625h-120.554688c0 29.96875 8.019531 58.0625 22.019531 82.261719 14.441407 24.964844 35.257813 45.777344 60.21875 60.21875l59.351563-102.800782c6.675781 4.078126 14.519531 6.429688 22.910156 6.429688 8.394531 0 16.234375-2.351562 22.910156-6.429688l59.351563 102.800782c24.960937-14.441406 45.777343-35.257813 60.21875-60.21875 14.003906-24.199219 22.019531-52.292969 22.019531-82.261719zm0 0" fill="#595959"/><path d="m299.949219 253.890625c-.746094-15.769531-9.789063-29.363281-22.863281-36.515625l61.175781-105.964844c-24.199219-14-52.292969-22.019531-82.261719-22.019531-.132812 0-.269531.007813-.40625.007813v210.585937c.136719.003906.269531.015625.40625.015625 8.394531 0 16.234375-2.351562 22.910156-6.429688l59.351563 102.800782c24.960937-14.441406 45.777343-35.257813 60.21875-60.21875 14.003906-24.199219 22.019531-52.292969 22.019531-82.261719zm0 0" fill="#474747"/></svg>