<svg height="512pt" viewBox="0 0 512 512" width="512pt" xmlns="http://www.w3.org/2000/svg"><path d="m512 256c0 141.386719-114.613281 256-256 256s-256-114.613281-256-256 114.613281-256 256-256 256 114.613281 256 256zm0 0" fill="#fe6a16"/><path d="m511.375 273.78125-185.394531-185.390625.183593 29.0625-70.164062-70.164063-1.863281 109.21875-68.117188-68.117187 54.550781 151.0625-95.824218-95.824219 8.792968 218.554688 146.097657 146.097656c114.894531-19.734375 203.609375-116.035156 211.738281-234.5zm0 0" fill="#f24500"/><path d="m107.84375 307.476562c0-86.398437 36.902344-163.847656 36.902344-163.847656s3.601562 6.816406 8.550781 16.816406c9.664063-28.371093 32.722656-72.054687 32.722656-72.054687s13.421875 25.429687 24.078125 50.085937c13.824219-36.246093 45.90625-91.191406 45.90625-91.191406s32.074219 54.949219 45.898438 91.195313c10.65625-24.660157 24.082031-50.089844 24.082031-50.089844s23.058594 43.6875 32.71875 72.058594c4.949219-10 8.550781-16.820313 8.550781-16.820313s36.890625 83.054688 36.890625 163.886719c0 81.816406-66.328125 148.144531-148.144531 148.144531-81.820312 0-148.15625-66.363281-148.15625-148.183594zm0 0" fill="#ffce00"/><path d="m255.59375 455.652344c.136719 0 .269531.007812.40625.007812 81.816406 0 148.144531-66.328125 148.144531-148.144531 0-80.832031-36.890625-163.886719-36.890625-163.886719s-3.601562 6.820313-8.550781 16.820313c-9.660156-28.371094-32.71875-72.058594-32.71875-72.058594s-13.425781 25.429687-24.082031 50.089844c-13.820313-36.246094-45.898438-91.195313-45.898438-91.195313zm0 0" fill="#ffa300"/><path d="m170.738281 368.257812c0-47.085937 85.253907-202.011718 85.253907-202.011718s85.253906 154.925781 85.253906 202.011718c0 47.082032-38.171875 85.253907-85.253906 85.253907-47.085938 0-85.253907-38.171875-85.253907-85.253907zm0 0" fill="#ff9500"/><path d="m255.59375 453.5c.132812 0 .265625.011719.398438.011719 47.082031 0 85.253906-38.171875 85.253906-85.253907 0-47.085937-85.253906-202.011718-85.253906-202.011718zm0 0" fill="#fe8205"/><path d="m32.566406 381c43.820313 78.164062 127.449219 131 223.433594 131s179.613281-52.835938 223.433594-131zm0 0" fill="#595959"/><path d="m255.59375 381v130.996094c.136719 0 .269531.003906.40625.003906 95.984375 0 179.613281-52.835938 223.433594-131zm0 0" fill="#474747"/></svg>