<svg height="512pt" viewBox="0 0 512 512" width="512pt" xmlns="http://www.w3.org/2000/svg"><path d="m512 256c0 141.386719-114.613281 256-256 256s-256-114.613281-256-256 114.613281-256 256-256 256 114.613281 256 256zm0 0" fill="#ffce00"/><path d="m147.265625 310.664062 188.609375 188.609376c102.265625-33.558594 176.125-129.785157 176.125-243.273438 0-2.5-.046875-4.992188-.117188-7.476562l-152.152343-152.152344zm0 0" fill="#ffa300"/><path d="m385 206c0 71.246094-57.753906 129-129 129s-129-57.753906-129-129 57.753906-129 129-129 129 57.753906 129 129zm0 0" fill="#383838"/><path d="m256 77c-.136719 0-.269531.003906-.40625.003906v257.992188c.136719 0 .269531.003906.40625.003906 71.246094 0 129-57.753906 129-129s-57.753906-129-129-129zm0 0" fill="#2c2c2c"/><path d="m256 357c-83.261719 0-151-67.738281-151-151s67.738281-151 151-151 151 67.738281 151 151-67.738281 151-151 151zm0-258c-59 0-107 48-107 107s48 107 107 107 107-48 107-107-48-107-107-107zm0 0" fill="#595959"/><path d="m256 55c-.136719 0-.269531.003906-.40625.003906v44c.136719 0 .269531-.003906.40625-.003906 59 0 107 48 107 107s-48 107-107 107c-.136719 0-.269531-.003906-.40625-.003906v44c.136719 0 .269531.003906.40625.003906 83.261719 0 151-67.738281 151-151s-67.738281-151-151-151zm0 0" fill="#474747"/><path d="m350 459h-188v-182.636719c0-22.566406 18.296875-40.863281 40.863281-40.863281h106.273438c22.566406 0 40.863281 18.296875 40.863281 40.863281zm0 0" fill="#82d9b6"/><path d="m350 276.363281c0-22.566406-18.296875-40.863281-40.863281-40.863281h-53.542969v223.5h94.40625zm0 0" fill="#06ccab"/><path d="m20.929688 357.507812c39.300781 90.886719 129.75 154.492188 235.070312 154.492188s195.769531-63.605469 235.070312-154.492188c-1.492187-.070312-3.035156-.109374-4.65625-.109374-38.402343 0-38.402343 20-76.808593 20-38.402344 0-38.402344-20-76.804688-20-38.40625 0-38.40625 20-76.808593 20-38.402344 0-38.402344-20-76.804688-20-38.40625 0-38.40625 20-76.808594 20s-38.402344-20-76.804687-20c-1.617188 0-3.15625.039062-4.644531.109374zm0 0" fill="#00bd9d"/><path d="m486.414062 357.398438c-38.402343 0-38.402343 20-76.808593 20-38.402344 0-38.402344-20-76.804688-20-38.40625 0-38.40625 20-76.808593 20-.136719 0-.261719-.007813-.398438-.007813v134.605469c.136719 0 .269531.003906.40625.003906 105.320312 0 195.769531-63.605469 235.070312-154.492188-1.492187-.070312-3.035156-.109374-4.65625-.109374zm0 0" fill="#0f9887"/></svg>