<svg height="512pt" viewBox="0 0 512 512" width="512pt" xmlns="http://www.w3.org/2000/svg"><path d="m512 256c0 141.386719-114.613281 256-256 256s-256-114.613281-256-256 114.613281-256 256-256 256 114.613281 256 256zm0 0" fill="#ffce00"/><path d="m512 256c0-8.660156-.4375-17.214844-1.273438-25.652344l-75.726562-75.726562-99.996094 124.382812-190.003906-190.003906-.714844 397.261719.261719.261719c33.695313 16.320312 71.503906 25.476562 111.453125 25.476562 141.386719 0 256-114.613281 256-256zm0 0" fill="#ffa300"/><path d="m405.433594 305.539062c25.3125 0 45.832031-38.304687 45.832031-85.554687s-20.519531-85.550781-45.832031-85.550781l-239.90625-26.175782v223.457032zm0 0" fill="#fe6a16"/><path d="m165.523438 219v112.714844l239.90625-26.175782c25.3125 0 45.835937-38.304687 45.835937-85.554687 0-.328125-.011719-.65625-.011719-.984375zm0 0" fill="#f24500"/><path d="m214.777344 219.988281c0-61.707031-22.050782-111.730469-49.253906-111.730469-27.199219 0-49.25 50.023438-49.25 111.730469 0 61.703125 22.050781 111.726563 49.25 111.726563 27.203124 0 49.253906-50.023438 49.253906-111.726563zm0 0" fill="#fff"/><path d="m116.277344 219c0 .328125-.003906.65625-.003906.988281 0 61.703125 22.050781 111.726563 49.25 111.726563 27.203124 0 49.253906-50.023438 49.253906-111.726563 0-.332031-.003906-.660156-.007813-.988281zm0 0" fill="#e9edf5"/><path d="m355.882812 129.027344c14.019532 17.855468 23.5 51.886718 23.5 90.957031s-9.480468 73.105469-23.5 90.960937l37.457032-4.085937c12.378906-18.683594 20.539062-50.613281 20.539062-86.875 0-36.257813-8.160156-68.1875-20.539062-86.871094zm0 0" fill="#fff"/><path d="m379.375 219c0 .328125.007812.65625.007812.988281 0 39.070313-9.480468 73.101563-23.5 90.957031l37.457032-4.085937c12.378906-18.679687 20.539062-50.613281 20.539062-86.871094 0-.332031-.003906-.660156-.007812-.988281zm0 0" fill="#e9edf5"/><path d="m265.335938 219.988281c0 43.855469-10.25 82.265625-25.605469 103.628907l43.371093-4.730469c13.585938-22.039063 22.4375-58.121094 22.4375-98.898438 0-40.777343-8.851562-76.859375-22.4375-98.898437l-43.371093-4.734375c15.355469 21.363281 25.605469 59.773437 25.605469 103.632812zm0 0" fill="#fff"/><path d="m265.328125 219c0 .328125.007813.65625.007813.988281 0 43.855469-10.25 82.265625-25.605469 103.628907l43.371093-4.730469c13.585938-22.039063 22.4375-58.121094 22.4375-98.898438 0-.332031-.003906-.65625-.007812-.988281zm0 0" fill="#e9edf5"/><path d="m101 459.738281c13.65625 10.40625 28.382812 19.484375 44 27.011719v-397.75h-44zm0 0" fill="#595959"/><path d="m145 89h-23.332031v384.945312c7.527343 4.65625 15.308593 8.9375 23.332031 12.804688zm0 0" fill="#474747"/></svg>