<svg height="512pt" viewBox="0 0 512 512" width="512pt" xmlns="http://www.w3.org/2000/svg"><path d="m512 256c0 141.386719-114.613281 256-256 256s-256-114.613281-256-256 114.613281-256 256-256 256 114.613281 256 256zm0 0" fill="#ffce00"/><path d="m511.851562 264.351562-173.191406-173.191406 4.753906 38.863282-87.410156-87.410157 4.949219 136.15625-87.609375-87.609375-.640625 113.351563-48.105469-48.105469-27.636718 140.355469 57.585937 57.585937-71.304687 39.148438 110.976562 110.980468c19.789062 4.90625 40.476562 7.523438 61.78125 7.523438 138.589844 0 251.441406-110.132812 255.851562-247.648438zm0 0" fill="#ffa300"/><path d="m387.410156 156.40625s-4.253906 8.058594-10.101562 19.871094c-11.410156-33.511719-38.648438-85.117188-38.648438-85.117188s-15.855468 30.039063-28.441406 59.164063c-16.328125-42.8125-54.214844-107.710938-54.214844-107.710938s-37.890625 64.894531-54.222656 107.707031c-12.585938-29.125-28.4375-59.160156-28.4375-59.160156s-27.238281 51.597656-38.652344 85.109375c-5.84375-11.808593-10.097656-19.863281-10.097656-19.863281s-43.589844 82.574219-43.589844 106.648438c0 24.070312 19.515625 43.585937 43.585938 43.585937 24.074218 0 43.589844-19.515625 43.589844-43.585937 0-5.3125-2.121094-13.46875-5.425782-22.960938 3.386719.847656 6.933594 1.304688 10.585938 1.304688 16.871094 0 31.492187-9.589844 38.738281-23.609376 11.167969 10.28125 26.71875 16.667969 43.917969 16.671876 17.203125 0 32.753906-6.386719 43.925781-16.675782 7.242187 14.023438 21.863281 23.613282 38.734375 23.613282 3.652344 0 7.199219-.457032 10.589844-1.300782-3.304688 9.488282-5.429688 17.644532-5.429688 22.957032 0 24.074218 19.515625 43.585937 43.589844 43.585937 24.070312 0 43.585938-19.511719 43.585938-43.585937.003906-24.074219-43.582032-106.648438-43.582032-106.648438zm0 0" fill="#fe6a16"/><path d="m255.996094 234.457031c17.203125 0 32.753906-6.386719 43.925781-16.671875 7.242187 14.019532 21.863281 23.613282 38.734375 23.613282 3.652344 0 7.199219-.457032 10.589844-1.304688-3.304688 9.492188-5.429688 17.648438-5.429688 22.960938 0 24.070312 19.515625 43.585937 43.589844 43.585937 24.070312 0 43.585938-19.515625 43.585938-43.585937.003906-24.074219-43.585938-106.648438-43.585938-106.648438s-4.25 8.058594-10.101562 19.871094c-11.410157-33.511719-38.644532-85.117188-38.644532-85.117188s-15.855468 30.039063-28.441406 59.164063c-16.328125-42.8125-54.214844-107.710938-54.214844-107.710938zm0 0" fill="#f24500"/><path d="m156.136719 331.730469h40.726562v107.335937h-40.726562zm0 0" fill="#a65d4e"/><path d="m269.757812 393.5-57.949218-108.347656 25.164062.003906-60.472656-113.058594-60.472656 113.054688h25.164062l-57.949218 108.347656zm0 0" fill="#0f9887"/><path d="m315.136719 331.730469h40.726562v107.335937h-40.726562zm0 0" fill="#784132"/><path d="m428.757812 393.5-57.949218-108.347656 25.164062.003906-60.472656-113.058594-60.472656 113.054688h25.164062l-57.949218 108.347656zm0 0" fill="#088a7a"/><path d="m225 331.730469h62v107.335937h-62zm0 0" fill="#a65d4e"/><path d="m256 331.730469h31v107.335937h-31zm0 0" fill="#784132"/><path d="m379.472656 393.5-76.726562-143.445312h33.316406l-80.0625-149.679688-80.0625 149.679688h33.316406l-76.726562 143.445312zm0 0" fill="#00bd9d"/><path d="m256 393.5h123.472656l-76.726562-143.445312h33.316406l-80.0625-149.679688zm0 0" fill="#0f9887"/></svg>