<svg height="512pt" viewBox="0 0 512 512" width="512pt" xmlns="http://www.w3.org/2000/svg"><path d="m512 256c0 141.386719-114.613281 256-256 256s-256-114.613281-256-256 114.613281-256 256-256 256 114.613281 256 256zm0 0" fill="#a65d4e"/><path d="m512 256c0-5.820312-.214844-11.59375-.597656-17.316406l-150.835938-150.835938-98.566406 157.242188 206.753906 153.320312c27.308594-40.71875 43.246094-89.699218 43.246094-142.410156zm0 0" fill="#784132"/><path d="m502.640625 324.777344v-32.078125h-361.480469v192.140625c34.539063 17.367187 73.542969 27.160156 114.839844 27.160156 117.558594 0 216.59375-79.242188 246.640625-187.222656zm0 0" fill="#4a98f7"/><path d="m255.59375 292.699219v219.296875c.136719 0 .269531.003906.40625.003906 117.558594 0 216.59375-79.242188 246.640625-187.222656v-32.078125zm0 0" fill="#4a7aff"/><path d="m0 256c0 111.585938 71.402344 206.480469 171 241.53125v-247.53125h-170.9257812c-.0429688 1.996094-.0742188 3.992188-.0742188 6zm0 0" fill="#ffce00"/><path d="m489.824219 360.347656c12.917969-28.898437 20.621093-60.625 21.949219-94h-230.347657c-19.449219 0-35.273437-15.824218-35.273437-35.273437 0-19.453125 15.824218-35.277344 35.273437-35.277344h20.105469v-94h-20.105469c-71.28125 0-129.273437 57.992187-129.273437 129.277344 0 71.28125 57.992187 129.273437 129.273437 129.273437zm0 0" fill="#65b1fc"/><path d="m281.425781 195.796875h20.105469v-94h-20.105469c-8.84375 0-17.480469.894531-25.832031 2.597656v102.691407c6.445312-6.9375 15.640625-11.289063 25.832031-11.289063zm0 0" fill="#65b1fc"/><path d="m281.425781 266.347656c-10.191406 0-19.386719-4.351562-25.832031-11.285156v102.691406c8.351562 1.699219 16.988281 2.59375 25.832031 2.59375h208.398438c12.917969-28.898437 20.621093-60.625 21.949219-94zm0 0" fill="#4a98f7"/><path d="m281.003906 209.839844c-.488281-16.480469 12.777344-30.042969 29.148438-30.042969 35.621094 0 47.34375-28.875 47.34375-64.496094v-13.503906h-46.164063c-59.132812 0-107.996093 47.402344-108.339843 106.535156-.339844 59.375 47.863281 107.789063 107.160156 107.789063h194.730468c4.640626-19.285156 7.117188-39.414063 7.117188-60.121094 0-6.011719-.222656-11.972656-.632812-17.878906h-200.59375c-15.867188 0-29.296876-12.417969-29.769532-28.28125zm0 0" fill="#87c7ff"/><path d="m511.367188 238.121094h-200.59375c-15.867188 0-29.296876-12.417969-29.769532-28.277344-.488281-16.484375 12.777344-30.042969 29.148438-30.042969 35.621094 0 47.34375-28.878906 47.34375-64.5v-13.5h-46.164063c-20.304687 0-39.402343 5.589844-55.738281 15.324219v184.03125c15.992188 9.5 34.648438 14.964844 54.558594 14.964844h194.730468c4.640626-19.285156 7.117188-39.414063 7.117188-60.121094 0-6.011719-.222656-11.972656-.632812-17.878906zm0 0" fill="#65b1fc"/><path d="m370.46875 124.542969c.664062-2.90625 1.023438-5.929688 1.023438-9.039063 0-22.367187-18.128907-40.5-40.496094-40.5-3.175782 0-6.257813.378906-9.222656 1.066406-7.425782-9.019531-18.679688-14.769531-31.277344-14.769531-22.363282 0-40.496094 18.128907-40.496094 40.496094 0 9.046875 2.96875 17.398437 7.980469 24.140625-5.011719 6.742188-7.980469 15.09375-7.980469 24.140625 0 12.699219 5.851562 24.03125 15 31.457031-.664062 2.90625-1.027344 5.929688-1.027344 9.039063 0 22.367187 18.132813 40.5 40.5 40.5 20.355469 0 37.199219-15.023438 40.0625-34.585938.144532 0 .289063.011719.433594.011719 22.367188 0 40.5-18.132812 40.5-40.5 0-12.699219-5.851562-24.03125-15-31.457031zm0 0" fill="#dbeeff"/><path d="m251.023438 141.023438c-.664063 2.914062-1.023438 5.941406-1.023438 9.054687 0 12.699219 5.851562 24.03125 15 31.453125-.664062 2.910156-1.027344 5.933594-1.027344 9.042969 0 22.367187 18.132813 40.5 40.5 40.5 20.355469 0 37.199219-15.023438 40.0625-34.585938.144532 0 .289063.007813.433594.007813 22.367188 0 40.5-18.128906 40.5-40.496094 0-5.292969-1.03125-10.34375-2.878906-14.976562zm0 0" fill="#bfe1ff"/></svg>