<svg height="512pt" viewBox="0 0 512 512" width="512pt" xmlns="http://www.w3.org/2000/svg"><path d="m512 256c0 141.386719-114.613281 256-256 256s-256-114.613281-256-256 114.613281-256 256-256 256 114.613281 256 256zm0 0" fill="#fe6a16"/><path d="m512 256c0-21.683594-2.707031-42.730469-7.78125-62.839844l-63.816406-63.816406-13.738282 3.820312-52.667968-51.925781-48.367188 84.890625-84.628906-84.625-158.769531 122.75 50.074219 50.070313-15.304688 10.175781 21.539062 21.539062-21.539062 15.390626 45.34375 45.34375-54.054688 48.296874 114.832032 114.835938c10.765625 1.378906 21.738281 2.09375 32.878906 2.09375 141.386719 0 256-114.613281 256-256zm0 0" fill="#f24500"/><path d="m259.648438 223.617188c32.644531 0 59.109374-26.460938 59.109374-59.105469 0-32.648438-26.464843-59.109375-59.109374-59.109375-1.324219 0-2.632813.058594-3.933594.144531-9.425782-26.539063-34.753906-45.546875-64.527344-45.546875-29.722656 0-55.019531 18.945312-64.480469 45.421875-.238281-.003906-.476562-.019531-.71875-.019531-32.644531 0-59.109375 26.464844-59.109375 59.109375s26.464844 59.109375 59.109375 59.109375h133.660157zm0 0" fill="#bfe1ff"/><path d="m259.648438 105.402344c-1.324219 0-2.632813.058594-3.933594.144531-9.425782-26.539063-34.753906-45.546875-64.527344-45.546875-.160156 0-.316406.007812-.472656.011719v163.609375h68.933594c32.644531 0 59.109374-26.464844 59.109374-59.109375 0-32.648438-26.464843-59.109375-59.109374-59.109375zm0 0" fill="#a3d4ff"/><path d="m392.890625 223.617188c32.644531 0 59.109375-26.460938 59.109375-59.105469 0-32.648438-26.464844-59.109375-59.109375-59.109375-1.324219 0-2.632813.058594-3.933594.144531-9.425781-26.539063-34.753906-45.546875-64.527343-45.546875-29.722657 0-55.019532 18.945312-64.480469 45.421875-.238281-.003906-.476563-.019531-.71875-.019531-32.644531 0-59.109375 26.464844-59.109375 59.109375s26.464844 59.109375 59.109375 59.109375h133.660156zm0 0" fill="#fff"/><path d="m392.890625 105.402344c-1.324219 0-2.632813.058594-3.933594.144531-9.425781-26.539063-34.753906-45.546875-64.527343-45.546875-.125 0-.253907.007812-.382813.007812v163.613282h68.84375c32.644531 0 59.109375-26.464844 59.109375-59.109375 0-32.648438-26.464844-59.109375-59.109375-59.109375zm0 0" fill="#dbeeff"/><path d="m296.042969 382.992188-32.855469-34.195313-46.042969 11.355469-13.1875 45.554687 32.855469 34.195313 46.046875-11.355469zm0 0" fill="#bfe1ff"/><path d="m296.042969 382.992188-32.855469-34.195313-7.59375 1.871094v84.601562l27.265625-6.722656zm0 0" fill="#a3d4ff"/><g fill="#fff"><path d="m241 245h30v19.5h-30zm0 0"/><path d="m241 278.570312h30v22.859376h-30zm0 0"/><path d="m241 315.5h30v19.5h-30zm0 0"/></g><path d="m255.59375 245h15.40625v19.5h-15.40625zm0 0" fill="#e9edf5"/><path d="m255.59375 278.570312h15.40625v22.859376h-15.40625zm0 0" fill="#e9edf5"/><path d="m255.59375 315.5h15.40625v19.5h-15.40625zm0 0" fill="#e9edf5"/><path d="m117 245h30v19.5h-30zm0 0" fill="#fff"/><path d="m117 278.570312h30v22.859376h-30zm0 0" fill="#fff"/><path d="m117 315.5h30v19.5h-30zm0 0" fill="#fff"/><path d="m345 245h30v19.5h-30zm0 0" fill="#e9edf5"/><path d="m345 278.570312h30v22.859376h-30zm0 0" fill="#e9edf5"/><path d="m345 315.5h30v19.5h-30zm0 0" fill="#fff"/><path d="m155.710938 312.929688h-47.421876l-23.714843 41.070312 23.714843 41.070312h47.421876l23.714843-41.070312zm0 0" fill="#bfe1ff"/><path d="m383.710938 312.929688h-47.421876l-23.714843 41.070312 23.714843 41.070312h47.421876l23.714843-41.070312zm0 0" fill="#a3d4ff"/></svg>