<svg height="512pt" viewBox="0 0 512 512" width="512pt" xmlns="http://www.w3.org/2000/svg"><path d="m512 256c0 141.386719-114.613281 256-256 256s-256-114.613281-256-256 114.613281-256 256-256 256 114.613281 256 256zm0 0" fill="#fe6a16"/><path d="m510.796875 231.15625-148.871094-148.871094-68.234375 283.144532 103.878906 103.878906c68.96875-45.867188 114.429688-124.273438 114.429688-213.308594 0-8.382812-.414062-16.667969-1.203125-24.84375zm0 0" fill="#f24500"/><path d="m383.070312 397.816406h-254.140624v-259.632812c0-46.65625 37.820312-84.476563 84.472656-84.476563h85.195312c46.652344 0 84.472656 37.820313 84.472656 84.476563zm0 0" fill="#e4e4e4"/><path d="m383.070312 138.183594c0-46.65625-37.820312-84.476563-84.472656-84.476563h-43v344.105469h127.472656zm0 0" fill="#d9d9d9"/><path d="m32.566406 381c43.820313 78.164062 127.449219 131 223.433594 131s179.613281-52.835938 223.433594-131zm0 0" fill="#00bd9d"/><path d="m255.59375 381v130.996094c.136719 0 .269531.003906.40625.003906 95.984375 0 179.613281-52.835938 223.433594-131zm0 0" fill="#0f9887"/><path d="m333.054688 227.757812v-55.5h-49.304688v-49.046874h-55.5v49.046874h-49.304688v55.5h49.304688v107.242188h55.5v-107.242188zm0 0" fill="#595959"/><path d="m283.75 172.257812v-49.046874h-28.15625v211.789062h28.15625v-107.242188h49.304688v-55.5zm0 0" fill="#474747"/></svg>