<svg height="512pt" viewBox="0 0 512 512.001" width="512pt" xmlns="http://www.w3.org/2000/svg"><path d="m512 256c0 141.386719-114.613281 256-256 256-141.382812 0-256-114.613281-256-256s114.617188-256 256-256c141.386719 0 256 114.613281 256 256zm0 0" fill="#fe6a16"/><path d="m506.507812 308.929688-184.003906-184.003907-19.511718 21.277344-47.808594-47.804687-164.386719 183.726562 223.261719 223.261719c96.464844-22.367188 172.015625-99.265625 192.449218-196.457031zm0 0" fill="#f24500"/><path d="m208.722656 80.089844 46.46875 18.308594-26.679687 67.707031-46.46875-18.308594zm0 0" fill="#fff"/><path d="m276.042969 106.613281 46.46875 18.3125-26.679688 67.707031-46.46875-18.308593zm0 0" fill="#e9edf5"/><path d="m178.550781 120.394531 200.253907 78.90625-25.660157 65.117188-200.25-78.90625zm0 0" fill="#e6e6e6"/><path d="m378.792969 199.300781-123.199219-48.546875v75.226563l97.539062 38.433593zm0 0" fill="#d7d7d7"/><path d="m338.21875 379.621094-247.421875-97.496094-4.46875-134.613281 346.988281 136.726562zm0 0" fill="#fff"/><path d="m433.316406 284.238281-177.722656-70.027343v132.851562l82.625 32.558594zm0 0" fill="#e9edf5"/><path d="m1.457031 283.359375c13.65625 128.519531 122.402344 228.640625 254.542969 228.640625s240.886719-100.121094 254.542969-228.636719c-6.265625-2.113281-13.804688-3.566406-24.128907-3.566406-38.402343 0-38.402343 20-76.808593 20-38.402344 0-38.402344-20-76.804688-20-38.40625 0-38.40625 20-76.808593 20-38.402344 0-38.402344-20-76.804688-20-38.40625 0-38.40625 20-76.808594 20s-38.402344-20-76.804687-20c-10.320313 0-17.851563 1.449219-24.117188 3.5625zm0 0" fill="#4a7aff"/><path d="m486.414062 279.796875c-38.402343 0-38.402343 20-76.808593 20-38.402344 0-38.402344-20-76.804688-20-38.40625 0-38.40625 20-76.808593 20-.136719 0-.261719-.007813-.398438-.007813v212.207032c.136719 0 .273438.003906.40625.003906 132.140625 0 240.886719-100.117188 254.542969-228.636719-6.265625-2.113281-13.800781-3.566406-24.128907-3.566406zm0 0" fill="#0053bf"/><path d="m20.929688 357.507812c39.300781 90.886719 129.75 154.492188 235.070312 154.492188s195.769531-63.605469 235.070312-154.492188c-1.488281-.070312-3.035156-.109374-4.65625-.109374-38.402343 0-38.402343 20-76.808593 20-38.402344 0-38.402344-20-76.804688-20-38.402343 0-38.402343 20-76.808593 20-38.402344 0-38.402344-20-76.804688-20s-38.402344 20-76.808594 20c-38.402344 0-38.402344-20-76.804687-20-1.617188 0-3.15625.039062-4.644531.109374zm0 0" fill="#65b1fc"/><path d="m486.414062 357.398438c-38.402343 0-38.402343 20-76.808593 20-38.402344 0-38.402344-20-76.804688-20-38.40625 0-38.40625 20-76.808593 20-.136719 0-.261719-.007813-.398438-.007813v134.605469c.136719 0 .273438.003906.40625.003906 105.320312 0 195.769531-63.605469 235.070312-154.492188-1.488281-.070312-3.035156-.109374-4.65625-.109374zm0 0" fill="#4a98f7"/></svg>