<svg height="512pt" viewBox="0 0 512 512" width="512pt" xmlns="http://www.w3.org/2000/svg"><path d="m512 256c0 141.386719-114.613281 256-256 256s-256-114.613281-256-256 114.613281-256 256-256 256 114.613281 256 256zm0 0" fill="#fe6a16"/><path d="m512 256c0-4.523438-.121094-9.019531-.351562-13.488281l-128.980469-128.980469-10.664063 22.351562-70.890625-70.894531-.453125 18.160157-44.652344-44.652344-1.746093 69.855468-43.363281-43.363281 28 90.203125-54.601563-54.597656 60.988281 154.585938-112.757812 138.320312 118.441406 118.4375c1.671875.03125 3.347656.0625 5.03125.0625 141.386719 0 256-114.613281 256-256zm0 0" fill="#f24500"/><path d="m160.511719 206.199219c0-55.6875 23.785156-105.605469 23.785156-105.605469s2.320313 4.394531 5.511719 10.839844c6.226562-18.289063 21.089844-46.445313 21.089844-46.445313s8.652343 16.390625 15.519531 32.285157c8.910156-23.363282 29.589843-58.777344 29.589843-58.777344s20.675782 35.414062 29.582032 58.777344c6.871094-15.890626 15.523437-32.285157 15.523437-32.285157s14.863281 28.160157 21.085938 46.445313c3.195312-6.445313 5.515625-10.839844 5.515625-10.839844s23.777344 53.53125 23.777344 105.628906c0 52.738282-42.753907 95.488282-95.488282 95.488282s-95.492187-42.773438-95.492187-95.511719zm0 0" fill="#ffce00"/><path d="m327.714844 100.59375s-2.320313 4.394531-5.515625 10.839844c-6.226563-18.285156-21.085938-46.445313-21.085938-46.445313s-8.652343 16.390625-15.523437 32.285157c-8.910156-23.363282-29.582032-58.777344-29.582032-58.777344s-.007812.007812-.007812.011718v263.203126h.003906c52.734375 0 95.488282-42.75 95.488282-95.488282-.003907-52.097656-23.777344-105.628906-23.777344-105.628906zm0 0" fill="#ffa300"/><path d="m225 331.730469h62v107.335937h-62zm0 0" fill="#a65d4e"/><path d="m256 331.730469h31v107.335937h-31zm0 0" fill="#784132"/><path d="m379.472656 393.5-76.726562-143.445312h33.316406l-80.0625-149.679688-80.0625 149.679688h33.316406l-76.726562 143.445312zm0 0" fill="#06ccab"/><path d="m302.746094 250.054688h33.316406l-80.0625-149.679688v293.125h123.472656zm0 0" fill="#00bd9d"/><path d="m382.667969 113.53125-103.902344 174.9375h54.074219l-51.851563 128.53125 128.183594-176.242188h-59.878906zm0 0" fill="#fff"/><path d="m398.449219 255.5h-100.101563l-19.582031 32.96875h54.074219l-51.851563 128.53125zm0 0" fill="#e9edf5"/></svg>