<svg height="512pt" viewBox="0 0 512 512" width="512pt" xmlns="http://www.w3.org/2000/svg"><path d="m512 256c0 141.386719-114.613281 256-256 256s-256-114.613281-256-256 114.613281-256 256-256 256 114.613281 256 256zm0 0" fill="#4a7aff"/><path d="m511.425781 272.984375-141.808593-141.808594-270.90625 227.15625 153.621093 153.621094c1.222657.015625 2.441407.046875 3.667969.046875 135.675781 0 246.679688-105.550781 255.425781-239.015625zm0 0" fill="#0053bf"/><path d="m142.382812 193.859375h270.90625v206.988281h-270.90625zm0 0" fill="#bfe1ff"/><path d="m276.429688 193.859375h136.859374v206.988281h-136.859374zm0 0" fill="#a3d4ff"/><path d="m98.710938 131.175781h270.90625v227.160157h-270.90625zm0 0" fill="#fff"/><path d="m232.976562 131.175781h136.640626v227.160157h-136.640626zm0 0" fill="#e9edf5"/><path d="m120.339844 152.53125h227.648437v76.832031h-227.648437zm0 0" fill="#fe6a16"/><path d="m232.976562 152.53125h115.011719v76.832031h-115.011719zm0 0" fill="#f24500"/><g fill="#fff"><path d="m133.433594 168.597656h13.300781l17.359375 25.507813v-25.507813h13.429688v46.105469h-13.429688l-17.265625-25.316406v25.316406h-13.394531zm0 0"/><path d="m186.960938 168.597656h38.175781v9.84375h-23.898438v7.328125h22.167969v9.402344h-22.167969v9.089844h24.589844v10.441406h-38.867187zm0 0"/><path d="m228.753906 168.597656h13.53125l4.871094 25.8125 7.132812-25.8125h13.480469l7.148438 25.777344 4.878906-25.777344h13.460937l-10.164062 46.105469h-13.972656l-8.085938-29.027344-8.054687 29.027344h-13.96875zm0 0"/></g><path d="m279.796875 168.597656-4.878906 25.777344-7.148438-25.777344h-13.480469l-7.132812 25.8125-4.871094-25.8125h-9.308594v18.972656l6.035157 27.132813h13.96875l8.054687-29.027344 8.089844 29.027344h13.96875l10.164062-46.105469zm0 0" fill="#e9edf5"/><path d="m295.425781 199.449219 13.554688-.847657c.292969 2.203126.890625 3.878907 1.792969 5.03125 1.46875 1.867188 3.566406 2.800782 6.289062 2.800782 2.035156 0 3.601562-.480469 4.703125-1.433594s1.652344-2.058594 1.652344-3.316406c0-1.195313-.523438-2.265625-1.574219-3.207032-1.046875-.945312-3.480469-1.835937-7.296875-2.675781-6.246094-1.402343-10.703125-3.269531-13.363281-5.597656-2.6875-2.324219-4.027344-5.292969-4.027344-8.898437 0-2.371094.6875-4.609376 2.058594-6.714844 1.375-2.105469 3.4375-3.761719 6.195312-4.96875 2.757813-1.207032 6.535156-1.808594 11.335938-1.808594 5.894531 0 10.386718 1.09375 13.476562 3.285156 3.09375 2.191406 4.933594 5.675782 5.519532 10.457032l-13.425782.789062c-.359375-2.078125-1.105468-3.585938-2.25-4.53125-1.144531-.941406-2.71875-1.414062-4.734375-1.414062-1.65625 0-2.902343.351562-3.742187 1.054687-.835938.703125-1.257813 1.554687-1.257813 2.5625 0 .734375.347657 1.394531 1.039063 1.980469.667968.609375 2.265625 1.175781 4.78125 1.699218 6.226562 1.339844 10.6875 2.699219 13.378906 4.070313 2.695312 1.375 4.65625 3.078125 5.882812 5.113281 1.226563 2.03125 1.839844 4.308594 1.839844 6.824219 0 2.953125-.816406 5.679687-2.453125 8.175781s-3.921875 4.386719-6.855469 5.675782c-2.9375 1.289062-6.636718 1.933593-11.101562 1.933593-7.84375 0-13.273438-1.507812-16.292969-4.527343-3.015625-3.019532-4.726562-6.855469-5.125-11.511719zm0 0" fill="#e9edf5"/><path d="m120.339844 245.761719h99.328125v17.597656h-99.328125zm0 0" fill="#a3d4ff"/><path d="m120.339844 279.753906h99.328125v17.597656h-99.328125zm0 0" fill="#a3d4ff"/><path d="m248.660156 245.761719h99.328125v17.597656h-99.328125zm0 0" fill="#87c7ff"/><path d="m248.660156 279.753906h99.328125v17.597656h-99.328125zm0 0" fill="#87c7ff"/><path d="m120.339844 313.75h99.328125v17.597656h-99.328125zm0 0" fill="#a3d4ff"/><path d="m248.660156 313.75h99.328125v17.597656h-99.328125zm0 0" fill="#87c7ff"/></svg>