<svg height="512pt" viewBox="0 0 512 512" width="512pt" xmlns="http://www.w3.org/2000/svg"><path d="m512 256c0 141.386719-114.613281 256-256 256s-256-114.613281-256-256 114.613281-256 256-256 256 114.613281 256 256zm0 0" fill="#fe6a16"/><path d="m489.839844 360.316406-145.613282-145.613281-106.160156 74.484375-74.484375-74.484375-119.445312 185.03125 68.128906 68.128906c40.976563 27.851563 90.453125 44.136719 143.734375 44.136719 104.230469 0 193.902344-62.296875 233.839844-151.683594zm0 0" fill="#f24500"/><path d="m297.019531 331.730469 47.207031-117.027344h-130.84375l-33.957031 82.648437-15.84375-82.648437h-34.378906l-129.0625 33.226563c-.0859375 2.679687-.140625 5.367187-.140625 8.070312 0 53.28125 16.285156 102.757812 44.136719 143.734375l160.300781-22.570313h116.847656l146.984375 21.980469c27.609375-40.859375 43.730469-90.121093 43.730469-143.144531 0-2.375-.039062-4.738281-.101562-7.097656l-132.859376-29.941406zm0 0" fill="#595959"/><path d="m511.898438 248.902344-132.859376-29.941406-82.019531 112.769531 47.207031-117.027344h-88.632812v162.460937h65.6875l146.988281 21.980469c27.609375-40.859375 43.730469-90.121093 43.730469-143.144531 0-2.375-.039062-4.738281-.101562-7.097656zm0 0" fill="#474747"/><path d="m179.425781 297.355469-4.316406-22.5-34.257813-1.195313-1.046874 29.980469 111.929687 3.910156 1.046875-29.984375-64.304688-2.246094zm0 0" fill="#fff"/><path d="m120.859375 308.484375-7.652344-29.007813-107.929687 28.472657c.832031 4.042969 1.757812 8.050781 2.78125 12.023437l.007812.023438c1.472656 5.722656 3.148438 11.363281 5 16.921875zm0 0" fill="#fff"/><g fill="#e9edf5"><path d="m505.742188 312.453125-90.488282-23.847656-7.648437 29.011719 89.824219 23.667968c3.3125-9.371094 6.097656-18.992187 8.3125-28.832031zm0 0"/><path d="m317.949219 279.84375-41.179688-1.4375-1.046875 29.980469 30.289063 1.058593zm0 0"/><path d="m334.34375 280.414062-21.292969 29.277344 74.601563 2.605469 1.046875-29.984375zm0 0"/></g></svg>