<svg height="512pt" viewBox="0 0 512 512" width="512pt" xmlns="http://www.w3.org/2000/svg"><path d="m512 256c0 141.386719-114.613281 256-256 256s-256-114.613281-256-256 114.613281-256 256-256 256 114.613281 256 256zm0 0" fill="#4a7aff"/><path d="m69.882812 255.308594 16.722657 69.457031 186.640625 186.644531c133.339844-8.875 238.753906-119.824218 238.753906-255.410156 0-6.34375-.238281-12.628906-.691406-18.855469l-85.914063-85.910156 1.890625 19.050781-77.285156-77.285156-75.273438 246.355469-188.121093-188.121094zm0 0" fill="#0053bf"/><path d="m162 93h188v318h-188zm0 0" fill="#fff"/><path d="m255.59375 93h94.40625v318h-94.40625zm0 0" fill="#e9edf5"/><path d="m32.566406 381c43.820313 78.164062 127.449219 131 223.433594 131s179.613281-52.835938 223.433594-131zm0 0" fill="#fe6a16"/><path d="m255.59375 381v130.996094c.136719 0 .269531.003906.40625.003906 95.984375 0 179.613281-52.835938 223.433594-131zm0 0" fill="#f24500"/><path d="m181.375 110h40.25v71h-40.25zm0 0" fill="#cfcfcf"/><path d="m290.375 110h40.25v71h-40.25zm0 0" fill="#c1c1c1"/><path d="m235.875 110h40.25v71h-40.25zm0 0" fill="#cfcfcf"/><path d="m181.375 196h40.25v71h-40.25zm0 0" fill="#cfcfcf"/><path d="m290.375 196h40.25v71h-40.25zm0 0" fill="#c1c1c1"/><path d="m235.875 196h40.25v71h-40.25zm0 0" fill="#cfcfcf"/><path d="m181.375 288.605469h40.25v71h-40.25zm0 0" fill="#cfcfcf"/><path d="m290.375 288.605469h40.25v71h-40.25zm0 0" fill="#c1c1c1"/><path d="m235.875 288.605469h40.25v92.394531h-40.25zm0 0" fill="#adadad"/><path d="m255.59375 110h20.53125v71h-20.53125zm0 0" fill="#c1c1c1"/><path d="m255.59375 196h20.53125v71h-20.53125zm0 0" fill="#c1c1c1"/><path d="m255.59375 288.605469h20.53125v92.394531h-20.53125zm0 0" fill="#9c9c9c"/><path d="m86.605469 324.765625c-23.175781-23.175781-35.941407-53.988281-35.941407-86.765625s12.765626-63.589844 35.941407-86.765625l21.210937 21.210937c-36.144531 36.148438-36.144531 94.960938 0 131.109376zm0 0" fill="#ffce00"/><path d="m116.796875 286.6875c-13.003906-13.003906-20.164063-30.296875-20.164063-48.6875s7.160157-35.683594 20.164063-48.6875l21.214844 21.214844c-7.339844 7.335937-11.378907 17.09375-11.378907 27.472656s4.039063 20.136719 11.378907 27.472656zm0 0" fill="#ffce00"/><g fill="#ffa300"><path d="m425.394531 324.765625-21.210937-21.210937c17.507812-17.511719 27.152344-40.792969 27.152344-65.554688s-9.644532-48.042969-27.152344-65.550781l21.210937-21.214844c23.179688 23.175781 35.941407 53.988281 35.941407 86.765625s-12.765626 63.589844-35.941407 86.765625zm0 0"/><path d="m395.203125 286.6875-21.214844-21.214844c7.339844-7.335937 11.378907-17.09375 11.378907-27.472656s-4.039063-20.132812-11.378907-27.472656l21.214844-21.214844c13.003906 13.007812 20.164063 30.296875 20.164063 48.6875 0 18.394531-7.160157 35.683594-20.164063 48.6875zm0 0"/></g></svg>