<svg height="512pt" viewBox="0 0 512 512" width="512pt" xmlns="http://www.w3.org/2000/svg"><path d="m512 256c0 141.386719-114.613281 256-256 256s-256-114.613281-256-256 114.613281-256 256-256 256 114.613281 256 256zm0 0" fill="#4a7aff"/><path d="m64.214844 296.578125 214.414062 214.414063c13.074219-1.144532 25.863282-3.269532 38.300782-6.308594l-232.359376-232.359375zm0 0" fill="#0053bf"/><path d="m512 256c0-21.25-2.605469-41.886719-7.488281-61.628906l-110.382813-110.386719-22.40625 23.617187 85.390625 85.390626-7.410156 10.707031-86.539063-86.539063-11.078124 13.480469-53.640626-53.640625-140.292968 123.929688-66.082032-66.078126-23.519531 20.078126 61.820313 61.816406-22.542969 12.839844 257.804687 257.800781c86.527344-41.070313 146.367188-129.234375 146.367188-231.386719zm0 0" fill="#0053bf"/><path d="m383.042969 425.953125h-254.085938v-229.085937l127.042969-100.960938 127.042969 100.960938zm0 0" fill="#ffce00"/><path d="m383.042969 196.867188-127.042969-100.960938-.40625.320312v329.726563h127.449219zm0 0" fill="#ffa300"/><path d="m205.519531 256h100.960938v140.285156h-100.960938zm0 0" fill="#fe6a16"/><path d="m255.59375 256h50.886719v140.285156h-50.886719zm0 0" fill="#f24500"/><path d="m87.761719 282.007812c0 8.992188-7.289063 16.28125-16.28125 16.28125-8.988281 0-16.28125-7.289062-16.28125-16.28125 0-8.992187 7.292969-16.28125 16.28125-16.28125 8.992187 0 16.28125 7.289063 16.28125 16.28125zm0 0" fill="#fff"/><path d="m93.28125 141.007812c0 8.992188-7.289062 16.28125-16.28125 16.28125s-16.28125-7.289062-16.28125-16.28125c0-8.992187 7.289062-16.28125 16.28125-16.28125s16.28125 7.289063 16.28125 16.28125zm0 0" fill="#fff"/><g fill="#dbeeff"><path d="m449.597656 288.605469c0 8.992187-7.289062 16.28125-16.28125 16.28125-8.992187 0-16.28125-7.289063-16.28125-16.28125 0-8.992188 7.289063-16.28125 16.28125-16.28125 8.992188 0 16.28125 7.289062 16.28125 16.28125zm0 0"/><path d="m468.28125 199.921875c0 8.992187-7.289062 16.28125-16.28125 16.28125s-16.28125-7.289063-16.28125-16.28125 7.289062-16.28125 16.28125-16.28125 16.28125 7.289063 16.28125 16.28125zm0 0"/><path d="m399.324219 95.90625c0 8.992188-7.289063 16.28125-16.28125 16.28125-8.992188 0-16.28125-7.289062-16.28125-16.28125s7.289062-16.28125 16.28125-16.28125c8.992187 0 16.28125 7.289062 16.28125 16.28125zm0 0"/><path d="m462.199219 348c-7.453125-14.082031-24.105469-23.894531-43.464844-23.894531-15.015625 0-28.398437 5.902343-37.132813 15.117187-15.105468-23.582031-41.519531-39.222656-71.601562-39.222656-25.8125 0-48.917969 11.519531-64.507812 29.683594-6.011719-3.539063-13.011719-5.578125-20.492188-5.578125-16.441406 0-30.578125 9.8125-36.910156 23.894531h-8.417969c-8.699219-14.082031-28.125-23.894531-50.714844-23.894531-22.589843 0-42.019531 9.8125-50.714843 23.894531h-61.1875c36.953124 95.929688 129.992187 164 238.945312 164s201.992188-68.070312 238.945312-164zm0 0"/></g><path d="m462.199219 348c-7.453125-14.082031-24.105469-23.894531-43.464844-23.894531-15.015625 0-28.398437 5.902343-37.132813 15.117187-15.105468-23.582031-41.519531-39.222656-71.601562-39.222656-20.703125 0-39.664062 7.417969-54.40625 19.726562v192.269532c.136719 0 .269531.003906.40625.003906 108.953125 0 201.992188-68.070312 238.945312-164zm0 0" fill="#bfe1ff"/><path d="m375.3125 150.835938c-1.277344 0-2.542969.0625-3.792969.171874.246094-1.984374.386719-3.996093.386719-6.046874 0-26.851563-21.769531-48.621094-48.625-48.621094-4.433594 0-8.726562.601562-12.808594 1.714844-7.269531-23.167969-28.90625-39.976563-54.472656-39.976563s-47.203125 16.808594-54.472656 39.976563c-4.082032-1.113282-8.375-1.714844-12.808594-1.714844-26.855469 0-48.625 21.769531-48.625 48.621094 0 2.050781.140625 4.0625.386719 6.046874-1.25-.105468-2.515625-.171874-3.792969-.171874-25.6875 0-46.300781 21.703124-44.503906 47.773437 1.535156 22.273437 19.066406 39.804687 41.339844 41.339844 26.070312 1.800781 47.777343-18.816407 47.777343-44.503907 0-.816406-.027343-1.628906-.070312-2.433593 2.441406.375 4.941406.574219 7.488281.574219 14.191406 0 26.960938-6.085938 35.84375-15.785157 5.121094-5.589843 12.691406-8.1875 20.117188-6.683593 3.660156.738281 7.441406 1.128906 11.320312 1.128906s7.660156-.390625 11.320312-1.128906c7.425782-1.5 14.996094 1.09375 20.113282 6.683593 8.886718 9.703125 21.652344 15.785157 35.847656 15.785157 2.546875 0 5.046875-.195313 7.488281-.574219-.042969.808593-.070312 1.617187-.070312 2.4375 0 25.683593 21.707031 46.300781 47.777343 44.503906 22.273438-1.539063 39.804688-19.070313 41.339844-41.34375 1.796875-26.070313-18.816406-47.773437-44.503906-47.773437zm0 0" fill="#fff"/><path d="m375.3125 150.835938c-1.277344 0-2.542969.0625-3.792969.167968.246094-1.980468.386719-3.992187.386719-6.042968 0-26.851563-21.769531-48.621094-48.625-48.621094-4.433594 0-8.726562.601562-12.808594 1.714844-7.269531-23.167969-28.90625-39.976563-54.472656-39.976563-.136719 0-.269531.007813-.40625.007813v114.148437c.136719 0 .269531.007813.40625.007813 3.875 0 7.660156-.386719 11.320312-1.128907 7.425782-1.5 14.996094 1.097657 20.113282 6.683594 8.886718 9.703125 21.652344 15.789063 35.847656 15.789063 2.546875 0 5.046875-.199219 7.488281-.574219-.042969.804687-.070312 1.617187-.070312 2.433593 0 25.6875 21.707031 46.300782 47.777343 44.503907 22.273438-1.535157 39.804688-19.066407 41.339844-41.339844 1.796875-26.070313-18.816406-47.773437-44.503906-47.773437zm0 0" fill="#dbeeff"/></svg>