<svg height="512pt" viewBox="0 0 512 512" width="512pt" xmlns="http://www.w3.org/2000/svg"><path d="m512 256c0 141.386719-114.613281 256-256 256s-256-114.613281-256-256 114.613281-256 256-256 256 114.613281 256 256zm0 0" fill="#00bd9d"/><path d="m511.921875 262.070312-166.421875-166.425781-268.5 278.988281 133.292969 133.292969c14.832031 2.675781 30.105469 4.074219 45.707031 4.074219 139.355469 0 252.699219-111.351562 255.921875-249.929688zm0 0" fill="#0f9887"/><path d="m77 235.140625h179v139.492187h-179zm0 0" fill="#ffce00"/><path d="m166.308594 235.140625h89.691406v139.492187h-89.691406zm0 0" fill="#ffa300"/><path d="m137.867188 235.140625h57.265624v57.261719h-57.265624zm0 0" fill="#ffb600"/><path d="m166.308594 235.140625h28.824218v57.261719h-28.824218zm0 0" fill="#ff9500"/><path d="m256 235.140625h179v139.492187h-179zm0 0" fill="#ffce00"/><path d="m345.476562 235.140625h89.523438v139.492187h-89.523438zm0 0" fill="#ffa300"/><path d="m316.867188 235.140625h57.265624v57.261719h-57.265624zm0 0" fill="#ff9500"/><path d="m345.476562 235.140625h28.65625v57.261719h-28.65625zm0 0" fill="#fe8205"/><path d="m166.5 95.644531h179v139.496094h-179zm0 0" fill="#ffce00"/><path d="m255.59375 95.644531h89.90625v139.496094h-89.90625zm0 0" fill="#ffa300"/><path d="m227.367188 95.644531h57.265624v57.265625h-57.265624zm0 0" fill="#ff9500"/><path d="m255.59375 95.644531h29.039062v57.265625h-29.039062zm0 0" fill="#fe8205"/></svg>