<svg height="512pt" viewBox="0 0 512 512" width="512pt" xmlns="http://www.w3.org/2000/svg"><path d="m512 256c0 141.386719-114.613281 256-256 256s-256-114.613281-256-256 114.613281-256 256-256 256 114.613281 256 256zm0 0" fill="#ffce00"/><path d="m170 184.933594h178.234375v171.699218h-178.234375zm0 0" fill="#e0aea2"/><path d="m256 184.933594h93v171.699218h-93zm0 0" fill="#d79b8c"/><path d="m256 64.542969-138.558594 50v277.117187h93.082032l18.476562-61.328125-40-14.664062 53.332031-116.667969 3.335938 92.667969 77.355469 44.664062-22.75 55.328125h94.285156v-277.117187zm0 0" fill="#a65d4e"/><path d="m256 64.542969v233.089843l67.023438 38.699219-22.75 55.328125h94.285156v-277.117187zm0 0" fill="#915041"/><path d="m404.179688 135.023438-148.179688-53.46875-148.179688 53.46875-10.859374-30.097657 159.039062-57.390625 159.039062 57.390625zm0 0" fill="#c38778"/><path d="m256 47.535156v34.019532l148.179688 53.46875 10.859374-30.097657zm0 0" fill="#b46e5a"/><path d="m291 152.910156h64.046875v64.042969h-64.046875zm0 0" fill="#e6e6e6"/><path d="m144.976562 152.910156h64.046876v64.042969h-64.046876zm0 0" fill="#fff"/><path d="m256 396.332031-60.332031 77.167969 25.488281-116.867188h-200.605469c39.09375 91.355469 129.792969 155.367188 235.449219 155.367188s196.355469-64.011719 235.449219-155.367188h-176.773438zm0 0" fill="#fe6a16"/><path d="m314.675781 356.632812-58.675781 39.699219v115.667969c105.65625 0 196.355469-64.011719 235.449219-155.367188zm0 0" fill="#f24500"/></svg>