<svg height="512pt" viewBox="0 0 512 512" width="512pt" xmlns="http://www.w3.org/2000/svg"><path d="m512 256c0 141.386719-114.613281 256-256 256s-256-114.613281-256-256 114.613281-256 256-256 256 114.613281 256 256zm0 0" fill="#a65d4e"/><path d="m512 256c0-3.6875-.097656-7.355469-.25-11.003906l-105.976562-105.976563-350.8125 228.367188 136.367187 136.367187c20.65625 5.375 42.328125 8.246094 64.671875 8.246094 141.386719 0 256-114.613281 256-256zm0 0" fill="#784132"/><path d="m457.039062 367.386719h-402.078124l51.265624-228.367188 149.773438-51.265625 149.773438 51.265625zm0 0" fill="#fff"/><path d="m256 367.386719h201.039062l-51.265624-228.367188-149.773438-51.265625zm0 0" fill="#e9edf5"/><path d="m74.710938 279.402344-19.75 87.984375h402.078124l-19.75-87.984375zm0 0" fill="#fe8205"/><path d="m437.289062 279.402344h-181.289062v87.984375h201.039062zm0 0" fill="#fe6a16"/><path d="m318.601562 367.386719h-125.203124v-93.996094c0-34.574219 28.027343-62.601563 62.601562-62.601563s62.601562 28.027344 62.601562 62.601563zm0 0" fill="#f24500"/><path d="m256 367.386719h62.601562v-93.996094c0-34.574219-28.027343-62.601563-62.601562-62.601563zm0 0" fill="#d13400"/><g fill="#f24500"><path d="m186.882812 178.421875h-16.171874v-16.167969h-30v16.167969h-16.167969v30h16.167969v16.171875h30v-16.171875h16.171874zm0 0"/><path d="m387.457031 178.421875h-16.171875v-16.167969h-30v16.167969h-16.167968v30h16.167968v16.171875h30v-16.171875h16.171875zm0 0"/></g></svg>