<svg height="512pt" viewBox="0 0 512 512" width="512pt" xmlns="http://www.w3.org/2000/svg"><path d="m512 256c0 141.386719-114.613281 256-256 256s-256-114.613281-256-256 114.613281-256 256-256 256 114.613281 256 256zm0 0" fill="#4a7aff"/><path d="m512 256c0-10.96875-.691406-21.773438-2.03125-32.378906l-82.976562-82.976563-33.476563 27.507813-42.800781-42.800782-189.433594-1.617187 58.777344 58.777344-135.050782 10.910156 113.996094 113.992187-103.472656 73.21875 129.5 129.496094c10.152344 1.226563 20.484375 1.871094 30.96875 1.871094 141.386719 0 256-114.613281 256-256zm0 0" fill="#0053bf"/><path d="m200.054688 48.117188 150.667968 77.238281-38.765625 75.625-150.671875-77.242188zm0 0" fill="#82d9b6"/><path d="m350.71875 125.355469-94.71875-48.558594v95.496094l55.949219 28.679687zm0 0" fill="#06ccab"/><path d="m270.601562 96.0625c-11.394531-5.839844-27.167968 2.171875-35.230468 17.898438-8.0625 15.726562-5.363282 33.214843 6.035156 39.054687 11.394531 5.84375 27.167969-2.171875 35.230469-17.898437 8.0625-15.726563 5.359375-33.210938-6.035157-39.054688zm0 0" fill="#00bd9d"/><path d="m270.597656 96.066406c-4.558594-2.335937-9.816406-2.585937-14.597656-.878906v58.832031c7.652344-2.347656 15.628906-9.132812 20.632812-18.898437 8.0625-15.726563 5.359376-33.210938-6.035156-39.054688zm0 0" fill="#0f9887"/><path d="m95.53125 170.644531h320.9375v209.988281h-320.9375zm0 0" fill="#dbeeff"/><path d="m256 170.644531h160.46875v209.988281h-160.46875zm0 0" fill="#bfe1ff"/><path d="m85.007812 140.644531h341.984376v52.777344h-341.984376zm0 0" fill="#fff"/><path d="m256 140.644531h170.992188v52.777344h-170.992188zm0 0" fill="#dbeeff"/><path d="m185.125 250c0-20.398438 16.539062-36.9375 36.9375-36.9375 15.214844 0 28.28125 9.203125 33.9375 22.34375 5.65625-13.140625 18.722656-22.34375 33.9375-22.34375 20.398438 0 36.9375 16.539062 36.9375 36.9375 0 47-70.875 85-70.875 85s-70.875-40-70.875-85zm0 0" fill="#fe6a16"/><path d="m256 335s70.875-38 70.875-85c0-20.398438-16.539062-36.9375-36.9375-36.9375-15.214844 0-28.28125 9.203125-33.9375 22.34375zm0 0" fill="#f24500"/></svg>