<svg height="512pt" viewBox="0 0 512 512" width="512pt" xmlns="http://www.w3.org/2000/svg"><path d="m512 256c0 141.386719-114.613281 256-256 256s-256-114.613281-256-256 114.613281-256 256-256 256 114.613281 256 256zm0 0" fill="#00bd9d"/><path d="m512 256c0-4.671875-.132812-9.3125-.382812-13.921875l-100.871094-100.875-19.304688 17.132813-58.441406-58.441407-137.523438 6.605469-92.121093 266.519531 138.589843 138.589844c4.652344.253906 9.335938.390625 14.054688.390625 141.386719 0 256-114.613281 256-256zm0 0" fill="#0f9887"/><path d="m301.511719 184.167969h-91.023438c-21.222656 0-38.488281-17.265625-38.488281-38.488281v-23.691407c0-21.222656 17.265625-38.488281 38.488281-38.488281h91.023438c21.222656 0 38.488281 17.265625 38.488281 38.488281v23.691407c0 21.222656-17.265625 38.488281-38.488281 38.488281zm-91.023438-70.667969c-4.679687 0-8.488281 3.808594-8.488281 8.488281v23.691407c0 4.679687 3.808594 8.484374 8.488281 8.484374h91.023438c4.679687 0 8.488281-3.804687 8.488281-8.484374v-23.691407c0-4.679687-3.808594-8.488281-8.488281-8.488281zm0 0" fill="#ffa426"/><path d="m301.511719 83.5h-45.914063v30h45.914063c4.679687 0 8.488281 3.808594 8.488281 8.488281v23.691407c0 4.679687-3.808594 8.484374-8.488281 8.484374h-45.914063v30h45.914063c21.222656 0 38.488281-17.261718 38.488281-38.484374v-23.691407c0-21.222656-17.265625-38.488281-38.488281-38.488281zm0 0" fill="#ff9500"/><path d="m389.871094 380.515625h-267.742188c-15.074218 0-27.292968-12.21875-27.292968-27.292969v-194.445312c0-15.074219 12.21875-27.292969 27.292968-27.292969h267.742188c15.070312 0 27.289062 12.21875 27.289062 27.292969v194.445312c.003906 15.074219-12.214844 27.292969-27.289062 27.292969zm0 0" fill="#fff"/><path d="m389.871094 131.484375h-134.277344v249.03125h134.277344c15.070312 0 27.289062-12.21875 27.289062-27.292969v-194.445312c.003906-15.074219-12.214844-27.292969-27.289062-27.292969zm0 0" fill="#e9edf5"/><path d="m333 224c0 42.527344-34.472656 77-77 77s-77-34.472656-77-77 34.472656-77 77-77 77 34.472656 77 77zm0 0" fill="#fe6a16"/><path d="m256 147c-.136719 0-.269531.011719-.40625.011719v153.976562c.136719 0 .269531.011719.40625.011719 42.527344 0 77-34.472656 77-77s-34.472656-77-77-77zm0 0" fill="#f24500"/><path d="m307.589844 209h-36.589844v-36.589844h-30v36.589844h-36.589844v30h36.589844v36.589844h30v-36.589844h36.589844zm0 0" fill="#fff"/><path d="m255.59375 275.589844h15.40625v-36.589844h36.589844v-30h-36.589844v-36.589844h-15.40625zm0 0" fill="#e9edf5"/><g fill="#f24500"><path d="m94.839844 313h322.320312v30h-322.320312zm0 0"/><path d="m255.59375 313h161.566406v30h-161.566406zm0 0"/></g></svg>