<svg height="512pt" viewBox="0 0 512 512" width="512pt" xmlns="http://www.w3.org/2000/svg"><path d="m512 256c0 141.386719-114.613281 256-256 256s-256-114.613281-256-256 114.613281-256 256-256 256 114.613281 256 256zm0 0" fill="#ffce00"/><path d="m274.902344 511.304688c132.558594-9.675782 237.097656-120.277344 237.097656-255.304688 0-3.382812-.085938-6.742188-.214844-10.089844l-89.464844-89.464844-4.511718 6.445313-52.203125-52.203125-275.925781 168.21875 126.074218 126.074219-26.394531 20.78125zm0 0" fill="#ffa300"/><path d="m89.679688 156.445312h52.984374v122.460938h-52.984374zm0 0" fill="#4a98f7"/><path d="m369.332031 156.445312h52.988281v122.460938h-52.988281zm0 0" fill="#4a7aff"/><path d="m332.382812 384.980469-14.324218 9.039062c-37.914063 23.925781-86.207032 23.925781-124.117188 0l-14.324218-9.039062c-33.753907-21.300781-54.222657-58.425781-54.222657-98.335938v-109.292969c0-64.222656 52.0625-116.28125 116.28125-116.28125h28.648438c64.21875 0 116.28125 52.058594 116.28125 116.28125v109.292969c-.003907 39.910157-20.472657 77.035157-54.222657 98.335938zm0 0" fill="#4a7aff"/><path d="m270.324219 61.070312h-14.730469v350.886719c21.6875.074219 43.390625-5.898437 62.464844-17.9375l14.324218-9.039062c33.75-21.300781 54.21875-58.421875 54.21875-98.335938v-109.292969c0-64.222656-52.058593-116.28125-116.277343-116.28125zm0 0" fill="#0053bf"/><path d="m238.925781 205.902344c0 22.757812-18.449219 41.210937-41.210937 41.210937-22.761719 0-41.210938-18.453125-41.210938-41.210937 0-22.761719 18.449219-41.214844 41.210938-41.214844 22.761718 0 41.210937 18.453125 41.210937 41.214844zm0 0" fill="#a3d4ff"/><path d="m355.496094 205.902344c0 22.757812-18.449219 41.210937-41.210938 41.210937-22.761718 0-41.210937-18.453125-41.210937-41.210937 0-22.761719 18.449219-41.214844 41.210937-41.214844 22.761719 0 41.210938 18.453125 41.210938 41.214844zm0 0" fill="#87c7ff"/><path d="m345.488281 366.039062c0 49.421876-40.066406 89.488282-89.488281 89.488282s-89.488281-40.066406-89.488281-89.488282c0-49.421874 40.066406-89.488281 89.488281-89.488281s89.488281 40.066407 89.488281 89.488281zm0 0" fill="#65b1fc"/><path d="m256 276.550781c-.136719 0-.269531.003907-.40625.003907v178.96875c.136719 0 .269531.003906.40625.003906 49.425781 0 89.488281-40.066406 89.488281-89.488282 0-49.421874-40.0625-89.488281-89.488281-89.488281zm0 0" fill="#4a98f7"/><path d="m286.027344 366.039062c0 16.582032-13.445313 30.027344-30.027344 30.027344s-30.027344-13.445312-30.027344-30.027344c0-16.582031 13.445313-30.027343 30.027344-30.027343s30.027344 13.445312 30.027344 30.027343zm0 0" fill="#4a98f7"/><path d="m256 336.011719c-.136719 0-.269531.011719-.40625.011719v60.03125c.136719 0 .269531.011718.40625.011718 16.582031 0 30.027344-13.445312 30.027344-30.027344 0-16.582031-13.445313-30.027343-30.027344-30.027343zm0 0" fill="#4a7aff"/></svg>