<svg height="512pt" viewBox="0 0 512 512" width="512pt" xmlns="http://www.w3.org/2000/svg"><path d="m256 0c-141.386719 0-256 114.613281-256 256s114.613281 256 256 256 256-114.613281 256-256-114.613281-256-256-256zm0 0" fill="#ffce00"/><path d="m511.660156 269.269531-183.597656-183.597656-181.0625 92.773437 55.242188 55.246094-94.742188 45.808594 32.066406 32.066406-3.070312 2.933594 92.039062 92.039062-81.535156 40.460938 60.367188 60.367188c15.746093 3.027343 32 4.632812 48.632812 4.632812 136.933594 0 248.757812-107.515625 255.660156-242.730469zm0 0" fill="#ffa300"/><path d="m107.5 232.5h297v47h-297zm0 0" fill="#f24500"/><path d="m255.59375 232.5h148.90625v47h-148.90625zm0 0" fill="#f24500"/><path d="m136.496094 197.5h239.007812v117h-239.007812zm0 0" fill="#fa5d0f"/><path d="m255.59375 197.5h119.910156v117h-119.910156zm0 0" fill="#d13400"/><path d="m348.234375 435h-184.46875v-291.765625c0-50.9375 41.292969-92.234375 92.234375-92.234375s92.234375 41.296875 92.234375 92.234375zm0 0" fill="#fe6a16"/><path d="m348.234375 143.234375c0-50.9375-41.292969-92.234375-92.234375-92.234375-.136719 0-.269531.003906-.40625.003906v383.996094h92.640625zm0 0" fill="#f24500"/><path d="m147 403h213v44h-213zm0 0" fill="#f24500"/><path d="m255.59375 403h104.40625v44h-104.40625zm0 0" fill="#d13400"/><path d="m147 134.445312h213v44h-213zm0 0" fill="#f24500"/><path d="m255.59375 134.445312h104.40625v44h-104.40625zm0 0" fill="#d13400"/><path d="m314.5 256c0 32.308594-26.191406 58.5-58.5 58.5s-58.5-26.191406-58.5-58.5 26.191406-58.5 58.5-58.5 58.5 26.191406 58.5 58.5zm0 0" fill="#f24500"/><path d="m256 197.5c-.136719 0-.269531.007812-.40625.011719v116.976562c.136719.003907.269531.011719.40625.011719 32.308594 0 58.5-26.191406 58.5-58.5s-26.191406-58.5-58.5-58.5zm0 0" fill="#d13400"/><path d="m278 256c0 12.148438-9.851562 22-22 22s-22-9.851562-22-22 9.851562-22 22-22 22 9.851562 22 22zm0 0" fill="#fa5d0f"/><path d="m256 234c-.136719 0-.269531.007812-.40625.011719v43.976562c.136719.003907.269531.011719.40625.011719 12.148438 0 22-9.851562 22-22 0-12.152344-9.851562-22-22-22zm0 0" fill="#f24500"/></svg>