<svg height="512pt" viewBox="0 0 512 512" width="512pt" xmlns="http://www.w3.org/2000/svg"><path d="m512 256c0 141.386719-114.613281 256-256 256s-256-114.613281-256-256 114.613281-256 256-256 256 114.613281 256 256zm0 0" fill="#ffce00"/><path d="m506.347656 309.671875-88.019531-88.019531-49.855469 10.058594-140.050781-140.050782-59.902344 60.125 30.070313 30.070313-10.519532 31.8125-75.292968-75.289063-12.890625 16.726563 304.480469 309.539062c51.210937-36.484375 88.40625-91.355469 101.980468-154.972656zm0 0" fill="#ffa300"/><path d="m180.257812 197.964844 29.6875 8.933594-15.46875 51.394531-29.6875-8.933594zm0 0" fill="#a65d4e"/><path d="m245.296875 249.800781-16.0625-79.738281 15.949219 4.800781-16.761719-83.203125-59.902344 60.125 15.953125 4.804688-57.40625 57.621094zm0 0" fill="#06ccab"/><path d="m367.011719 293.316406 37.691406-12.292968 21.28125 65.25-37.691406 12.292968zm0 0" fill="#b46e5a"/><path d="m473.160156 300.25-75.085937-71.988281 20.253906-6.609375-78.351563-75.117188-18.988281 106.867188 20.253907-6.605469-18.199219 102.414063zm0 0" fill="#00bd9d"/><path d="m500.242188 332.894531c-17.433594-.074219-33.050782 7.660157-43.566407 19.921875-10.464843-12.207031-25.984375-19.949218-43.324219-19.949218-13.933593 0-26.699218 5.003906-36.605468 13.300781-5.402344-38.523438-38.46875-68.167969-78.476563-68.167969-17.066406 0-32.855469 5.410156-45.789062 14.582031-3.539063-23.355469-21.242188-42.050781-44.074219-47.085937.613281-3.742188.949219-7.578125.949219-11.496094 0-38.855469-31.5-70.355469-70.355469-70.355469-5.128906 0-10.121094.5625-14.9375 1.605469-6.179688-32.546875-34.757812-57.160156-69.101562-57.160156-2.800782 0-5.558594.183594-8.273438.5-29.40625 41.679687-46.6875 92.523437-46.6875 147.410156 0 141.386719 114.613281 256 256 256 114.59375 0 211.589844-75.296875 244.242188-179.105469zm0 0" fill="#a65d4e"/><path d="m456.675781 352.816406c-10.464843-12.207031-25.984375-19.949218-43.324219-19.949218-13.933593 0-26.699218 5.003906-36.605468 13.300781-5.402344-38.523438-38.46875-68.167969-78.476563-68.167969-15.71875 0-30.355469 4.601562-42.671875 12.492188v221.503906c.132813 0 .269532.003906.402344.003906 114.59375 0 211.59375-75.296875 244.242188-179.105469-17.433594-.074219-33.050782 7.660157-43.566407 19.921875zm0 0" fill="#784132"/><path d="m180.75 278c0 23.058594-18.691406 41.75-41.75 41.75s-48-6.691406-48-29.75 1.882812-53.75 24.941406-53.75 64.808594 18.691406 64.808594 41.75zm0 0" fill="#c38778"/><path d="m337.167969 349.617188c10.53125 10.4375 10.609375 27.4375.171875 37.96875s-24.785156 18.890624-35.316406 8.453124c-10.53125-10.433593-23.695313-25.1875-13.257813-35.71875s37.871094-21.136718 48.402344-10.703124zm0 0" fill="#b46e5a"/></svg>