<svg height="512pt" viewBox="0 0 512 512" width="512pt" xmlns="http://www.w3.org/2000/svg"><path d="m512 256c0 141.386719-114.613281 256-256 256s-256-114.613281-256-256 114.613281-256 256-256 256 114.613281 256 256zm0 0" fill="#fe6a16"/><path d="m268.328125 511.699219c135.65625-6.433594 243.671875-118.449219 243.671875-255.699219 0-12.84375-.957031-25.464844-2.785156-37.800781l-113.328125-113.332031-310 181.265624 100.445312 100.441407-22.574219 20.554687zm0 0" fill="#f24500"/><path d="m234.632812 407.132812h-70.875l-47.4375-149.601562h70.875zm0 0" fill="#ffce00"/><path d="m187.195312 257.53125h-34.046874l44.671874 149.601562h36.8125zm0 0" fill="#ffa300"/><path d="m399.847656 278.085938h-35.328125c-23.5 0-42.550781-19.054688-42.550781-42.554688s19.050781-42.550781 42.550781-42.550781h35.328125c23.5 0 42.550782 19.050781 42.550782 42.550781s-19.050782 42.554688-42.550782 42.554688zm0 0" fill="#5a5a5a"/><path d="m321.980469 235.070312c-.003907.15625-.011719.308594-.011719.460938 0 23.5 19.050781 42.550781 42.550781 42.550781h35.328125c23.5 0 42.550782-19.050781 42.550782-42.550781 0-.152344-.007813-.304688-.011719-.460938zm0 0" fill="#464646"/><path d="m395.886719 365.863281-262.597657-73.519531v-114.675781l262.597657-72.800781zm0 0" fill="#fff"/><path d="m133.289062 235.070312v57.273438l262.597657 73.519531v-130.792969zm0 0" fill="#e9edf5"/><path d="m151.195312 298.085938h-28.476562c-34.640625 0-62.71875-28.082032-62.71875-62.71875 0-34.636719 28.078125-62.71875 62.71875-62.71875h28.476562zm0 0" fill="#5a5a5a"/><path d="m60.007812 235.070312c0 .101563-.007812.199219-.007812.296876 0 34.636718 28.078125 62.71875 62.71875 62.71875h28.476562v-63.015626zm0 0" fill="#464646"/></svg>