<svg height="512pt" viewBox="0 0 512 512" width="512pt" xmlns="http://www.w3.org/2000/svg"><path d="m512 256c0 141.386719-114.613281 256-256 256s-256-114.613281-256-256 114.613281-256 256-256 256 114.613281 256 256zm0 0" fill="#ffce00"/><path d="m512 256c0-22.539062-2.925781-44.398438-8.394531-65.222656l-76.691407-76.691406-75.042968 80.871093-95.871094-95.871093-52.972656 30 108.90625 108.90625-5.167969 5.570312-89.070313-89.074219-39.109374 19.0625-29.554688-29.550781-33 30 40.890625 40.890625-61.921875 13.207031 44.09375 44.09375-79.09375 18.953125 49.257812 49.257813-14.257812 9.417968 41.121094 41.125-3.59375 2.550782 118.441406 118.441406c1.671875.03125 3.347656.0625 5.03125.0625 141.386719 0 256-114.613281 256-256zm0 0" fill="#ffa300"/><path d="m225 331.730469h62v107.335937h-62zm0 0" fill="#a65d4e"/><path d="m256 331.730469h31v107.335937h-31zm0 0" fill="#784132"/><path d="m195.300781 276.144531-62.773437 117.355469h246.945312l-53.582031-100.171875zm0 0" fill="#00bd9d"/><path d="m325.890625 293.328125-69.890625-9.195313v109.367188h123.472656zm0 0" fill="#0f9887"/><path d="m344.183594 247.296875 21.777344 25.214844 60.953124-158.425781-165.613281 37.238281 21.777344 25.214843-28.867187 6.492188 72.351562 110.066406zm0 0" fill="#00bd9d"/><path d="m294.996094 245.074219 31.566406 48.023437 17.621094-45.800781 21.777344 25.214844 60.953124-158.425781zm0 0" fill="#0f9887"/><path d="m189.953125 228.097656h-94.953125v-30h94.953125c6.644531 0 12.046875-5.40625 12.046875-12.050781 0-6.640625-5.402344-12.046875-12.046875-12.046875h-12.953125v-30h12.953125c23.183594 0 42.046875 18.863281 42.046875 42.046875 0 23.1875-18.863281 42.050781-42.046875 42.050781zm0 0" fill="#4a7aff"/><path d="m189.953125 144h-12.953125v30h12.953125c6.644531 0 12.046875 5.40625 12.046875 12.046875 0 6.644531-5.402344 12.050781-12.046875 12.050781h-40.453125v30h40.453125c23.183594 0 42.046875-18.863281 42.046875-42.050781 0-23.183594-18.863281-42.046875-42.046875-42.046875zm0 0" fill="#0053bf"/><path d="m60 261.144531h89.03125v30h-89.03125zm0 0" fill="#4a7aff"/><path d="m116.03125 144h33v30h-33zm0 0" fill="#4a7aff"/><path d="m203.027344 99.085938h52.972656v30h-52.972656zm0 0" fill="#0053bf"/><path d="m95 319.820312h37.53125v30h-37.53125zm0 0" fill="#4a7aff"/></svg>