<svg height="512pt" viewBox="0 0 512 512" width="512pt" xmlns="http://www.w3.org/2000/svg"><path d="m512 256c0 141.386719-114.613281 256-256 256s-256-114.613281-256-256 114.613281-256 256-256 256 114.613281 256 256zm0 0" fill="#ffce00"/><path d="m511.863281 263.992188-156.945312-156.945313-182.359375 333.390625 71.265625 71.265625c4.035156.191406 8.09375.296875 12.175781.296875 138.710938 0 251.640625-110.324219 255.863281-248.007812zm0 0" fill="#ffa300"/><path d="m344.820312 380.863281h-82.820312v-30h82.820312c31.617188 0 57.339844-25.722656 57.339844-57.339843v-69.980469h30v69.980469c0 48.160156-39.179687 87.339843-87.339844 87.339843zm0 0" fill="#f24500"/><path d="m172.558594 238.742188h166.882812v201.699218h-166.882812zm0 0" fill="#f24500"/><path d="m255.59375 238.742188h83.847656v201.699218h-83.847656zm0 0" fill="#d13400"/><path d="m382.785156 186.347656c0 70.019532-56.761718 126.785156-126.785156 126.785156s-126.785156-56.765624-126.785156-126.785156c0-70.023437 56.761718-126.789062 126.785156-126.789062s126.785156 56.765625 126.785156 126.789062zm0 0" fill="#fe6a16"/><path d="m256 59.5625c-.136719 0-.269531.003906-.40625.003906v253.5625c.136719 0 .269531.003906.40625.003906 70.023438 0 126.785156-56.765624 126.785156-126.785156 0-70.023437-56.761718-126.785156-126.785156-126.785156zm0 0" fill="#f24500"/><path d="m293.195312 186.347656c0 20.542969-16.652343 37.195313-37.195312 37.195313s-37.195312-16.652344-37.195312-37.195313c0-20.542968 16.652343-37.199218 37.195312-37.199218s37.195312 16.65625 37.195312 37.199218zm0 0" fill="#f24500"/><path d="m256 149.148438c-.136719 0-.269531.011718-.40625.011718v74.371094c.136719 0 .269531.011719.40625.011719 20.542969 0 37.195312-16.652344 37.195312-37.195313 0-20.542968-16.652343-37.199218-37.195312-37.199218zm0 0" fill="#d13400"/><path d="m454.359375 223.542969c0 20.542969-16.652344 37.195312-37.195313 37.195312-20.542968 0-37.195312-16.652343-37.195312-37.195312s16.652344-37.195313 37.195312-37.195313c20.542969 0 37.195313 16.652344 37.195313 37.195313zm0 0" fill="#fff"/></svg>