<svg height="512pt" viewBox="0 0 512 512" width="512pt" xmlns="http://www.w3.org/2000/svg"><path d="m512 256c0 141.386719-114.613281 256-256 256s-256-114.613281-256-256 114.613281-256 256-256 256 114.613281 256 256zm0 0" fill="#4a7aff"/><path d="m512 256c0-6.203125-.234375-12.351562-.667969-18.445312l-65.066406-65.066407-7.851563 8.421875-41.085937-41.085937-43.203125 63.207031-100.425781-100.425781-180.1875 135.386719 94.480469 94.484374-16.125 6.160157 32.828124 32.828125-31.179687 62.660156 76.578125 76.574219c8.519531.859375 17.160156 1.300781 25.90625 1.300781 141.386719 0 256-114.613281 256-256zm0 0" fill="#0053bf"/><path d="m271.78125 258.863281c36.628906 0 66.324219-29.695312 66.324219-66.324219 0-36.628906-29.695313-66.324218-66.324219-66.324218-1.484375 0-2.953125.066406-4.414062.164062-10.574219-29.78125-38.996094-51.105468-72.402344-51.105468-33.351563 0-61.734375 21.257812-72.351563 50.960937-.269531-.003906-.539062-.019531-.808593-.019531-36.628907 0-66.324219 29.695312-66.324219 66.324218 0 36.628907 29.695312 66.324219 66.324219 66.324219zm0 0" fill="#bfe1ff"/><path d="m271.78125 126.214844c-1.484375 0-2.953125.066406-4.414062.164062-10.578126-29.78125-38.996094-51.105468-72.402344-51.105468-.226563 0-.453125.011718-.679688.011718v183.578125h77.496094c36.628906 0 66.324219-29.695312 66.324219-66.324219 0-36.628906-29.695313-66.324218-66.324219-66.324218zm0 0" fill="#a3d4ff"/><path d="m412.1875 258.863281c27.570312 0 49.917969-22.347656 49.917969-49.917969 0-27.566406-22.347657-49.917968-49.917969-49.917968-1.117188 0-2.222656.050781-3.320312.125-7.960938-22.414063-29.351563-38.464844-54.492188-38.464844-25.101562 0-46.464844 16-54.453125 38.355469-.203125 0-.40625-.015625-.609375-.015625-27.570312 0-49.917969 22.351562-49.917969 49.917968 0 27.570313 22.347657 49.917969 49.917969 49.917969zm0 0" fill="#87c7ff"/><path d="m412.1875 159.03125c-1.117188 0-2.222656.046875-3.320312.121094-7.960938-22.414063-29.351563-38.464844-54.492188-38.464844-.1875 0-.375.011719-.566406.011719v138.164062h58.378906c27.570312 0 49.917969-22.347656 49.917969-49.917969 0-27.566406-22.347657-49.914062-49.917969-49.914062zm0 0" fill="#65b1fc"/><path d="m229.058594 208.667969-77.191406 129.96875h40.167968l-38.519531 95.492187 95.234375-130.9375h-44.488281zm0 0" fill="#ffce00"/><path d="m204.261719 303.191406 24.796875-94.523437-34.773438 58.546875v110.859375l54.464844-74.882813zm0 0" fill="#ffa300"/><path d="m370.710938 208.667969-77.191407 129.96875h40.171875l-38.519531 95.492187 95.230469-130.9375h-44.488282zm0 0" fill="#ffce00"/><g fill="#ffa300"><path d="m370.710938 208.667969-16.902344 28.457031v35.972656zm0 0"/><path d="m353.808594 303.191406v50.3125l36.59375-50.3125zm0 0"/></g></svg>