<svg height="512pt" viewBox="0 0 512 512" width="512pt" xmlns="http://www.w3.org/2000/svg"><path d="m512 256c0 141.386719-114.613281 256-256 256s-256-114.613281-256-256 114.613281-256 256-256 256 114.613281 256 256zm0 0" fill="#a65d4e"/><path d="m511.871094 263.839844-93.390625-93.386719-55.054688 62.433594 126.722657 126.722656c13.039062-29.425781 20.699218-61.761719 21.722656-95.769531zm0 0" fill="#784132"/><path d="m5.316406 308.125c24.078125 116.390625 127.160156 203.875 250.683594 203.875s226.605469-87.484375 250.683594-203.875l-250.683594-250.683594zm0 0" fill="#a3d4ff"/><path d="m256 57.441406-.40625.40625v454.148438c.136719 0 .269531.003906.40625.003906 123.523438 0 226.605469-87.484375 250.683594-203.875zm0 0" fill="#87c7ff"/><path d="m174.976562 194.429688-5.136718 24.652343c-1.199219-.101562-2.414063-.164062-3.640625-.164062-23.773438 0-43.046875 19.273437-43.046875 43.046875 0 9.082031 2.816406 17.5 7.617187 24.445312-16.960937 11.566406-27.984375 31.199219-27.527343 53.382813.691406 33.507812 28.03125 60.890625 61.539062 61.628906 10.273438.226563 20.003906-2.011719 28.640625-6.160156 3.472656 31.492187 30.160156 55.996093 62.578125 55.996093s59.105469-24.503906 62.578125-55.996093c8.636719 4.148437 18.367187 6.386719 28.640625 6.160156 33.507812-.738281 60.847656-28.121094 61.539062-61.628906.457032-22.183594-10.566406-41.816407-27.527343-53.382813 4.800781-6.945312 7.617187-15.363281 7.617187-24.445312 0-23.773438-19.273437-43.046875-43.046875-43.046875-1.230469 0-2.441406.0625-3.640625.164062l-5.136718-24.652343c-9.609376-46.125-32.472657-88.4375-65.789063-121.753907l-15.234375-15.234375-15.234375 15.234375c-33.3125 33.316407-56.179687 75.628907-65.789063 121.753907zm0 0" fill="#fff"/><path d="m255.59375 451.246094c.136719 0 .269531.011718.40625.011718 32.417969 0 59.105469-24.503906 62.578125-55.996093 8.636719 4.148437 18.367187 6.386719 28.640625 6.160156 33.507812-.738281 60.847656-28.121094 61.539062-61.628906.457032-22.183594-10.566406-41.816407-27.527343-53.382813 4.800781-6.945312 7.617187-15.363281 7.617187-24.445312 0-23.773438-19.273437-43.046875-43.046875-43.046875-1.230469 0-2.441406.0625-3.640625.164062l-5.136718-24.652343c-9.609376-46.125-32.472657-88.4375-65.789063-121.753907l-15.234375-15.234375zm0 0" fill="#dbeeff"/><g fill="#fff"><path d="m148.988281 191.226562c0 17.46875-14.160156 31.632813-31.628906 31.632813s-31.632813-14.164063-31.632813-31.632813 14.164063-31.628906 31.632813-31.628906 31.628906 14.160156 31.628906 31.628906zm0 0"/><path d="m90.058594 281.367188c0 11.753906-9.527344 21.28125-21.28125 21.28125s-21.28125-9.527344-21.28125-21.28125c0-11.753907 9.527344-21.28125 21.28125-21.28125s21.28125 9.527343 21.28125 21.28125zm0 0"/><path d="m185.242188 427.636719c0 10.011719-8.113282 18.125-18.125 18.125-10.011719 0-18.125-8.113281-18.125-18.125s8.113281-18.125 18.125-18.125c10.011718 0 18.125 8.113281 18.125 18.125zm0 0"/></g><path d="m426.273438 191.226562c0 17.46875-14.164063 31.632813-31.632813 31.632813s-31.628906-14.164063-31.628906-31.632813 14.160156-31.628906 31.628906-31.628906 31.632813 14.160156 31.632813 31.628906zm0 0" fill="#dbeeff"/><path d="m467.210938 275.628906c0 11.753906-9.53125 21.28125-21.285157 21.28125-11.753906 0-21.28125-9.527344-21.28125-21.28125s9.527344-21.28125 21.28125-21.28125c11.753907 0 21.285157 9.527344 21.285157 21.28125zm0 0" fill="#dbeeff"/><path d="m363.007812 427.636719c0 10.011719-8.113281 18.125-18.125 18.125-10.011718 0-18.125-8.113281-18.125-18.125s8.113282-18.125 18.125-18.125c10.011719 0 18.125 8.113281 18.125 18.125zm0 0" fill="#dbeeff"/></svg>