<svg height="512pt" viewBox="0 0 512 512" width="512pt" xmlns="http://www.w3.org/2000/svg"><path d="m512 256c0 141.386719-114.613281 256-256 256s-256-114.613281-256-256 114.613281-256 256-256 256 114.613281 256 256zm0 0" fill="#ffce00"/><path d="m396.714844 469.871094c69.445312-45.785156 115.285156-124.46875 115.285156-213.871094 0-6.472656-.246094-12.890625-.71875-19.242188l-94.148438-94.148437-155.132812-53.964844-158.191406 254.355469zm0 0" fill="#ffa300"/><path d="m193.257812 266.820312c0-78.835937 63.910157-142.746093 142.75-142.746093 42.3125 0 80.320313 18.417969 106.460938 47.667969-39.867188-54.902344-104.558594-90.609376-177.597656-90.609376-121.144532 0-219.351563 98.207032-219.351563 219.351563 0 18.183594 2.230469 35.847656 6.402344 52.742187h170.464844c-18.273438-23.984374-29.128907-53.925781-29.128907-86.40625zm0 0" fill="#4a7aff"/><path d="m264.871094 81.132812c-3.105469 0-6.195313.082032-9.273438.207032v67.527344c22.898438-15.640626 50.582032-24.792969 80.410156-24.792969 42.3125 0 80.320313 18.417969 106.460938 47.667969-39.867188-54.902344-104.558594-90.609376-177.597656-90.609376zm0 0" fill="#0053bf"/><path d="m417.132812 372.164062h-171.265624v-154.414062l85.632812-68.054688 85.632812 68.054688zm0 0" fill="#a65d4e"/><path d="m417.132812 217.75-85.632812-68.054688v222.46875h85.632812zm0 0" fill="#784132"/><path d="m297.472656 277.605469h68.054688v94.558593h-68.054688zm0 0" fill="#784132"/><path d="m331.5 277.605469h34.027344v94.558593h-34.027344zm0 0" fill="#61362b"/><path d="m15.175781 343c35.609375 98.554688 129.984375 169 240.824219 169s205.214844-70.445312 240.824219-169zm0 0" fill="#4a7aff"/><path d="m255.59375 343v168.996094c.136719 0 .269531.003906.40625.003906 110.839844 0 205.214844-70.445312 240.824219-169zm0 0" fill="#0053bf"/></svg>