<svg height="512pt" viewBox="0 0 512 512" width="512pt" xmlns="http://www.w3.org/2000/svg"><path d="m512 256c0 141.386719-114.613281 256-256 256s-256-114.613281-256-256 114.613281-256 256-256 256 114.613281 256 256zm0 0" fill="#a65d4e"/><path d="m313.953125 73.460938-119.839844 125.222656 239.851563 239.851562c44.433594-42.980468 73.335937-101.910156 77.496094-167.566406zm0 0" fill="#784132"/><path d="m5.507812 309c24.410157 115.949219 127.28125 203 250.492188 203s226.082031-87.050781 250.492188-203zm0 0" fill="#fa0"/><path d="m255.59375 309v202.996094c.136719 0 .269531.003906.40625.003906 123.210938 0 226.082031-87.050781 250.492188-203zm0 0" fill="#ff9500"/><path d="m461.535156 352h-71.355468l-34.621094-43h-38.519532l18.78125 23.324219-55.667968 31.988281-40.597656-55.3125h-37.214844l26.957031 36.722656-42.4375 32.492188-48.128906-35.734375 11.414062-33.480469h-31.695312l-8.84375 25.929688-44.359375 8.609374 7.136718-34.539062h-30.632812l-12.132812 58.722656 76.722656 72.355469-15.890625 11.175781c8.011719 6.800782 16.445312 13.121094 25.265625 18.90625l37.949218-26.683594-76.09375-71.765624 39.796876-7.726563 57.695312 42.835937 23.652344 49.648438-23.613282 42.472656c9.71875 3.234375 19.695313 5.910156 29.894532 7.972656l27.453125-49.382812-26.679688-56.011719 41.28125-31.609375 24.792969 33.777344 33.542969-19.273438 18.410156 49.992188-34.191406 75.402344c12.417969-1.628906 24.550781-4.15625 36.339843-7.5l19.390626-42.757813 27.722656 24.167969c9.390625-4.835938 18.441406-10.242188 27.113281-16.164062l-47.421875-41.34375-20.976562-56.960938 23.097656-13.269531 20.949218 26.019531h66.644532l14.980468 31.953125c7.164063-9.125 13.734376-18.746094 19.625-28.808594zm0 0" fill="#fe8205"/><path d="m461.535156 352h-71.355468l-34.621094-43h-38.519532l18.78125 23.324219-55.667968 31.988281-24.558594-33.460938v50.699219l16.25 22.136719 33.539062-19.273438 18.414063 49.996094-34.191406 75.398438c12.414062-1.628906 24.546875-4.15625 36.339843-7.496094l19.390626-42.761719 27.722656 24.167969c9.390625-4.835938 18.441406-10.242188 27.113281-16.164062l-47.421875-41.339844-20.980469-56.960938 23.097657-13.273437 20.953124 26.019531h66.644532l14.980468 31.953125c7.164063-9.125 13.734376-18.746094 19.625-28.808594zm0 0" fill="#fe6a16"/><path d="m342.710938 137.960938c0 47.886718-38.820313 86.710937-86.710938 86.710937s-86.710938-38.824219-86.710938-86.710937c0-47.890626 38.820313-86.714844 86.710938-86.714844s86.710938 38.824218 86.710938 86.714844zm0 0" fill="#ffce00"/><path d="m256 51.246094c-.136719 0-.269531.007812-.40625.007812v173.410156c.136719 0 .269531.007813.40625.007813 47.890625 0 86.710938-38.824219 86.710938-86.710937 0-47.890626-38.820313-86.714844-86.710938-86.714844zm0 0" fill="#ffa300"/></svg>